G04 #@! TF.GenerationSoftware,KiCad,Pcbnew,5.1.10-88a1d61d58~90~ubuntu20.04.1*
G04 #@! TF.CreationDate,2021-10-05T00:38:42+01:00*
G04 #@! TF.ProjectId,lipo-discharge-protection-board,6c69706f-2d64-4697-9363-68617267652d,1*
G04 #@! TF.SameCoordinates,Original*
G04 #@! TF.FileFunction,Paste,Top*
G04 #@! TF.FilePolarity,Positive*
%FSLAX46Y46*%
G04 Gerber Fmt 4.6, Leading zero omitted, Abs format (unit mm)*
G04 Created by KiCad (PCBNEW 5.1.10-88a1d61d58~90~ubuntu20.04.1) date 2021-10-05 00:38:42*
%MOMM*%
%LPD*%
G01*
G04 APERTURE LIST*
%ADD10R,3.800000X4.000000*%
%ADD11R,1.500000X2.700000*%
%ADD12R,0.800000X0.900000*%
%ADD13R,2.300000X0.900000*%
%ADD14C,0.152400*%
G04 APERTURE END LIST*
D10*
X91325800Y-65151600D03*
X91325800Y-47981200D03*
X51854200Y-47981200D03*
X51854200Y-65126200D03*
G36*
G01*
X21525000Y-69875000D02*
X22475000Y-69875000D01*
G75*
G02*
X22725000Y-70125000I0J-250000D01*
G01*
X22725000Y-70800000D01*
G75*
G02*
X22475000Y-71050000I-250000J0D01*
G01*
X21525000Y-71050000D01*
G75*
G02*
X21275000Y-70800000I0J250000D01*
G01*
X21275000Y-70125000D01*
G75*
G02*
X21525000Y-69875000I250000J0D01*
G01*
G37*
G36*
G01*
X21525000Y-71950000D02*
X22475000Y-71950000D01*
G75*
G02*
X22725000Y-72200000I0J-250000D01*
G01*
X22725000Y-72875000D01*
G75*
G02*
X22475000Y-73125000I-250000J0D01*
G01*
X21525000Y-73125000D01*
G75*
G02*
X21275000Y-72875000I0J250000D01*
G01*
X21275000Y-72200000D01*
G75*
G02*
X21525000Y-71950000I250000J0D01*
G01*
G37*
G36*
G01*
X25349999Y-72900000D02*
X26650001Y-72900000D01*
G75*
G02*
X26900000Y-73149999I0J-249999D01*
G01*
X26900000Y-73975001D01*
G75*
G02*
X26650001Y-74225000I-249999J0D01*
G01*
X25349999Y-74225000D01*
G75*
G02*
X25100000Y-73975001I0J249999D01*
G01*
X25100000Y-73149999D01*
G75*
G02*
X25349999Y-72900000I249999J0D01*
G01*
G37*
G36*
G01*
X25349999Y-69775000D02*
X26650001Y-69775000D01*
G75*
G02*
X26900000Y-70024999I0J-249999D01*
G01*
X26900000Y-70850001D01*
G75*
G02*
X26650001Y-71100000I-249999J0D01*
G01*
X25349999Y-71100000D01*
G75*
G02*
X25100000Y-70850001I0J249999D01*
G01*
X25100000Y-70024999D01*
G75*
G02*
X25349999Y-69775000I249999J0D01*
G01*
G37*
G36*
G01*
X89800000Y-70525000D02*
X89800000Y-71475000D01*
G75*
G02*
X89550000Y-71725000I-250000J0D01*
G01*
X88875000Y-71725000D01*
G75*
G02*
X88625000Y-71475000I0J250000D01*
G01*
X88625000Y-70525000D01*
G75*
G02*
X88875000Y-70275000I250000J0D01*
G01*
X89550000Y-70275000D01*
G75*
G02*
X89800000Y-70525000I0J-250000D01*
G01*
G37*
G36*
G01*
X91875000Y-70525000D02*
X91875000Y-71475000D01*
G75*
G02*
X91625000Y-71725000I-250000J0D01*
G01*
X90950000Y-71725000D01*
G75*
G02*
X90700000Y-71475000I0J250000D01*
G01*
X90700000Y-70525000D01*
G75*
G02*
X90950000Y-70275000I250000J0D01*
G01*
X91625000Y-70275000D01*
G75*
G02*
X91875000Y-70525000I0J-250000D01*
G01*
G37*
G36*
G01*
X29599999Y-69775000D02*
X30900001Y-69775000D01*
G75*
G02*
X31150000Y-70024999I0J-249999D01*
G01*
X31150000Y-70850001D01*
G75*
G02*
X30900001Y-71100000I-249999J0D01*
G01*
X29599999Y-71100000D01*
G75*
G02*
X29350000Y-70850001I0J249999D01*
G01*
X29350000Y-70024999D01*
G75*
G02*
X29599999Y-69775000I249999J0D01*
G01*
G37*
G36*
G01*
X29599999Y-72900000D02*
X30900001Y-72900000D01*
G75*
G02*
X31150000Y-73149999I0J-249999D01*
G01*
X31150000Y-73975001D01*
G75*
G02*
X30900001Y-74225000I-249999J0D01*
G01*
X29599999Y-74225000D01*
G75*
G02*
X29350000Y-73975001I0J249999D01*
G01*
X29350000Y-73149999D01*
G75*
G02*
X29599999Y-72900000I249999J0D01*
G01*
G37*
G36*
G01*
X88600000Y-74099999D02*
X88600000Y-75400001D01*
G75*
G02*
X88350001Y-75650000I-249999J0D01*
G01*
X87524999Y-75650000D01*
G75*
G02*
X87275000Y-75400001I0J249999D01*
G01*
X87275000Y-74099999D01*
G75*
G02*
X87524999Y-73850000I249999J0D01*
G01*
X88350001Y-73850000D01*
G75*
G02*
X88600000Y-74099999I0J-249999D01*
G01*
G37*
G36*
G01*
X91725000Y-74099999D02*
X91725000Y-75400001D01*
G75*
G02*
X91475001Y-75650000I-249999J0D01*
G01*
X90649999Y-75650000D01*
G75*
G02*
X90400000Y-75400001I0J249999D01*
G01*
X90400000Y-74099999D01*
G75*
G02*
X90649999Y-73850000I249999J0D01*
G01*
X91475001Y-73850000D01*
G75*
G02*
X91725000Y-74099999I0J-249999D01*
G01*
G37*
G36*
G01*
X91725000Y-78099999D02*
X91725000Y-79400001D01*
G75*
G02*
X91475001Y-79650000I-249999J0D01*
G01*
X90649999Y-79650000D01*
G75*
G02*
X90400000Y-79400001I0J249999D01*
G01*
X90400000Y-78099999D01*
G75*
G02*
X90649999Y-77850000I249999J0D01*
G01*
X91475001Y-77850000D01*
G75*
G02*
X91725000Y-78099999I0J-249999D01*
G01*
G37*
G36*
G01*
X88600000Y-78099999D02*
X88600000Y-79400001D01*
G75*
G02*
X88350001Y-79650000I-249999J0D01*
G01*
X87524999Y-79650000D01*
G75*
G02*
X87275000Y-79400001I0J249999D01*
G01*
X87275000Y-78099999D01*
G75*
G02*
X87524999Y-77850000I249999J0D01*
G01*
X88350001Y-77850000D01*
G75*
G02*
X88600000Y-78099999I0J-249999D01*
G01*
G37*
G36*
G01*
X44525000Y-48337500D02*
X45475000Y-48337500D01*
G75*
G02*
X45725000Y-48587500I0J-250000D01*
G01*
X45725000Y-49262500D01*
G75*
G02*
X45475000Y-49512500I-250000J0D01*
G01*
X44525000Y-49512500D01*
G75*
G02*
X44275000Y-49262500I0J250000D01*
G01*
X44275000Y-48587500D01*
G75*
G02*
X44525000Y-48337500I250000J0D01*
G01*
G37*
G36*
G01*
X44525000Y-50412500D02*
X45475000Y-50412500D01*
G75*
G02*
X45725000Y-50662500I0J-250000D01*
G01*
X45725000Y-51337500D01*
G75*
G02*
X45475000Y-51587500I-250000J0D01*
G01*
X44525000Y-51587500D01*
G75*
G02*
X44275000Y-51337500I0J250000D01*
G01*
X44275000Y-50662500D01*
G75*
G02*
X44525000Y-50412500I250000J0D01*
G01*
G37*
G36*
G01*
X23099999Y-46900000D02*
X24400001Y-46900000D01*
G75*
G02*
X24650000Y-47149999I0J-249999D01*
G01*
X24650000Y-47975001D01*
G75*
G02*
X24400001Y-48225000I-249999J0D01*
G01*
X23099999Y-48225000D01*
G75*
G02*
X22850000Y-47975001I0J249999D01*
G01*
X22850000Y-47149999D01*
G75*
G02*
X23099999Y-46900000I249999J0D01*
G01*
G37*
G36*
G01*
X23099999Y-43775000D02*
X24400001Y-43775000D01*
G75*
G02*
X24650000Y-44024999I0J-249999D01*
G01*
X24650000Y-44850001D01*
G75*
G02*
X24400001Y-45100000I-249999J0D01*
G01*
X23099999Y-45100000D01*
G75*
G02*
X22850000Y-44850001I0J249999D01*
G01*
X22850000Y-44024999D01*
G75*
G02*
X23099999Y-43775000I249999J0D01*
G01*
G37*
G36*
G01*
X49975000Y-75125000D02*
X49025000Y-75125000D01*
G75*
G02*
X48775000Y-74875000I0J250000D01*
G01*
X48775000Y-74200000D01*
G75*
G02*
X49025000Y-73950000I250000J0D01*
G01*
X49975000Y-73950000D01*
G75*
G02*
X50225000Y-74200000I0J-250000D01*
G01*
X50225000Y-74875000D01*
G75*
G02*
X49975000Y-75125000I-250000J0D01*
G01*
G37*
G36*
G01*
X49975000Y-73050000D02*
X49025000Y-73050000D01*
G75*
G02*
X48775000Y-72800000I0J250000D01*
G01*
X48775000Y-72125000D01*
G75*
G02*
X49025000Y-71875000I250000J0D01*
G01*
X49975000Y-71875000D01*
G75*
G02*
X50225000Y-72125000I0J-250000D01*
G01*
X50225000Y-72800000D01*
G75*
G02*
X49975000Y-73050000I-250000J0D01*
G01*
G37*
G36*
G01*
X28099999Y-43775000D02*
X29400001Y-43775000D01*
G75*
G02*
X29650000Y-44024999I0J-249999D01*
G01*
X29650000Y-44850001D01*
G75*
G02*
X29400001Y-45100000I-249999J0D01*
G01*
X28099999Y-45100000D01*
G75*
G02*
X27850000Y-44850001I0J249999D01*
G01*
X27850000Y-44024999D01*
G75*
G02*
X28099999Y-43775000I249999J0D01*
G01*
G37*
G36*
G01*
X28099999Y-46900000D02*
X29400001Y-46900000D01*
G75*
G02*
X29650000Y-47149999I0J-249999D01*
G01*
X29650000Y-47975001D01*
G75*
G02*
X29400001Y-48225000I-249999J0D01*
G01*
X28099999Y-48225000D01*
G75*
G02*
X27850000Y-47975001I0J249999D01*
G01*
X27850000Y-47149999D01*
G75*
G02*
X28099999Y-46900000I249999J0D01*
G01*
G37*
D11*
X55850000Y-80750000D03*
X60650000Y-80750000D03*
D12*
X61250000Y-72500000D03*
X62200000Y-74500000D03*
X60300000Y-74500000D03*
X81800000Y-74750000D03*
X83700000Y-74750000D03*
X82750000Y-72750000D03*
X71750000Y-72750000D03*
X72700000Y-74750000D03*
X70800000Y-74750000D03*
X76300000Y-74750000D03*
X78200000Y-74750000D03*
X77250000Y-72750000D03*
X65550000Y-74750000D03*
X67450000Y-74750000D03*
X66500000Y-72750000D03*
G36*
G01*
X46200000Y-77255000D02*
X46200000Y-77555000D01*
G75*
G02*
X46050000Y-77705000I-150000J0D01*
G01*
X44400000Y-77705000D01*
G75*
G02*
X44250000Y-77555000I0J150000D01*
G01*
X44250000Y-77255000D01*
G75*
G02*
X44400000Y-77105000I150000J0D01*
G01*
X46050000Y-77105000D01*
G75*
G02*
X46200000Y-77255000I0J-150000D01*
G01*
G37*
G36*
G01*
X46200000Y-75985000D02*
X46200000Y-76285000D01*
G75*
G02*
X46050000Y-76435000I-150000J0D01*
G01*
X44400000Y-76435000D01*
G75*
G02*
X44250000Y-76285000I0J150000D01*
G01*
X44250000Y-75985000D01*
G75*
G02*
X44400000Y-75835000I150000J0D01*
G01*
X46050000Y-75835000D01*
G75*
G02*
X46200000Y-75985000I0J-150000D01*
G01*
G37*
G36*
G01*
X46200000Y-74715000D02*
X46200000Y-75015000D01*
G75*
G02*
X46050000Y-75165000I-150000J0D01*
G01*
X44400000Y-75165000D01*
G75*
G02*
X44250000Y-75015000I0J150000D01*
G01*
X44250000Y-74715000D01*
G75*
G02*
X44400000Y-74565000I150000J0D01*
G01*
X46050000Y-74565000D01*
G75*
G02*
X46200000Y-74715000I0J-150000D01*
G01*
G37*
G36*
G01*
X46200000Y-73445000D02*
X46200000Y-73745000D01*
G75*
G02*
X46050000Y-73895000I-150000J0D01*
G01*
X44400000Y-73895000D01*
G75*
G02*
X44250000Y-73745000I0J150000D01*
G01*
X44250000Y-73445000D01*
G75*
G02*
X44400000Y-73295000I150000J0D01*
G01*
X46050000Y-73295000D01*
G75*
G02*
X46200000Y-73445000I0J-150000D01*
G01*
G37*
G36*
G01*
X41250000Y-73445000D02*
X41250000Y-73745000D01*
G75*
G02*
X41100000Y-73895000I-150000J0D01*
G01*
X39450000Y-73895000D01*
G75*
G02*
X39300000Y-73745000I0J150000D01*
G01*
X39300000Y-73445000D01*
G75*
G02*
X39450000Y-73295000I150000J0D01*
G01*
X41100000Y-73295000D01*
G75*
G02*
X41250000Y-73445000I0J-150000D01*
G01*
G37*
G36*
G01*
X41250000Y-74715000D02*
X41250000Y-75015000D01*
G75*
G02*
X41100000Y-75165000I-150000J0D01*
G01*
X39450000Y-75165000D01*
G75*
G02*
X39300000Y-75015000I0J150000D01*
G01*
X39300000Y-74715000D01*
G75*
G02*
X39450000Y-74565000I150000J0D01*
G01*
X41100000Y-74565000D01*
G75*
G02*
X41250000Y-74715000I0J-150000D01*
G01*
G37*
G36*
G01*
X41250000Y-75985000D02*
X41250000Y-76285000D01*
G75*
G02*
X41100000Y-76435000I-150000J0D01*
G01*
X39450000Y-76435000D01*
G75*
G02*
X39300000Y-76285000I0J150000D01*
G01*
X39300000Y-75985000D01*
G75*
G02*
X39450000Y-75835000I150000J0D01*
G01*
X41100000Y-75835000D01*
G75*
G02*
X41250000Y-75985000I0J-150000D01*
G01*
G37*
G36*
G01*
X41250000Y-77255000D02*
X41250000Y-77555000D01*
G75*
G02*
X41100000Y-77705000I-150000J0D01*
G01*
X39450000Y-77705000D01*
G75*
G02*
X39300000Y-77555000I0J150000D01*
G01*
X39300000Y-77255000D01*
G75*
G02*
X39450000Y-77105000I150000J0D01*
G01*
X41100000Y-77105000D01*
G75*
G02*
X41250000Y-77255000I0J-150000D01*
G01*
G37*
G36*
G01*
X76625000Y-80525000D02*
X76625000Y-81475000D01*
G75*
G02*
X76375000Y-81725000I-250000J0D01*
G01*
X75700000Y-81725000D01*
G75*
G02*
X75450000Y-81475000I0J250000D01*
G01*
X75450000Y-80525000D01*
G75*
G02*
X75700000Y-80275000I250000J0D01*
G01*
X76375000Y-80275000D01*
G75*
G02*
X76625000Y-80525000I0J-250000D01*
G01*
G37*
G36*
G01*
X74550000Y-80525000D02*
X74550000Y-81475000D01*
G75*
G02*
X74300000Y-81725000I-250000J0D01*
G01*
X73625000Y-81725000D01*
G75*
G02*
X73375000Y-81475000I0J250000D01*
G01*
X73375000Y-80525000D01*
G75*
G02*
X73625000Y-80275000I250000J0D01*
G01*
X74300000Y-80275000D01*
G75*
G02*
X74550000Y-80525000I0J-250000D01*
G01*
G37*
G36*
G01*
X73850000Y-87049999D02*
X73850000Y-87950001D01*
G75*
G02*
X73600001Y-88200000I-249999J0D01*
G01*
X72899999Y-88200000D01*
G75*
G02*
X72650000Y-87950001I0J249999D01*
G01*
X72650000Y-87049999D01*
G75*
G02*
X72899999Y-86800000I249999J0D01*
G01*
X73600001Y-86800000D01*
G75*
G02*
X73850000Y-87049999I0J-249999D01*
G01*
G37*
G36*
G01*
X71850000Y-87049999D02*
X71850000Y-87950001D01*
G75*
G02*
X71600001Y-88200000I-249999J0D01*
G01*
X70899999Y-88200000D01*
G75*
G02*
X70650000Y-87950001I0J249999D01*
G01*
X70650000Y-87049999D01*
G75*
G02*
X70899999Y-86800000I249999J0D01*
G01*
X71600001Y-86800000D01*
G75*
G02*
X71850000Y-87049999I0J-249999D01*
G01*
G37*
G36*
G01*
X65049999Y-76150000D02*
X65950001Y-76150000D01*
G75*
G02*
X66200000Y-76399999I0J-249999D01*
G01*
X66200000Y-77100001D01*
G75*
G02*
X65950001Y-77350000I-249999J0D01*
G01*
X65049999Y-77350000D01*
G75*
G02*
X64800000Y-77100001I0J249999D01*
G01*
X64800000Y-76399999D01*
G75*
G02*
X65049999Y-76150000I249999J0D01*
G01*
G37*
G36*
G01*
X65049999Y-78150000D02*
X65950001Y-78150000D01*
G75*
G02*
X66200000Y-78399999I0J-249999D01*
G01*
X66200000Y-79100001D01*
G75*
G02*
X65950001Y-79350000I-249999J0D01*
G01*
X65049999Y-79350000D01*
G75*
G02*
X64800000Y-79100001I0J249999D01*
G01*
X64800000Y-78399999D01*
G75*
G02*
X65049999Y-78150000I249999J0D01*
G01*
G37*
G36*
G01*
X83299999Y-89400000D02*
X84200001Y-89400000D01*
G75*
G02*
X84450000Y-89649999I0J-249999D01*
G01*
X84450000Y-90350001D01*
G75*
G02*
X84200001Y-90600000I-249999J0D01*
G01*
X83299999Y-90600000D01*
G75*
G02*
X83050000Y-90350001I0J249999D01*
G01*
X83050000Y-89649999D01*
G75*
G02*
X83299999Y-89400000I249999J0D01*
G01*
G37*
G36*
G01*
X83299999Y-91400000D02*
X84200001Y-91400000D01*
G75*
G02*
X84450000Y-91649999I0J-249999D01*
G01*
X84450000Y-92350001D01*
G75*
G02*
X84200001Y-92600000I-249999J0D01*
G01*
X83299999Y-92600000D01*
G75*
G02*
X83050000Y-92350001I0J249999D01*
G01*
X83050000Y-91649999D01*
G75*
G02*
X83299999Y-91400000I249999J0D01*
G01*
G37*
G36*
G01*
X92549999Y-84000000D02*
X93450001Y-84000000D01*
G75*
G02*
X93700000Y-84249999I0J-249999D01*
G01*
X93700000Y-84950001D01*
G75*
G02*
X93450001Y-85200000I-249999J0D01*
G01*
X92549999Y-85200000D01*
G75*
G02*
X92300000Y-84950001I0J249999D01*
G01*
X92300000Y-84249999D01*
G75*
G02*
X92549999Y-84000000I249999J0D01*
G01*
G37*
G36*
G01*
X92549999Y-82000000D02*
X93450001Y-82000000D01*
G75*
G02*
X93700000Y-82249999I0J-249999D01*
G01*
X93700000Y-82950001D01*
G75*
G02*
X93450001Y-83200000I-249999J0D01*
G01*
X92549999Y-83200000D01*
G75*
G02*
X92300000Y-82950001I0J249999D01*
G01*
X92300000Y-82249999D01*
G75*
G02*
X92549999Y-82000000I249999J0D01*
G01*
G37*
G36*
G01*
X72450000Y-85255000D02*
X72450000Y-85555000D01*
G75*
G02*
X72300000Y-85705000I-150000J0D01*
G01*
X70650000Y-85705000D01*
G75*
G02*
X70500000Y-85555000I0J150000D01*
G01*
X70500000Y-85255000D01*
G75*
G02*
X70650000Y-85105000I150000J0D01*
G01*
X72300000Y-85105000D01*
G75*
G02*
X72450000Y-85255000I0J-150000D01*
G01*
G37*
G36*
G01*
X72450000Y-83985000D02*
X72450000Y-84285000D01*
G75*
G02*
X72300000Y-84435000I-150000J0D01*
G01*
X70650000Y-84435000D01*
G75*
G02*
X70500000Y-84285000I0J150000D01*
G01*
X70500000Y-83985000D01*
G75*
G02*
X70650000Y-83835000I150000J0D01*
G01*
X72300000Y-83835000D01*
G75*
G02*
X72450000Y-83985000I0J-150000D01*
G01*
G37*
G36*
G01*
X72450000Y-82715000D02*
X72450000Y-83015000D01*
G75*
G02*
X72300000Y-83165000I-150000J0D01*
G01*
X70650000Y-83165000D01*
G75*
G02*
X70500000Y-83015000I0J150000D01*
G01*
X70500000Y-82715000D01*
G75*
G02*
X70650000Y-82565000I150000J0D01*
G01*
X72300000Y-82565000D01*
G75*
G02*
X72450000Y-82715000I0J-150000D01*
G01*
G37*
G36*
G01*
X72450000Y-81445000D02*
X72450000Y-81745000D01*
G75*
G02*
X72300000Y-81895000I-150000J0D01*
G01*
X70650000Y-81895000D01*
G75*
G02*
X70500000Y-81745000I0J150000D01*
G01*
X70500000Y-81445000D01*
G75*
G02*
X70650000Y-81295000I150000J0D01*
G01*
X72300000Y-81295000D01*
G75*
G02*
X72450000Y-81445000I0J-150000D01*
G01*
G37*
G36*
G01*
X67500000Y-81445000D02*
X67500000Y-81745000D01*
G75*
G02*
X67350000Y-81895000I-150000J0D01*
G01*
X65700000Y-81895000D01*
G75*
G02*
X65550000Y-81745000I0J150000D01*
G01*
X65550000Y-81445000D01*
G75*
G02*
X65700000Y-81295000I150000J0D01*
G01*
X67350000Y-81295000D01*
G75*
G02*
X67500000Y-81445000I0J-150000D01*
G01*
G37*
G36*
G01*
X67500000Y-82715000D02*
X67500000Y-83015000D01*
G75*
G02*
X67350000Y-83165000I-150000J0D01*
G01*
X65700000Y-83165000D01*
G75*
G02*
X65550000Y-83015000I0J150000D01*
G01*
X65550000Y-82715000D01*
G75*
G02*
X65700000Y-82565000I150000J0D01*
G01*
X67350000Y-82565000D01*
G75*
G02*
X67500000Y-82715000I0J-150000D01*
G01*
G37*
G36*
G01*
X67500000Y-83985000D02*
X67500000Y-84285000D01*
G75*
G02*
X67350000Y-84435000I-150000J0D01*
G01*
X65700000Y-84435000D01*
G75*
G02*
X65550000Y-84285000I0J150000D01*
G01*
X65550000Y-83985000D01*
G75*
G02*
X65700000Y-83835000I150000J0D01*
G01*
X67350000Y-83835000D01*
G75*
G02*
X67500000Y-83985000I0J-150000D01*
G01*
G37*
G36*
G01*
X67500000Y-85255000D02*
X67500000Y-85555000D01*
G75*
G02*
X67350000Y-85705000I-150000J0D01*
G01*
X65700000Y-85705000D01*
G75*
G02*
X65550000Y-85555000I0J150000D01*
G01*
X65550000Y-85255000D01*
G75*
G02*
X65700000Y-85105000I150000J0D01*
G01*
X67350000Y-85105000D01*
G75*
G02*
X67500000Y-85255000I0J-150000D01*
G01*
G37*
D13*
X89950000Y-85800000D03*
X89950000Y-82800000D03*
D14*
G36*
X84500000Y-83433500D02*
G01*
X88625000Y-83433500D01*
X88625000Y-83850000D01*
X91100000Y-83850000D01*
X91100000Y-84750000D01*
X88625000Y-84750000D01*
X88625000Y-85166500D01*
X84500000Y-85166500D01*
X84500000Y-83433500D01*
G37*
G36*
G01*
X95631300Y-79135000D02*
X96138700Y-79135000D01*
G75*
G02*
X96180000Y-79176300I0J-41300D01*
G01*
X96180000Y-80713700D01*
G75*
G02*
X96138700Y-80755000I-41300J0D01*
G01*
X95631300Y-80755000D01*
G75*
G02*
X95590000Y-80713700I0J41300D01*
G01*
X95590000Y-79176300D01*
G75*
G02*
X95631300Y-79135000I41300J0D01*
G01*
G37*
G36*
G01*
X94361300Y-79135000D02*
X94868700Y-79135000D01*
G75*
G02*
X94910000Y-79176300I0J-41300D01*
G01*
X94910000Y-80713700D01*
G75*
G02*
X94868700Y-80755000I-41300J0D01*
G01*
X94361300Y-80755000D01*
G75*
G02*
X94320000Y-80713700I0J41300D01*
G01*
X94320000Y-79176300D01*
G75*
G02*
X94361300Y-79135000I41300J0D01*
G01*
G37*
G36*
G01*
X94361300Y-72745000D02*
X94868700Y-72745000D01*
G75*
G02*
X94910000Y-72786300I0J-41300D01*
G01*
X94910000Y-74323700D01*
G75*
G02*
X94868700Y-74365000I-41300J0D01*
G01*
X94361300Y-74365000D01*
G75*
G02*
X94320000Y-74323700I0J41300D01*
G01*
X94320000Y-72786300D01*
G75*
G02*
X94361300Y-72745000I41300J0D01*
G01*
G37*
G36*
G01*
X95631300Y-72745000D02*
X96138700Y-72745000D01*
G75*
G02*
X96180000Y-72786300I0J-41300D01*
G01*
X96180000Y-74323700D01*
G75*
G02*
X96138700Y-74365000I-41300J0D01*
G01*
X95631300Y-74365000D01*
G75*
G02*
X95590000Y-74323700I0J41300D01*
G01*
X95590000Y-72786300D01*
G75*
G02*
X95631300Y-72745000I41300J0D01*
G01*
G37*
G36*
G01*
X87150000Y-92450001D02*
X87150000Y-91549999D01*
G75*
G02*
X87399999Y-91300000I249999J0D01*
G01*
X88050001Y-91300000D01*
G75*
G02*
X88300000Y-91549999I0J-249999D01*
G01*
X88300000Y-92450001D01*
G75*
G02*
X88050001Y-92700000I-249999J0D01*
G01*
X87399999Y-92700000D01*
G75*
G02*
X87150000Y-92450001I0J249999D01*
G01*
G37*
G36*
G01*
X89200000Y-92450001D02*
X89200000Y-91549999D01*
G75*
G02*
X89449999Y-91300000I249999J0D01*
G01*
X90100001Y-91300000D01*
G75*
G02*
X90350000Y-91549999I0J-249999D01*
G01*
X90350000Y-92450001D01*
G75*
G02*
X90100001Y-92700000I-249999J0D01*
G01*
X89449999Y-92700000D01*
G75*
G02*
X89200000Y-92450001I0J249999D01*
G01*
G37*
G36*
G01*
X30299999Y-93150000D02*
X31200001Y-93150000D01*
G75*
G02*
X31450000Y-93399999I0J-249999D01*
G01*
X31450000Y-94100001D01*
G75*
G02*
X31200001Y-94350000I-249999J0D01*
G01*
X30299999Y-94350000D01*
G75*
G02*
X30050000Y-94100001I0J249999D01*
G01*
X30050000Y-93399999D01*
G75*
G02*
X30299999Y-93150000I249999J0D01*
G01*
G37*
G36*
G01*
X30299999Y-91150000D02*
X31200001Y-91150000D01*
G75*
G02*
X31450000Y-91399999I0J-249999D01*
G01*
X31450000Y-92100001D01*
G75*
G02*
X31200001Y-92350000I-249999J0D01*
G01*
X30299999Y-92350000D01*
G75*
G02*
X30050000Y-92100001I0J249999D01*
G01*
X30050000Y-91399999D01*
G75*
G02*
X30299999Y-91150000I249999J0D01*
G01*
G37*
G36*
G01*
X38799999Y-91150000D02*
X39700001Y-91150000D01*
G75*
G02*
X39950000Y-91399999I0J-249999D01*
G01*
X39950000Y-92100001D01*
G75*
G02*
X39700001Y-92350000I-249999J0D01*
G01*
X38799999Y-92350000D01*
G75*
G02*
X38550000Y-92100001I0J249999D01*
G01*
X38550000Y-91399999D01*
G75*
G02*
X38799999Y-91150000I249999J0D01*
G01*
G37*
G36*
G01*
X38799999Y-93150000D02*
X39700001Y-93150000D01*
G75*
G02*
X39950000Y-93399999I0J-249999D01*
G01*
X39950000Y-94100001D01*
G75*
G02*
X39700001Y-94350000I-249999J0D01*
G01*
X38799999Y-94350000D01*
G75*
G02*
X38550000Y-94100001I0J249999D01*
G01*
X38550000Y-93399999D01*
G75*
G02*
X38799999Y-93150000I249999J0D01*
G01*
G37*
G36*
G01*
X34950001Y-84350000D02*
X34049999Y-84350000D01*
G75*
G02*
X33800000Y-84100001I0J249999D01*
G01*
X33800000Y-83399999D01*
G75*
G02*
X34049999Y-83150000I249999J0D01*
G01*
X34950001Y-83150000D01*
G75*
G02*
X35200000Y-83399999I0J-249999D01*
G01*
X35200000Y-84100001D01*
G75*
G02*
X34950001Y-84350000I-249999J0D01*
G01*
G37*
G36*
G01*
X34950001Y-82350000D02*
X34049999Y-82350000D01*
G75*
G02*
X33800000Y-82100001I0J249999D01*
G01*
X33800000Y-81399999D01*
G75*
G02*
X34049999Y-81150000I249999J0D01*
G01*
X34950001Y-81150000D01*
G75*
G02*
X35200000Y-81399999I0J-249999D01*
G01*
X35200000Y-82100001D01*
G75*
G02*
X34950001Y-82350000I-249999J0D01*
G01*
G37*
G36*
G01*
X30299999Y-83150000D02*
X31200001Y-83150000D01*
G75*
G02*
X31450000Y-83399999I0J-249999D01*
G01*
X31450000Y-84100001D01*
G75*
G02*
X31200001Y-84350000I-249999J0D01*
G01*
X30299999Y-84350000D01*
G75*
G02*
X30050000Y-84100001I0J249999D01*
G01*
X30050000Y-83399999D01*
G75*
G02*
X30299999Y-83150000I249999J0D01*
G01*
G37*
G36*
G01*
X30299999Y-81150000D02*
X31200001Y-81150000D01*
G75*
G02*
X31450000Y-81399999I0J-249999D01*
G01*
X31450000Y-82100001D01*
G75*
G02*
X31200001Y-82350000I-249999J0D01*
G01*
X30299999Y-82350000D01*
G75*
G02*
X30050000Y-82100001I0J249999D01*
G01*
X30050000Y-81399999D01*
G75*
G02*
X30299999Y-81150000I249999J0D01*
G01*
G37*
G36*
G01*
X50549999Y-93150000D02*
X51450001Y-93150000D01*
G75*
G02*
X51700000Y-93399999I0J-249999D01*
G01*
X51700000Y-94100001D01*
G75*
G02*
X51450001Y-94350000I-249999J0D01*
G01*
X50549999Y-94350000D01*
G75*
G02*
X50300000Y-94100001I0J249999D01*
G01*
X50300000Y-93399999D01*
G75*
G02*
X50549999Y-93150000I249999J0D01*
G01*
G37*
G36*
G01*
X50549999Y-91150000D02*
X51450001Y-91150000D01*
G75*
G02*
X51700000Y-91399999I0J-249999D01*
G01*
X51700000Y-92100001D01*
G75*
G02*
X51450001Y-92350000I-249999J0D01*
G01*
X50549999Y-92350000D01*
G75*
G02*
X50300000Y-92100001I0J249999D01*
G01*
X50300000Y-91399999D01*
G75*
G02*
X50549999Y-91150000I249999J0D01*
G01*
G37*
G36*
G01*
X59049999Y-91150000D02*
X59950001Y-91150000D01*
G75*
G02*
X60200000Y-91399999I0J-249999D01*
G01*
X60200000Y-92100001D01*
G75*
G02*
X59950001Y-92350000I-249999J0D01*
G01*
X59049999Y-92350000D01*
G75*
G02*
X58800000Y-92100001I0J249999D01*
G01*
X58800000Y-91399999D01*
G75*
G02*
X59049999Y-91150000I249999J0D01*
G01*
G37*
G36*
G01*
X59049999Y-93150000D02*
X59950001Y-93150000D01*
G75*
G02*
X60200000Y-93399999I0J-249999D01*
G01*
X60200000Y-94100001D01*
G75*
G02*
X59950001Y-94350000I-249999J0D01*
G01*
X59049999Y-94350000D01*
G75*
G02*
X58800000Y-94100001I0J249999D01*
G01*
X58800000Y-93399999D01*
G75*
G02*
X59049999Y-93150000I249999J0D01*
G01*
G37*
G36*
G01*
X42200001Y-82350000D02*
X41299999Y-82350000D01*
G75*
G02*
X41050000Y-82100001I0J249999D01*
G01*
X41050000Y-81399999D01*
G75*
G02*
X41299999Y-81150000I249999J0D01*
G01*
X42200001Y-81150000D01*
G75*
G02*
X42450000Y-81399999I0J-249999D01*
G01*
X42450000Y-82100001D01*
G75*
G02*
X42200001Y-82350000I-249999J0D01*
G01*
G37*
G36*
G01*
X42200001Y-84350000D02*
X41299999Y-84350000D01*
G75*
G02*
X41050000Y-84100001I0J249999D01*
G01*
X41050000Y-83399999D01*
G75*
G02*
X41299999Y-83150000I249999J0D01*
G01*
X42200001Y-83150000D01*
G75*
G02*
X42450000Y-83399999I0J-249999D01*
G01*
X42450000Y-84100001D01*
G75*
G02*
X42200001Y-84350000I-249999J0D01*
G01*
G37*
G36*
G01*
X37799999Y-83150000D02*
X38700001Y-83150000D01*
G75*
G02*
X38950000Y-83399999I0J-249999D01*
G01*
X38950000Y-84100001D01*
G75*
G02*
X38700001Y-84350000I-249999J0D01*
G01*
X37799999Y-84350000D01*
G75*
G02*
X37550000Y-84100001I0J249999D01*
G01*
X37550000Y-83399999D01*
G75*
G02*
X37799999Y-83150000I249999J0D01*
G01*
G37*
G36*
G01*
X37799999Y-81150000D02*
X38700001Y-81150000D01*
G75*
G02*
X38950000Y-81399999I0J-249999D01*
G01*
X38950000Y-82100001D01*
G75*
G02*
X38700001Y-82350000I-249999J0D01*
G01*
X37799999Y-82350000D01*
G75*
G02*
X37550000Y-82100001I0J249999D01*
G01*
X37550000Y-81399999D01*
G75*
G02*
X37799999Y-81150000I249999J0D01*
G01*
G37*
G36*
G01*
X70799999Y-91150000D02*
X71700001Y-91150000D01*
G75*
G02*
X71950000Y-91399999I0J-249999D01*
G01*
X71950000Y-92100001D01*
G75*
G02*
X71700001Y-92350000I-249999J0D01*
G01*
X70799999Y-92350000D01*
G75*
G02*
X70550000Y-92100001I0J249999D01*
G01*
X70550000Y-91399999D01*
G75*
G02*
X70799999Y-91150000I249999J0D01*
G01*
G37*
G36*
G01*
X70799999Y-93150000D02*
X71700001Y-93150000D01*
G75*
G02*
X71950000Y-93399999I0J-249999D01*
G01*
X71950000Y-94100001D01*
G75*
G02*
X71700001Y-94350000I-249999J0D01*
G01*
X70799999Y-94350000D01*
G75*
G02*
X70550000Y-94100001I0J249999D01*
G01*
X70550000Y-93399999D01*
G75*
G02*
X70799999Y-93150000I249999J0D01*
G01*
G37*
G36*
G01*
X79299999Y-91150000D02*
X80200001Y-91150000D01*
G75*
G02*
X80450000Y-91399999I0J-249999D01*
G01*
X80450000Y-92100001D01*
G75*
G02*
X80200001Y-92350000I-249999J0D01*
G01*
X79299999Y-92350000D01*
G75*
G02*
X79050000Y-92100001I0J249999D01*
G01*
X79050000Y-91399999D01*
G75*
G02*
X79299999Y-91150000I249999J0D01*
G01*
G37*
G36*
G01*
X79299999Y-93150000D02*
X80200001Y-93150000D01*
G75*
G02*
X80450000Y-93399999I0J-249999D01*
G01*
X80450000Y-94100001D01*
G75*
G02*
X80200001Y-94350000I-249999J0D01*
G01*
X79299999Y-94350000D01*
G75*
G02*
X79050000Y-94100001I0J249999D01*
G01*
X79050000Y-93399999D01*
G75*
G02*
X79299999Y-93150000I249999J0D01*
G01*
G37*
G36*
G01*
X45049999Y-81150000D02*
X45950001Y-81150000D01*
G75*
G02*
X46200000Y-81399999I0J-249999D01*
G01*
X46200000Y-82100001D01*
G75*
G02*
X45950001Y-82350000I-249999J0D01*
G01*
X45049999Y-82350000D01*
G75*
G02*
X44800000Y-82100001I0J249999D01*
G01*
X44800000Y-81399999D01*
G75*
G02*
X45049999Y-81150000I249999J0D01*
G01*
G37*
G36*
G01*
X45049999Y-83150000D02*
X45950001Y-83150000D01*
G75*
G02*
X46200000Y-83399999I0J-249999D01*
G01*
X46200000Y-84100001D01*
G75*
G02*
X45950001Y-84350000I-249999J0D01*
G01*
X45049999Y-84350000D01*
G75*
G02*
X44800000Y-84100001I0J249999D01*
G01*
X44800000Y-83399999D01*
G75*
G02*
X45049999Y-83150000I249999J0D01*
G01*
G37*
G36*
G01*
X35549999Y-71900000D02*
X36450001Y-71900000D01*
G75*
G02*
X36700000Y-72149999I0J-249999D01*
G01*
X36700000Y-72850001D01*
G75*
G02*
X36450001Y-73100000I-249999J0D01*
G01*
X35549999Y-73100000D01*
G75*
G02*
X35300000Y-72850001I0J249999D01*
G01*
X35300000Y-72149999D01*
G75*
G02*
X35549999Y-71900000I249999J0D01*
G01*
G37*
G36*
G01*
X35549999Y-73900000D02*
X36450001Y-73900000D01*
G75*
G02*
X36700000Y-74149999I0J-249999D01*
G01*
X36700000Y-74850001D01*
G75*
G02*
X36450001Y-75100000I-249999J0D01*
G01*
X35549999Y-75100000D01*
G75*
G02*
X35300000Y-74850001I0J249999D01*
G01*
X35300000Y-74149999D01*
G75*
G02*
X35549999Y-73900000I249999J0D01*
G01*
G37*
G36*
G01*
X53799999Y-71900000D02*
X54700001Y-71900000D01*
G75*
G02*
X54950000Y-72149999I0J-249999D01*
G01*
X54950000Y-72850001D01*
G75*
G02*
X54700001Y-73100000I-249999J0D01*
G01*
X53799999Y-73100000D01*
G75*
G02*
X53550000Y-72850001I0J249999D01*
G01*
X53550000Y-72149999D01*
G75*
G02*
X53799999Y-71900000I249999J0D01*
G01*
G37*
G36*
G01*
X53799999Y-73900000D02*
X54700001Y-73900000D01*
G75*
G02*
X54950000Y-74149999I0J-249999D01*
G01*
X54950000Y-74850001D01*
G75*
G02*
X54700001Y-75100000I-249999J0D01*
G01*
X53799999Y-75100000D01*
G75*
G02*
X53550000Y-74850001I0J249999D01*
G01*
X53550000Y-74149999D01*
G75*
G02*
X53799999Y-73900000I249999J0D01*
G01*
G37*
G36*
G01*
X57150000Y-77700001D02*
X57150000Y-76799999D01*
G75*
G02*
X57399999Y-76550000I249999J0D01*
G01*
X58100001Y-76550000D01*
G75*
G02*
X58350000Y-76799999I0J-249999D01*
G01*
X58350000Y-77700001D01*
G75*
G02*
X58100001Y-77950000I-249999J0D01*
G01*
X57399999Y-77950000D01*
G75*
G02*
X57150000Y-77700001I0J249999D01*
G01*
G37*
G36*
G01*
X55150000Y-77700001D02*
X55150000Y-76799999D01*
G75*
G02*
X55399999Y-76550000I249999J0D01*
G01*
X56100001Y-76550000D01*
G75*
G02*
X56350000Y-76799999I0J-249999D01*
G01*
X56350000Y-77700001D01*
G75*
G02*
X56100001Y-77950000I-249999J0D01*
G01*
X55399999Y-77950000D01*
G75*
G02*
X55150000Y-77700001I0J249999D01*
G01*
G37*
G36*
G01*
X61650000Y-77700001D02*
X61650000Y-76799999D01*
G75*
G02*
X61899999Y-76550000I249999J0D01*
G01*
X62600001Y-76550000D01*
G75*
G02*
X62850000Y-76799999I0J-249999D01*
G01*
X62850000Y-77700001D01*
G75*
G02*
X62600001Y-77950000I-249999J0D01*
G01*
X61899999Y-77950000D01*
G75*
G02*
X61650000Y-77700001I0J249999D01*
G01*
G37*
G36*
G01*
X59650000Y-77700001D02*
X59650000Y-76799999D01*
G75*
G02*
X59899999Y-76550000I249999J0D01*
G01*
X60600001Y-76550000D01*
G75*
G02*
X60850000Y-76799999I0J-249999D01*
G01*
X60850000Y-77700001D01*
G75*
G02*
X60600001Y-77950000I-249999J0D01*
G01*
X59899999Y-77950000D01*
G75*
G02*
X59650000Y-77700001I0J249999D01*
G01*
G37*
G36*
G01*
X57299999Y-73900000D02*
X58200001Y-73900000D01*
G75*
G02*
X58450000Y-74149999I0J-249999D01*
G01*
X58450000Y-74850001D01*
G75*
G02*
X58200001Y-75100000I-249999J0D01*
G01*
X57299999Y-75100000D01*
G75*
G02*
X57050000Y-74850001I0J249999D01*
G01*
X57050000Y-74149999D01*
G75*
G02*
X57299999Y-73900000I249999J0D01*
G01*
G37*
G36*
G01*
X57299999Y-71900000D02*
X58200001Y-71900000D01*
G75*
G02*
X58450000Y-72149999I0J-249999D01*
G01*
X58450000Y-72850001D01*
G75*
G02*
X58200001Y-73100000I-249999J0D01*
G01*
X57299999Y-73100000D01*
G75*
G02*
X57050000Y-72850001I0J249999D01*
G01*
X57050000Y-72149999D01*
G75*
G02*
X57299999Y-71900000I249999J0D01*
G01*
G37*
D12*
X80800000Y-85250000D03*
X82700000Y-85250000D03*
X81750000Y-83250000D03*
X81750000Y-79250000D03*
X82700000Y-81250000D03*
X80800000Y-81250000D03*
G36*
G01*
X74799999Y-82400000D02*
X75700001Y-82400000D01*
G75*
G02*
X75950000Y-82649999I0J-249999D01*
G01*
X75950000Y-83350001D01*
G75*
G02*
X75700001Y-83600000I-249999J0D01*
G01*
X74799999Y-83600000D01*
G75*
G02*
X74550000Y-83350001I0J249999D01*
G01*
X74550000Y-82649999D01*
G75*
G02*
X74799999Y-82400000I249999J0D01*
G01*
G37*
G36*
G01*
X74799999Y-84400000D02*
X75700001Y-84400000D01*
G75*
G02*
X75950000Y-84649999I0J-249999D01*
G01*
X75950000Y-85350001D01*
G75*
G02*
X75700001Y-85600000I-249999J0D01*
G01*
X74799999Y-85600000D01*
G75*
G02*
X74550000Y-85350001I0J249999D01*
G01*
X74550000Y-84649999D01*
G75*
G02*
X74799999Y-84400000I249999J0D01*
G01*
G37*
G36*
G01*
X76799999Y-86150000D02*
X77700001Y-86150000D01*
G75*
G02*
X77950000Y-86399999I0J-249999D01*
G01*
X77950000Y-87100001D01*
G75*
G02*
X77700001Y-87350000I-249999J0D01*
G01*
X76799999Y-87350000D01*
G75*
G02*
X76550000Y-87100001I0J249999D01*
G01*
X76550000Y-86399999D01*
G75*
G02*
X76799999Y-86150000I249999J0D01*
G01*
G37*
G36*
G01*
X76799999Y-88150000D02*
X77700001Y-88150000D01*
G75*
G02*
X77950000Y-88399999I0J-249999D01*
G01*
X77950000Y-89100001D01*
G75*
G02*
X77700001Y-89350000I-249999J0D01*
G01*
X76799999Y-89350000D01*
G75*
G02*
X76550000Y-89100001I0J249999D01*
G01*
X76550000Y-88399999D01*
G75*
G02*
X76799999Y-88150000I249999J0D01*
G01*
G37*
G36*
G01*
X76900000Y-79200001D02*
X76900000Y-78299999D01*
G75*
G02*
X77149999Y-78050000I249999J0D01*
G01*
X77850001Y-78050000D01*
G75*
G02*
X78100000Y-78299999I0J-249999D01*
G01*
X78100000Y-79200001D01*
G75*
G02*
X77850001Y-79450000I-249999J0D01*
G01*
X77149999Y-79450000D01*
G75*
G02*
X76900000Y-79200001I0J249999D01*
G01*
G37*
G36*
G01*
X74900000Y-79200001D02*
X74900000Y-78299999D01*
G75*
G02*
X75149999Y-78050000I249999J0D01*
G01*
X75850001Y-78050000D01*
G75*
G02*
X76100000Y-78299999I0J-249999D01*
G01*
X76100000Y-79200001D01*
G75*
G02*
X75850001Y-79450000I-249999J0D01*
G01*
X75149999Y-79450000D01*
G75*
G02*
X74900000Y-79200001I0J249999D01*
G01*
G37*
M02*
