G04 #@! TF.GenerationSoftware,KiCad,Pcbnew,5.1.10-88a1d61d58~90~ubuntu20.04.1*
G04 #@! TF.CreationDate,2021-10-05T01:19:17+01:00*
G04 #@! TF.ProjectId,lipo-discharge-protection-board,6c69706f-2d64-4697-9363-68617267652d,1*
G04 #@! TF.SameCoordinates,Original*
G04 #@! TF.FileFunction,Soldermask,Bot*
G04 #@! TF.FilePolarity,Negative*
%FSLAX46Y46*%
G04 Gerber Fmt 4.6, Leading zero omitted, Abs format (unit mm)*
G04 Created by KiCad (PCBNEW 5.1.10-88a1d61d58~90~ubuntu20.04.1) date 2021-10-05 01:19:17*
%MOMM*%
%LPD*%
G01*
G04 APERTURE LIST*
%ADD10C,3.000000*%
%ADD11R,3.000000X3.000000*%
%ADD12R,3.500000X3.500000*%
%ADD13C,1.500000*%
%ADD14C,6.000000*%
%ADD15O,3.300000X2.700000*%
%ADD16C,1.440000*%
%ADD17C,3.200000*%
%ADD18R,1.000000X1.000000*%
%ADD19O,1.000000X1.000000*%
%ADD20R,1.800000X1.800000*%
%ADD21C,1.800000*%
%ADD22R,1.600000X1.600000*%
%ADD23O,1.600000X1.600000*%
G04 APERTURE END LIST*
D10*
X4000000Y-51080000D03*
X4000000Y-56160000D03*
D11*
X4000000Y-46000000D03*
D10*
X4000000Y-61240000D03*
D12*
X14000000Y-74500000D03*
G36*
G01*
X6500000Y-75500000D02*
X6500000Y-73500000D01*
G75*
G02*
X7250000Y-72750000I750000J0D01*
G01*
X8750000Y-72750000D01*
G75*
G02*
X9500000Y-73500000I0J-750000D01*
G01*
X9500000Y-75500000D01*
G75*
G02*
X8750000Y-76250000I-750000J0D01*
G01*
X7250000Y-76250000D01*
G75*
G02*
X6500000Y-75500000I0J750000D01*
G01*
G37*
G36*
G01*
X9250000Y-80075000D02*
X9250000Y-78325000D01*
G75*
G02*
X10125000Y-77450000I875000J0D01*
G01*
X11875000Y-77450000D01*
G75*
G02*
X12750000Y-78325000I0J-875000D01*
G01*
X12750000Y-80075000D01*
G75*
G02*
X11875000Y-80950000I-875000J0D01*
G01*
X10125000Y-80950000D01*
G75*
G02*
X9250000Y-80075000I0J875000D01*
G01*
G37*
D13*
X75200000Y-64000000D03*
X77800000Y-64000000D03*
X80300000Y-64000000D03*
D14*
X21750000Y-85550000D03*
G36*
G01*
X23250000Y-95750000D02*
X20250000Y-95750000D01*
G75*
G02*
X18750000Y-94250000I0J1500000D01*
G01*
X18750000Y-91250000D01*
G75*
G02*
X20250000Y-89750000I1500000J0D01*
G01*
X23250000Y-89750000D01*
G75*
G02*
X24750000Y-91250000I0J-1500000D01*
G01*
X24750000Y-94250000D01*
G75*
G02*
X23250000Y-95750000I-1500000J0D01*
G01*
G37*
D11*
X4000000Y-89750000D03*
D10*
X4000000Y-94830000D03*
G36*
G01*
X26399999Y-62350000D02*
X23600001Y-62350000D01*
G75*
G02*
X23350000Y-62099999I0J250001D01*
G01*
X23350000Y-59900001D01*
G75*
G02*
X23600001Y-59650000I250001J0D01*
G01*
X26399999Y-59650000D01*
G75*
G02*
X26650000Y-59900001I0J-250001D01*
G01*
X26650000Y-62099999D01*
G75*
G02*
X26399999Y-62350000I-250001J0D01*
G01*
G37*
D15*
X25000000Y-56800000D03*
X30500000Y-61000000D03*
X30500000Y-56800000D03*
D16*
X51000000Y-80250000D03*
X51000000Y-82790000D03*
X51000000Y-85330000D03*
D17*
X96000000Y-44000000D03*
X96000000Y-96000000D03*
X13000000Y-44000000D03*
X13000000Y-96000000D03*
D16*
X56750000Y-85750000D03*
X59290000Y-85750000D03*
X61830000Y-85750000D03*
D18*
X97750000Y-88750000D03*
D19*
X97750000Y-90020000D03*
D20*
X95656400Y-80441800D03*
D21*
X95656400Y-82981800D03*
D22*
X83591400Y-92862400D03*
D23*
X91211400Y-97942400D03*
X83591400Y-95402400D03*
X91211400Y-95402400D03*
X83591400Y-97942400D03*
X91211400Y-92862400D03*
M02*
