G04 #@! TF.GenerationSoftware,KiCad,Pcbnew,5.1.10-88a1d61d58~90~ubuntu20.04.1*
G04 #@! TF.CreationDate,2021-10-05T01:19:17+01:00*
G04 #@! TF.ProjectId,lipo-discharge-protection-board,6c69706f-2d64-4697-9363-68617267652d,1*
G04 #@! TF.SameCoordinates,Original*
G04 #@! TF.FileFunction,Legend,Top*
G04 #@! TF.FilePolarity,Positive*
%FSLAX46Y46*%
G04 Gerber Fmt 4.6, Leading zero omitted, Abs format (unit mm)*
G04 Created by KiCad (PCBNEW 5.1.10-88a1d61d58~90~ubuntu20.04.1) date 2021-10-05 01:19:17*
%MOMM*%
%LPD*%
G01*
G04 APERTURE LIST*
%ADD10C,0.250000*%
%ADD11C,0.304800*%
%ADD12C,0.200000*%
%ADD13C,0.120000*%
%ADD14C,0.150000*%
%ADD15C,3.000000*%
%ADD16R,3.000000X3.000000*%
%ADD17R,3.500000X3.500000*%
%ADD18C,1.500000*%
%ADD19R,3.800000X4.000000*%
%ADD20R,1.500000X2.700000*%
%ADD21C,6.000000*%
%ADD22O,3.300000X2.700000*%
%ADD23R,0.800000X0.900000*%
%ADD24C,1.440000*%
%ADD25C,3.200000*%
%ADD26R,2.300000X0.900000*%
%ADD27C,0.152400*%
%ADD28R,1.000000X1.000000*%
%ADD29O,1.000000X1.000000*%
%ADD30R,1.800000X1.800000*%
%ADD31C,1.800000*%
%ADD32R,1.600000X1.600000*%
%ADD33O,1.600000X1.600000*%
G04 APERTURE END LIST*
D10*
X89599404Y-88591666D02*
X90075595Y-88591666D01*
X89504166Y-88877380D02*
X89837500Y-87877380D01*
X90170833Y-88877380D01*
X90980357Y-88877380D02*
X90504166Y-88877380D01*
X90504166Y-87877380D01*
X91266071Y-88591666D02*
X91742261Y-88591666D01*
X91170833Y-88877380D02*
X91504166Y-87877380D01*
X91837500Y-88877380D01*
X92742261Y-88877380D02*
X92408928Y-88401190D01*
X92170833Y-88877380D02*
X92170833Y-87877380D01*
X92551785Y-87877380D01*
X92647023Y-87925000D01*
X92694642Y-87972619D01*
X92742261Y-88067857D01*
X92742261Y-88210714D01*
X92694642Y-88305952D01*
X92647023Y-88353571D01*
X92551785Y-88401190D01*
X92170833Y-88401190D01*
X93170833Y-88877380D02*
X93170833Y-87877380D01*
X93504166Y-88591666D01*
X93837500Y-87877380D01*
X93837500Y-88877380D01*
X94075595Y-88972619D02*
X94837500Y-88972619D01*
X95647023Y-88782142D02*
X95599404Y-88829761D01*
X95456547Y-88877380D01*
X95361309Y-88877380D01*
X95218452Y-88829761D01*
X95123214Y-88734523D01*
X95075595Y-88639285D01*
X95027976Y-88448809D01*
X95027976Y-88305952D01*
X95075595Y-88115476D01*
X95123214Y-88020238D01*
X95218452Y-87925000D01*
X95361309Y-87877380D01*
X95456547Y-87877380D01*
X95599404Y-87925000D01*
X95647023Y-87972619D01*
X89694642Y-90341666D02*
X90170833Y-90341666D01*
X89599404Y-90627380D02*
X89932738Y-89627380D01*
X90266071Y-90627380D01*
X91075595Y-90627380D02*
X90599404Y-90627380D01*
X90599404Y-89627380D01*
X91361309Y-90341666D02*
X91837500Y-90341666D01*
X91266071Y-90627380D02*
X91599404Y-89627380D01*
X91932738Y-90627380D01*
X92837500Y-90627380D02*
X92504166Y-90151190D01*
X92266071Y-90627380D02*
X92266071Y-89627380D01*
X92647023Y-89627380D01*
X92742261Y-89675000D01*
X92789880Y-89722619D01*
X92837500Y-89817857D01*
X92837500Y-89960714D01*
X92789880Y-90055952D01*
X92742261Y-90103571D01*
X92647023Y-90151190D01*
X92266071Y-90151190D01*
X93266071Y-90627380D02*
X93266071Y-89627380D01*
X93599404Y-90341666D01*
X93932738Y-89627380D01*
X93932738Y-90627380D01*
X94170833Y-90722619D02*
X94932738Y-90722619D01*
X95170833Y-90103571D02*
X95504166Y-90103571D01*
X95647023Y-90627380D02*
X95170833Y-90627380D01*
X95170833Y-89627380D01*
X95647023Y-89627380D01*
D11*
X61445739Y-89961866D02*
X62064786Y-89961866D01*
X61321929Y-90333295D02*
X61755262Y-89033295D01*
X62188596Y-90333295D01*
X63240977Y-90333295D02*
X62621929Y-90333295D01*
X62621929Y-89033295D01*
X63612405Y-89961866D02*
X64231453Y-89961866D01*
X63488596Y-90333295D02*
X63921929Y-89033295D01*
X64355262Y-90333295D01*
X65531453Y-90333295D02*
X65098120Y-89714247D01*
X64788596Y-90333295D02*
X64788596Y-89033295D01*
X65283834Y-89033295D01*
X65407643Y-89095200D01*
X65469548Y-89157104D01*
X65531453Y-89280914D01*
X65531453Y-89466628D01*
X65469548Y-89590438D01*
X65407643Y-89652342D01*
X65283834Y-89714247D01*
X64788596Y-89714247D01*
X66088596Y-90333295D02*
X66088596Y-89033295D01*
X66521929Y-89961866D01*
X66955262Y-89033295D01*
X66955262Y-90333295D01*
X61321929Y-91288095D02*
X61755262Y-92588095D01*
X62188596Y-91288095D01*
X62869548Y-91288095D02*
X63117167Y-91288095D01*
X63240977Y-91350000D01*
X63364786Y-91473809D01*
X63426691Y-91721428D01*
X63426691Y-92154761D01*
X63364786Y-92402380D01*
X63240977Y-92526190D01*
X63117167Y-92588095D01*
X62869548Y-92588095D01*
X62745739Y-92526190D01*
X62621929Y-92402380D01*
X62560024Y-92154761D01*
X62560024Y-91721428D01*
X62621929Y-91473809D01*
X62745739Y-91350000D01*
X62869548Y-91288095D01*
X64602881Y-92588095D02*
X63983834Y-92588095D01*
X63983834Y-91288095D01*
X64850500Y-91288095D02*
X65593358Y-91288095D01*
X65221929Y-92588095D02*
X65221929Y-91288095D01*
X65964786Y-92216666D02*
X66583834Y-92216666D01*
X65840977Y-92588095D02*
X66274310Y-91288095D01*
X66707643Y-92588095D01*
X67821929Y-91350000D02*
X67698120Y-91288095D01*
X67512405Y-91288095D01*
X67326691Y-91350000D01*
X67202881Y-91473809D01*
X67140977Y-91597619D01*
X67079072Y-91845238D01*
X67079072Y-92030952D01*
X67140977Y-92278571D01*
X67202881Y-92402380D01*
X67326691Y-92526190D01*
X67512405Y-92588095D01*
X67636215Y-92588095D01*
X67821929Y-92526190D01*
X67883834Y-92464285D01*
X67883834Y-92030952D01*
X67636215Y-92030952D01*
X68440977Y-91907142D02*
X68874310Y-91907142D01*
X69060024Y-92588095D02*
X68440977Y-92588095D01*
X68440977Y-91288095D01*
X69060024Y-91288095D01*
X61445739Y-94780990D02*
X61631453Y-94842895D01*
X61940977Y-94842895D01*
X62064786Y-94780990D01*
X62126691Y-94719085D01*
X62188596Y-94595276D01*
X62188596Y-94471466D01*
X62126691Y-94347657D01*
X62064786Y-94285752D01*
X61940977Y-94223847D01*
X61693358Y-94161942D01*
X61569548Y-94100038D01*
X61507643Y-94038133D01*
X61445739Y-93914323D01*
X61445739Y-93790514D01*
X61507643Y-93666704D01*
X61569548Y-93604800D01*
X61693358Y-93542895D01*
X62002881Y-93542895D01*
X62188596Y-93604800D01*
X62745739Y-94161942D02*
X63179072Y-94161942D01*
X63364786Y-94842895D02*
X62745739Y-94842895D01*
X62745739Y-93542895D01*
X63364786Y-93542895D01*
X63736215Y-93542895D02*
X64479072Y-93542895D01*
X64107643Y-94842895D02*
X64107643Y-93542895D01*
X8665428Y-46951428D02*
X10189428Y-46443428D01*
X8665428Y-45935428D01*
X9608857Y-45427428D02*
X9608857Y-44266285D01*
X10189428Y-44846857D02*
X9028285Y-44846857D01*
X19665428Y-62451428D02*
X21189428Y-61943428D01*
X19665428Y-61435428D01*
X20608857Y-60927428D02*
X20608857Y-59766285D01*
X21189428Y-60346857D02*
X20028285Y-60346857D01*
X35238000Y-62161142D02*
X35165428Y-62306285D01*
X35165428Y-62524000D01*
X35238000Y-62741714D01*
X35383142Y-62886857D01*
X35528285Y-62959428D01*
X35818571Y-63032000D01*
X36036285Y-63032000D01*
X36326571Y-62959428D01*
X36471714Y-62886857D01*
X36616857Y-62741714D01*
X36689428Y-62524000D01*
X36689428Y-62378857D01*
X36616857Y-62161142D01*
X36544285Y-62088571D01*
X36036285Y-62088571D01*
X36036285Y-62378857D01*
X36689428Y-61435428D02*
X35165428Y-61435428D01*
X36689428Y-60564571D01*
X35165428Y-60564571D01*
X36689428Y-59838857D02*
X35165428Y-59838857D01*
X35165428Y-59476000D01*
X35238000Y-59258285D01*
X35383142Y-59113142D01*
X35528285Y-59040571D01*
X35818571Y-58968000D01*
X36036285Y-58968000D01*
X36326571Y-59040571D01*
X36471714Y-59113142D01*
X36616857Y-59258285D01*
X36689428Y-59476000D01*
X36689428Y-59838857D01*
X8738000Y-62161142D02*
X8665428Y-62306285D01*
X8665428Y-62524000D01*
X8738000Y-62741714D01*
X8883142Y-62886857D01*
X9028285Y-62959428D01*
X9318571Y-63032000D01*
X9536285Y-63032000D01*
X9826571Y-62959428D01*
X9971714Y-62886857D01*
X10116857Y-62741714D01*
X10189428Y-62524000D01*
X10189428Y-62378857D01*
X10116857Y-62161142D01*
X10044285Y-62088571D01*
X9536285Y-62088571D01*
X9536285Y-62378857D01*
X10189428Y-61435428D02*
X8665428Y-61435428D01*
X10189428Y-60564571D01*
X8665428Y-60564571D01*
X10189428Y-59838857D02*
X8665428Y-59838857D01*
X8665428Y-59476000D01*
X8738000Y-59258285D01*
X8883142Y-59113142D01*
X9028285Y-59040571D01*
X9318571Y-58968000D01*
X9536285Y-58968000D01*
X9826571Y-59040571D01*
X9971714Y-59113142D01*
X10116857Y-59258285D01*
X10189428Y-59476000D01*
X10189428Y-59838857D01*
X24081142Y-66689428D02*
X24081142Y-65165428D01*
X24444000Y-65165428D01*
X24661714Y-65238000D01*
X24806857Y-65383142D01*
X24879428Y-65528285D01*
X24952000Y-65818571D01*
X24952000Y-66036285D01*
X24879428Y-66326571D01*
X24806857Y-66471714D01*
X24661714Y-66616857D01*
X24444000Y-66689428D01*
X24081142Y-66689428D01*
X26476000Y-66544285D02*
X26403428Y-66616857D01*
X26185714Y-66689428D01*
X26040571Y-66689428D01*
X25822857Y-66616857D01*
X25677714Y-66471714D01*
X25605142Y-66326571D01*
X25532571Y-66036285D01*
X25532571Y-65818571D01*
X25605142Y-65528285D01*
X25677714Y-65383142D01*
X25822857Y-65238000D01*
X26040571Y-65165428D01*
X26185714Y-65165428D01*
X26403428Y-65238000D01*
X26476000Y-65310571D01*
X28580571Y-65165428D02*
X28870857Y-65165428D01*
X29016000Y-65238000D01*
X29161142Y-65383142D01*
X29233714Y-65673428D01*
X29233714Y-66181428D01*
X29161142Y-66471714D01*
X29016000Y-66616857D01*
X28870857Y-66689428D01*
X28580571Y-66689428D01*
X28435428Y-66616857D01*
X28290285Y-66471714D01*
X28217714Y-66181428D01*
X28217714Y-65673428D01*
X28290285Y-65383142D01*
X28435428Y-65238000D01*
X28580571Y-65165428D01*
X29886857Y-65165428D02*
X29886857Y-66399142D01*
X29959428Y-66544285D01*
X30032000Y-66616857D01*
X30177142Y-66689428D01*
X30467428Y-66689428D01*
X30612571Y-66616857D01*
X30685142Y-66544285D01*
X30757714Y-66399142D01*
X30757714Y-65165428D01*
X31265714Y-65165428D02*
X32136571Y-65165428D01*
X31701142Y-66689428D02*
X31701142Y-65165428D01*
X1081142Y-66689428D02*
X1081142Y-65165428D01*
X1444000Y-65165428D01*
X1661714Y-65238000D01*
X1806857Y-65383142D01*
X1879428Y-65528285D01*
X1952000Y-65818571D01*
X1952000Y-66036285D01*
X1879428Y-66326571D01*
X1806857Y-66471714D01*
X1661714Y-66616857D01*
X1444000Y-66689428D01*
X1081142Y-66689428D01*
X3476000Y-66544285D02*
X3403428Y-66616857D01*
X3185714Y-66689428D01*
X3040571Y-66689428D01*
X2822857Y-66616857D01*
X2677714Y-66471714D01*
X2605142Y-66326571D01*
X2532571Y-66036285D01*
X2532571Y-65818571D01*
X2605142Y-65528285D01*
X2677714Y-65383142D01*
X2822857Y-65238000D01*
X3040571Y-65165428D01*
X3185714Y-65165428D01*
X3403428Y-65238000D01*
X3476000Y-65310571D01*
X5580571Y-65165428D02*
X5870857Y-65165428D01*
X6016000Y-65238000D01*
X6161142Y-65383142D01*
X6233714Y-65673428D01*
X6233714Y-66181428D01*
X6161142Y-66471714D01*
X6016000Y-66616857D01*
X5870857Y-66689428D01*
X5580571Y-66689428D01*
X5435428Y-66616857D01*
X5290285Y-66471714D01*
X5217714Y-66181428D01*
X5217714Y-65673428D01*
X5290285Y-65383142D01*
X5435428Y-65238000D01*
X5580571Y-65165428D01*
X6886857Y-65165428D02*
X6886857Y-66399142D01*
X6959428Y-66544285D01*
X7032000Y-66616857D01*
X7177142Y-66689428D01*
X7467428Y-66689428D01*
X7612571Y-66616857D01*
X7685142Y-66544285D01*
X7757714Y-66399142D01*
X7757714Y-65165428D01*
X8265714Y-65165428D02*
X9136571Y-65165428D01*
X8701142Y-66689428D02*
X8701142Y-65165428D01*
X24640132Y-97282236D02*
X24486185Y-97333552D01*
X24332238Y-97487499D01*
X24229606Y-97692762D01*
X24229606Y-97898025D01*
X24280922Y-98051972D01*
X24434869Y-98308551D01*
X24588816Y-98462498D01*
X24845395Y-98616446D01*
X24999342Y-98667761D01*
X25204605Y-98667761D01*
X25409868Y-98565130D01*
X25512500Y-98462498D01*
X25615131Y-98257235D01*
X25615131Y-98154604D01*
X25255921Y-97795394D01*
X25050658Y-98000657D01*
X26179605Y-97795394D02*
X25101974Y-96717763D01*
X26795394Y-97179605D01*
X25717763Y-96101974D01*
X27308551Y-96666447D02*
X26230920Y-95588816D01*
X26487499Y-95332238D01*
X26692762Y-95229606D01*
X26898025Y-95229606D01*
X27051972Y-95280922D01*
X27308551Y-95434869D01*
X27462498Y-95588816D01*
X27616446Y-95845395D01*
X27667761Y-95999342D01*
X27667761Y-96204605D01*
X27565130Y-96409868D01*
X27308551Y-96666447D01*
X8738000Y-90161142D02*
X8665428Y-90306285D01*
X8665428Y-90524000D01*
X8738000Y-90741714D01*
X8883142Y-90886857D01*
X9028285Y-90959428D01*
X9318571Y-91032000D01*
X9536285Y-91032000D01*
X9826571Y-90959428D01*
X9971714Y-90886857D01*
X10116857Y-90741714D01*
X10189428Y-90524000D01*
X10189428Y-90378857D01*
X10116857Y-90161142D01*
X10044285Y-90088571D01*
X9536285Y-90088571D01*
X9536285Y-90378857D01*
X10189428Y-89435428D02*
X8665428Y-89435428D01*
X10189428Y-88564571D01*
X8665428Y-88564571D01*
X10189428Y-87838857D02*
X8665428Y-87838857D01*
X8665428Y-87476000D01*
X8738000Y-87258285D01*
X8883142Y-87113142D01*
X9028285Y-87040571D01*
X9318571Y-86968000D01*
X9536285Y-86968000D01*
X9826571Y-87040571D01*
X9971714Y-87113142D01*
X10116857Y-87258285D01*
X10189428Y-87476000D01*
X10189428Y-87838857D01*
X1097142Y-85689428D02*
X1097142Y-84165428D01*
X1460000Y-84165428D01*
X1677714Y-84238000D01*
X1822857Y-84383142D01*
X1895428Y-84528285D01*
X1968000Y-84818571D01*
X1968000Y-85036285D01*
X1895428Y-85326571D01*
X1822857Y-85471714D01*
X1677714Y-85616857D01*
X1460000Y-85689428D01*
X1097142Y-85689428D01*
X3492000Y-85544285D02*
X3419428Y-85616857D01*
X3201714Y-85689428D01*
X3056571Y-85689428D01*
X2838857Y-85616857D01*
X2693714Y-85471714D01*
X2621142Y-85326571D01*
X2548571Y-85036285D01*
X2548571Y-84818571D01*
X2621142Y-84528285D01*
X2693714Y-84383142D01*
X2838857Y-84238000D01*
X3056571Y-84165428D01*
X3201714Y-84165428D01*
X3419428Y-84238000D01*
X3492000Y-84310571D01*
X5306285Y-85689428D02*
X5306285Y-84165428D01*
X6032000Y-85689428D02*
X6032000Y-84165428D01*
X6902857Y-85689428D01*
X6902857Y-84165428D01*
D12*
X59282380Y-53923809D02*
X59396666Y-53961904D01*
X59587142Y-53961904D01*
X59663333Y-53923809D01*
X59701428Y-53885714D01*
X59739523Y-53809523D01*
X59739523Y-53733333D01*
X59701428Y-53657142D01*
X59663333Y-53619047D01*
X59587142Y-53580952D01*
X59434761Y-53542857D01*
X59358571Y-53504761D01*
X59320476Y-53466666D01*
X59282380Y-53390476D01*
X59282380Y-53314285D01*
X59320476Y-53238095D01*
X59358571Y-53200000D01*
X59434761Y-53161904D01*
X59625238Y-53161904D01*
X59739523Y-53200000D01*
X59968095Y-53161904D02*
X60234761Y-53961904D01*
X60501428Y-53161904D01*
X60768095Y-53542857D02*
X61034761Y-53542857D01*
X61149047Y-53961904D02*
X60768095Y-53961904D01*
X60768095Y-53161904D01*
X61149047Y-53161904D01*
X62330000Y-53161904D02*
X62330000Y-53733333D01*
X62291904Y-53847619D01*
X62215714Y-53923809D01*
X62101428Y-53961904D01*
X62025238Y-53961904D01*
X62710952Y-53542857D02*
X62977619Y-53542857D01*
X63091904Y-53961904D02*
X62710952Y-53961904D01*
X62710952Y-53161904D01*
X63091904Y-53161904D01*
X63930000Y-53161904D02*
X64387142Y-53161904D01*
X64158571Y-53961904D02*
X64158571Y-53161904D01*
X64806190Y-53161904D02*
X64958571Y-53161904D01*
X65034761Y-53200000D01*
X65110952Y-53276190D01*
X65149047Y-53428571D01*
X65149047Y-53695238D01*
X65110952Y-53847619D01*
X65034761Y-53923809D01*
X64958571Y-53961904D01*
X64806190Y-53961904D01*
X64730000Y-53923809D01*
X64653809Y-53847619D01*
X64615714Y-53695238D01*
X64615714Y-53428571D01*
X64653809Y-53276190D01*
X64730000Y-53200000D01*
X64806190Y-53161904D01*
X66558571Y-53961904D02*
X66291904Y-53580952D01*
X66101428Y-53961904D02*
X66101428Y-53161904D01*
X66406190Y-53161904D01*
X66482380Y-53200000D01*
X66520476Y-53238095D01*
X66558571Y-53314285D01*
X66558571Y-53428571D01*
X66520476Y-53504761D01*
X66482380Y-53542857D01*
X66406190Y-53580952D01*
X66101428Y-53580952D01*
X66901428Y-53542857D02*
X67168095Y-53542857D01*
X67282380Y-53961904D02*
X66901428Y-53961904D01*
X66901428Y-53161904D01*
X67282380Y-53161904D01*
X67587142Y-53923809D02*
X67701428Y-53961904D01*
X67891904Y-53961904D01*
X67968095Y-53923809D01*
X68006190Y-53885714D01*
X68044285Y-53809523D01*
X68044285Y-53733333D01*
X68006190Y-53657142D01*
X67968095Y-53619047D01*
X67891904Y-53580952D01*
X67739523Y-53542857D01*
X67663333Y-53504761D01*
X67625238Y-53466666D01*
X67587142Y-53390476D01*
X67587142Y-53314285D01*
X67625238Y-53238095D01*
X67663333Y-53200000D01*
X67739523Y-53161904D01*
X67930000Y-53161904D01*
X68044285Y-53200000D01*
X68387142Y-53542857D02*
X68653809Y-53542857D01*
X68768095Y-53961904D02*
X68387142Y-53961904D01*
X68387142Y-53161904D01*
X68768095Y-53161904D01*
X69072857Y-53733333D02*
X69453809Y-53733333D01*
X68996666Y-53961904D02*
X69263333Y-53161904D01*
X69530000Y-53961904D01*
X70253809Y-53961904D02*
X69987142Y-53580952D01*
X69796666Y-53961904D02*
X69796666Y-53161904D01*
X70101428Y-53161904D01*
X70177619Y-53200000D01*
X70215714Y-53238095D01*
X70253809Y-53314285D01*
X70253809Y-53428571D01*
X70215714Y-53504761D01*
X70177619Y-53542857D01*
X70101428Y-53580952D01*
X69796666Y-53580952D01*
X71053809Y-53885714D02*
X71015714Y-53923809D01*
X70901428Y-53961904D01*
X70825238Y-53961904D01*
X70710952Y-53923809D01*
X70634761Y-53847619D01*
X70596666Y-53771428D01*
X70558571Y-53619047D01*
X70558571Y-53504761D01*
X70596666Y-53352380D01*
X70634761Y-53276190D01*
X70710952Y-53200000D01*
X70825238Y-53161904D01*
X70901428Y-53161904D01*
X71015714Y-53200000D01*
X71053809Y-53238095D01*
X71396666Y-53961904D02*
X71396666Y-53161904D01*
X71396666Y-53542857D02*
X71853809Y-53542857D01*
X71853809Y-53961904D02*
X71853809Y-53161904D01*
X59282380Y-55133333D02*
X59663333Y-55133333D01*
X59206190Y-55361904D02*
X59472857Y-54561904D01*
X59739523Y-55361904D01*
X60006190Y-55361904D02*
X60006190Y-54561904D01*
X60463333Y-55361904D01*
X60463333Y-54561904D01*
X60844285Y-55361904D02*
X60844285Y-54561904D01*
X61034761Y-54561904D01*
X61149047Y-54600000D01*
X61225238Y-54676190D01*
X61263333Y-54752380D01*
X61301428Y-54904761D01*
X61301428Y-55019047D01*
X61263333Y-55171428D01*
X61225238Y-55247619D01*
X61149047Y-55323809D01*
X61034761Y-55361904D01*
X60844285Y-55361904D01*
X62253809Y-55361904D02*
X62253809Y-54561904D01*
X62444285Y-54561904D01*
X62558571Y-54600000D01*
X62634761Y-54676190D01*
X62672857Y-54752380D01*
X62710952Y-54904761D01*
X62710952Y-55019047D01*
X62672857Y-55171428D01*
X62634761Y-55247619D01*
X62558571Y-55323809D01*
X62444285Y-55361904D01*
X62253809Y-55361904D01*
X63053809Y-54942857D02*
X63320476Y-54942857D01*
X63434761Y-55361904D02*
X63053809Y-55361904D01*
X63053809Y-54561904D01*
X63434761Y-54561904D01*
X63663333Y-54561904D02*
X63930000Y-55361904D01*
X64196666Y-54561904D01*
X64463333Y-54942857D02*
X64730000Y-54942857D01*
X64844285Y-55361904D02*
X64463333Y-55361904D01*
X64463333Y-54561904D01*
X64844285Y-54561904D01*
X65568095Y-55361904D02*
X65187142Y-55361904D01*
X65187142Y-54561904D01*
X65987142Y-54561904D02*
X66139523Y-54561904D01*
X66215714Y-54600000D01*
X66291904Y-54676190D01*
X66330000Y-54828571D01*
X66330000Y-55095238D01*
X66291904Y-55247619D01*
X66215714Y-55323809D01*
X66139523Y-55361904D01*
X65987142Y-55361904D01*
X65910952Y-55323809D01*
X65834761Y-55247619D01*
X65796666Y-55095238D01*
X65796666Y-54828571D01*
X65834761Y-54676190D01*
X65910952Y-54600000D01*
X65987142Y-54561904D01*
X66672857Y-55361904D02*
X66672857Y-54561904D01*
X66977619Y-54561904D01*
X67053809Y-54600000D01*
X67091904Y-54638095D01*
X67130000Y-54714285D01*
X67130000Y-54828571D01*
X67091904Y-54904761D01*
X67053809Y-54942857D01*
X66977619Y-54980952D01*
X66672857Y-54980952D01*
X67472857Y-55361904D02*
X67472857Y-54561904D01*
X67739523Y-55133333D01*
X68006190Y-54561904D01*
X68006190Y-55361904D01*
X68387142Y-54942857D02*
X68653809Y-54942857D01*
X68768095Y-55361904D02*
X68387142Y-55361904D01*
X68387142Y-54561904D01*
X68768095Y-54561904D01*
X69110952Y-55361904D02*
X69110952Y-54561904D01*
X69568095Y-55361904D01*
X69568095Y-54561904D01*
X69834761Y-54561904D02*
X70291904Y-54561904D01*
X70063333Y-55361904D02*
X70063333Y-54561904D01*
X70558571Y-55285714D02*
X70596666Y-55323809D01*
X70558571Y-55361904D01*
X70520476Y-55323809D01*
X70558571Y-55285714D01*
X70558571Y-55361904D01*
X70558571Y-55057142D02*
X70520476Y-54600000D01*
X70558571Y-54561904D01*
X70596666Y-54600000D01*
X70558571Y-55057142D01*
X70558571Y-54561904D01*
X59320476Y-56457142D02*
X59930000Y-56457142D01*
X60806190Y-55961904D02*
X61072857Y-56761904D01*
X61339523Y-55961904D01*
X61910952Y-56723809D02*
X61834761Y-56761904D01*
X61682380Y-56761904D01*
X61606190Y-56723809D01*
X61568095Y-56647619D01*
X61568095Y-56342857D01*
X61606190Y-56266666D01*
X61682380Y-56228571D01*
X61834761Y-56228571D01*
X61910952Y-56266666D01*
X61949047Y-56342857D01*
X61949047Y-56419047D01*
X61568095Y-56495238D01*
X62253809Y-56723809D02*
X62330000Y-56761904D01*
X62482380Y-56761904D01*
X62558571Y-56723809D01*
X62596666Y-56647619D01*
X62596666Y-56609523D01*
X62558571Y-56533333D01*
X62482380Y-56495238D01*
X62368095Y-56495238D01*
X62291904Y-56457142D01*
X62253809Y-56380952D01*
X62253809Y-56342857D01*
X62291904Y-56266666D01*
X62368095Y-56228571D01*
X62482380Y-56228571D01*
X62558571Y-56266666D01*
X62939523Y-56228571D02*
X62939523Y-56761904D01*
X62939523Y-56304761D02*
X62977619Y-56266666D01*
X63053809Y-56228571D01*
X63168095Y-56228571D01*
X63244285Y-56266666D01*
X63282380Y-56342857D01*
X63282380Y-56761904D01*
X64006190Y-56761904D02*
X64006190Y-56342857D01*
X63968095Y-56266666D01*
X63891904Y-56228571D01*
X63739523Y-56228571D01*
X63663333Y-56266666D01*
X64006190Y-56723809D02*
X63930000Y-56761904D01*
X63739523Y-56761904D01*
X63663333Y-56723809D01*
X63625238Y-56647619D01*
X63625238Y-56571428D01*
X63663333Y-56495238D01*
X63739523Y-56457142D01*
X63930000Y-56457142D01*
X64006190Y-56419047D01*
X64730000Y-56761904D02*
X64730000Y-56342857D01*
X64691904Y-56266666D01*
X64615714Y-56228571D01*
X64463333Y-56228571D01*
X64387142Y-56266666D01*
X64730000Y-56723809D02*
X64653809Y-56761904D01*
X64463333Y-56761904D01*
X64387142Y-56723809D01*
X64349047Y-56647619D01*
X64349047Y-56571428D01*
X64387142Y-56495238D01*
X64463333Y-56457142D01*
X64653809Y-56457142D01*
X64730000Y-56419047D01*
D11*
X33393999Y-97544285D02*
X33466571Y-97616857D01*
X33393999Y-97689428D01*
X33321428Y-97616857D01*
X33393999Y-97544285D01*
X33393999Y-97689428D01*
X33393999Y-97108857D02*
X33321428Y-96238000D01*
X33393999Y-96165428D01*
X33466571Y-96238000D01*
X33393999Y-97108857D01*
X33393999Y-96165428D01*
X34119714Y-97544285D02*
X34192285Y-97616857D01*
X34119714Y-97689428D01*
X34047142Y-97616857D01*
X34119714Y-97544285D01*
X34119714Y-97689428D01*
X34119714Y-97108857D02*
X34047142Y-96238000D01*
X34119714Y-96165428D01*
X34192285Y-96238000D01*
X34119714Y-97108857D01*
X34119714Y-96165428D01*
X36296857Y-96165428D02*
X36587142Y-96165428D01*
X36732285Y-96238000D01*
X36877428Y-96383142D01*
X36950000Y-96673428D01*
X36950000Y-97181428D01*
X36877428Y-97471714D01*
X36732285Y-97616857D01*
X36587142Y-97689428D01*
X36296857Y-97689428D01*
X36151714Y-97616857D01*
X36006571Y-97471714D01*
X35934000Y-97181428D01*
X35934000Y-96673428D01*
X36006571Y-96383142D01*
X36151714Y-96238000D01*
X36296857Y-96165428D01*
X37603142Y-97689428D02*
X37603142Y-96165428D01*
X38474000Y-97689428D01*
X38474000Y-96165428D01*
X39925428Y-97689428D02*
X39199714Y-97689428D01*
X39199714Y-96165428D01*
X40723714Y-96963714D02*
X40723714Y-97689428D01*
X40215714Y-96165428D02*
X40723714Y-96963714D01*
X41231714Y-96165428D01*
X42828285Y-97616857D02*
X43046000Y-97689428D01*
X43408857Y-97689428D01*
X43554000Y-97616857D01*
X43626571Y-97544285D01*
X43699142Y-97399142D01*
X43699142Y-97254000D01*
X43626571Y-97108857D01*
X43554000Y-97036285D01*
X43408857Y-96963714D01*
X43118571Y-96891142D01*
X42973428Y-96818571D01*
X42900857Y-96746000D01*
X42828285Y-96600857D01*
X42828285Y-96455714D01*
X42900857Y-96310571D01*
X42973428Y-96238000D01*
X43118571Y-96165428D01*
X43481428Y-96165428D01*
X43699142Y-96238000D01*
X44352285Y-97689428D02*
X44352285Y-96165428D01*
X44352285Y-96891142D02*
X45223142Y-96891142D01*
X45223142Y-97689428D02*
X45223142Y-96165428D01*
X46239142Y-96165428D02*
X46529428Y-96165428D01*
X46674571Y-96238000D01*
X46819714Y-96383142D01*
X46892285Y-96673428D01*
X46892285Y-97181428D01*
X46819714Y-97471714D01*
X46674571Y-97616857D01*
X46529428Y-97689428D01*
X46239142Y-97689428D01*
X46094000Y-97616857D01*
X45948857Y-97471714D01*
X45876285Y-97181428D01*
X45876285Y-96673428D01*
X45948857Y-96383142D01*
X46094000Y-96238000D01*
X46239142Y-96165428D01*
X48416285Y-97689428D02*
X47908285Y-96963714D01*
X47545428Y-97689428D02*
X47545428Y-96165428D01*
X48126000Y-96165428D01*
X48271142Y-96238000D01*
X48343714Y-96310571D01*
X48416285Y-96455714D01*
X48416285Y-96673428D01*
X48343714Y-96818571D01*
X48271142Y-96891142D01*
X48126000Y-96963714D01*
X47545428Y-96963714D01*
X48851714Y-96165428D02*
X49722571Y-96165428D01*
X49287142Y-97689428D02*
X49287142Y-96165428D01*
X51682000Y-96165428D02*
X51972285Y-96165428D01*
X52117428Y-96238000D01*
X52262571Y-96383142D01*
X52335142Y-96673428D01*
X52335142Y-97181428D01*
X52262571Y-97471714D01*
X52117428Y-97616857D01*
X51972285Y-97689428D01*
X51682000Y-97689428D01*
X51536857Y-97616857D01*
X51391714Y-97471714D01*
X51319142Y-97181428D01*
X51319142Y-96673428D01*
X51391714Y-96383142D01*
X51536857Y-96238000D01*
X51682000Y-96165428D01*
X52988285Y-97689428D02*
X52988285Y-96165428D01*
X53859142Y-97689428D01*
X53859142Y-96165428D01*
X54584857Y-96891142D02*
X55092857Y-96891142D01*
X55310571Y-97689428D02*
X54584857Y-97689428D01*
X54584857Y-96165428D01*
X55310571Y-96165428D01*
X57052285Y-97616857D02*
X57270000Y-97689428D01*
X57632857Y-97689428D01*
X57778000Y-97616857D01*
X57850571Y-97544285D01*
X57923142Y-97399142D01*
X57923142Y-97254000D01*
X57850571Y-97108857D01*
X57778000Y-97036285D01*
X57632857Y-96963714D01*
X57342571Y-96891142D01*
X57197428Y-96818571D01*
X57124857Y-96746000D01*
X57052285Y-96600857D01*
X57052285Y-96455714D01*
X57124857Y-96310571D01*
X57197428Y-96238000D01*
X57342571Y-96165428D01*
X57705428Y-96165428D01*
X57923142Y-96238000D01*
X58576285Y-96891142D02*
X59084285Y-96891142D01*
X59302000Y-97689428D02*
X58576285Y-97689428D01*
X58576285Y-96165428D01*
X59302000Y-96165428D01*
X59737428Y-96165428D02*
X60608285Y-96165428D01*
X60172857Y-97689428D02*
X60172857Y-96165428D01*
X62567714Y-96165428D02*
X62858000Y-96165428D01*
X63003142Y-96238000D01*
X63148285Y-96383142D01*
X63220857Y-96673428D01*
X63220857Y-97181428D01*
X63148285Y-97471714D01*
X63003142Y-97616857D01*
X62858000Y-97689428D01*
X62567714Y-97689428D01*
X62422571Y-97616857D01*
X62277428Y-97471714D01*
X62204857Y-97181428D01*
X62204857Y-96673428D01*
X62277428Y-96383142D01*
X62422571Y-96238000D01*
X62567714Y-96165428D01*
X64382000Y-96891142D02*
X63874000Y-96891142D01*
X63874000Y-97689428D02*
X63874000Y-96165428D01*
X64599714Y-96165428D01*
X66776857Y-96165428D02*
X66776857Y-97254000D01*
X66704285Y-97471714D01*
X66559142Y-97616857D01*
X66341428Y-97689428D01*
X66196285Y-97689428D01*
X67502571Y-96165428D02*
X67502571Y-97399142D01*
X67575142Y-97544285D01*
X67647714Y-97616857D01*
X67792857Y-97689428D01*
X68083142Y-97689428D01*
X68228285Y-97616857D01*
X68300857Y-97544285D01*
X68373428Y-97399142D01*
X68373428Y-96165428D01*
X69099142Y-97689428D02*
X69099142Y-96165428D01*
X69607142Y-97254000D01*
X70115142Y-96165428D01*
X70115142Y-97689428D01*
X70840857Y-97689428D02*
X70840857Y-96165428D01*
X71421428Y-96165428D01*
X71566571Y-96238000D01*
X71639142Y-96310571D01*
X71711714Y-96455714D01*
X71711714Y-96673428D01*
X71639142Y-96818571D01*
X71566571Y-96891142D01*
X71421428Y-96963714D01*
X70840857Y-96963714D01*
X72364857Y-96891142D02*
X72872857Y-96891142D01*
X73090571Y-97689428D02*
X72364857Y-97689428D01*
X72364857Y-96165428D01*
X73090571Y-96165428D01*
X74614571Y-97689428D02*
X74106571Y-96963714D01*
X73743714Y-97689428D02*
X73743714Y-96165428D01*
X74324285Y-96165428D01*
X74469428Y-96238000D01*
X74542000Y-96310571D01*
X74614571Y-96455714D01*
X74614571Y-96673428D01*
X74542000Y-96818571D01*
X74469428Y-96891142D01*
X74324285Y-96963714D01*
X73743714Y-96963714D01*
X75195142Y-97616857D02*
X75412857Y-97689428D01*
X75775714Y-97689428D01*
X75920857Y-97616857D01*
X75993428Y-97544285D01*
X76066000Y-97399142D01*
X76066000Y-97254000D01*
X75993428Y-97108857D01*
X75920857Y-97036285D01*
X75775714Y-96963714D01*
X75485428Y-96891142D01*
X75340285Y-96818571D01*
X75267714Y-96746000D01*
X75195142Y-96600857D01*
X75195142Y-96455714D01*
X75267714Y-96310571D01*
X75340285Y-96238000D01*
X75485428Y-96165428D01*
X75848285Y-96165428D01*
X76066000Y-96238000D01*
X77880285Y-97544285D02*
X77952857Y-97616857D01*
X77880285Y-97689428D01*
X77807714Y-97616857D01*
X77880285Y-97544285D01*
X77880285Y-97689428D01*
X77880285Y-97108857D02*
X77807714Y-96238000D01*
X77880285Y-96165428D01*
X77952857Y-96238000D01*
X77880285Y-97108857D01*
X77880285Y-96165428D01*
X78606000Y-97544285D02*
X78678571Y-97616857D01*
X78606000Y-97689428D01*
X78533428Y-97616857D01*
X78606000Y-97544285D01*
X78606000Y-97689428D01*
X78606000Y-97108857D02*
X78533428Y-96238000D01*
X78606000Y-96165428D01*
X78678571Y-96238000D01*
X78606000Y-97108857D01*
X78606000Y-96165428D01*
X30167022Y-87248885D02*
X30094451Y-87321457D01*
X29876737Y-87394028D01*
X29731594Y-87394028D01*
X29513879Y-87321457D01*
X29368737Y-87176314D01*
X29296165Y-87031171D01*
X29223594Y-86740885D01*
X29223594Y-86523171D01*
X29296165Y-86232885D01*
X29368737Y-86087742D01*
X29513879Y-85942600D01*
X29731594Y-85870028D01*
X29876737Y-85870028D01*
X30094451Y-85942600D01*
X30167022Y-86015171D01*
X30820165Y-85870028D02*
X30820165Y-87103742D01*
X30892737Y-87248885D01*
X30965308Y-87321457D01*
X31110451Y-87394028D01*
X31400737Y-87394028D01*
X31545879Y-87321457D01*
X31618451Y-87248885D01*
X31691022Y-87103742D01*
X31691022Y-85870028D01*
X32344165Y-87321457D02*
X32561879Y-87394028D01*
X32924737Y-87394028D01*
X33069879Y-87321457D01*
X33142451Y-87248885D01*
X33215022Y-87103742D01*
X33215022Y-86958600D01*
X33142451Y-86813457D01*
X33069879Y-86740885D01*
X32924737Y-86668314D01*
X32634451Y-86595742D01*
X32489308Y-86523171D01*
X32416737Y-86450600D01*
X32344165Y-86305457D01*
X32344165Y-86160314D01*
X32416737Y-86015171D01*
X32489308Y-85942600D01*
X32634451Y-85870028D01*
X32997308Y-85870028D01*
X33215022Y-85942600D01*
X33650451Y-85870028D02*
X34521308Y-85870028D01*
X34085879Y-87394028D02*
X34085879Y-85870028D01*
X35319594Y-85870028D02*
X35609879Y-85870028D01*
X35755022Y-85942600D01*
X35900165Y-86087742D01*
X35972737Y-86378028D01*
X35972737Y-86886028D01*
X35900165Y-87176314D01*
X35755022Y-87321457D01*
X35609879Y-87394028D01*
X35319594Y-87394028D01*
X35174451Y-87321457D01*
X35029308Y-87176314D01*
X34956737Y-86886028D01*
X34956737Y-86378028D01*
X35029308Y-86087742D01*
X35174451Y-85942600D01*
X35319594Y-85870028D01*
X36625879Y-87394028D02*
X36625879Y-85870028D01*
X37133879Y-86958600D01*
X37641880Y-85870028D01*
X37641880Y-87394028D01*
X40399594Y-87248885D02*
X40327022Y-87321457D01*
X40109308Y-87394028D01*
X39964165Y-87394028D01*
X39746451Y-87321457D01*
X39601308Y-87176314D01*
X39528737Y-87031171D01*
X39456165Y-86740885D01*
X39456165Y-86523171D01*
X39528737Y-86232885D01*
X39601308Y-86087742D01*
X39746451Y-85942600D01*
X39964165Y-85870028D01*
X40109308Y-85870028D01*
X40327022Y-85942600D01*
X40399594Y-86015171D01*
X41052737Y-85870028D02*
X41052737Y-87103742D01*
X41125308Y-87248885D01*
X41197879Y-87321457D01*
X41343022Y-87394028D01*
X41633308Y-87394028D01*
X41778451Y-87321457D01*
X41851022Y-87248885D01*
X41923594Y-87103742D01*
X41923594Y-85870028D01*
X42431594Y-85870028D02*
X43302451Y-85870028D01*
X42867022Y-87394028D02*
X42867022Y-85870028D01*
X44100737Y-85870028D02*
X44391022Y-85870028D01*
X44536165Y-85942600D01*
X44681308Y-86087742D01*
X44753879Y-86378028D01*
X44753879Y-86886028D01*
X44681308Y-87176314D01*
X44536165Y-87321457D01*
X44391022Y-87394028D01*
X44100737Y-87394028D01*
X43955594Y-87321457D01*
X43810451Y-87176314D01*
X43737879Y-86886028D01*
X43737879Y-86378028D01*
X43810451Y-86087742D01*
X43955594Y-85942600D01*
X44100737Y-85870028D01*
X45407022Y-85870028D02*
X45407022Y-87103742D01*
X45479594Y-87248885D01*
X45552165Y-87321457D01*
X45697308Y-87394028D01*
X45987594Y-87394028D01*
X46132737Y-87321457D01*
X46205308Y-87248885D01*
X46277879Y-87103742D01*
X46277879Y-85870028D01*
X46785880Y-85870028D02*
X47656737Y-85870028D01*
X47221308Y-87394028D02*
X47221308Y-85870028D01*
X33287594Y-88460828D02*
X33795594Y-89984828D01*
X34303594Y-88460828D01*
X35101880Y-88460828D02*
X35392165Y-88460828D01*
X35537308Y-88533400D01*
X35682451Y-88678542D01*
X35755022Y-88968828D01*
X35755022Y-89476828D01*
X35682451Y-89767114D01*
X35537308Y-89912257D01*
X35392165Y-89984828D01*
X35101880Y-89984828D01*
X34956737Y-89912257D01*
X34811594Y-89767114D01*
X34739022Y-89476828D01*
X34739022Y-88968828D01*
X34811594Y-88678542D01*
X34956737Y-88533400D01*
X35101880Y-88460828D01*
X37133880Y-89984828D02*
X36408165Y-89984828D01*
X36408165Y-88460828D01*
X37424165Y-88460828D02*
X38295022Y-88460828D01*
X37859594Y-89984828D02*
X37859594Y-88460828D01*
X38730451Y-89549400D02*
X39456165Y-89549400D01*
X38585308Y-89984828D02*
X39093308Y-88460828D01*
X39601308Y-89984828D01*
X40907594Y-88533400D02*
X40762451Y-88460828D01*
X40544737Y-88460828D01*
X40327022Y-88533400D01*
X40181880Y-88678542D01*
X40109308Y-88823685D01*
X40036737Y-89113971D01*
X40036737Y-89331685D01*
X40109308Y-89621971D01*
X40181880Y-89767114D01*
X40327022Y-89912257D01*
X40544737Y-89984828D01*
X40689880Y-89984828D01*
X40907594Y-89912257D01*
X40980165Y-89839685D01*
X40980165Y-89331685D01*
X40689880Y-89331685D01*
X41633308Y-89186542D02*
X42141308Y-89186542D01*
X42359022Y-89984828D02*
X41633308Y-89984828D01*
X41633308Y-88460828D01*
X42359022Y-88460828D01*
X44100737Y-89912257D02*
X44318451Y-89984828D01*
X44681308Y-89984828D01*
X44826451Y-89912257D01*
X44899022Y-89839685D01*
X44971594Y-89694542D01*
X44971594Y-89549400D01*
X44899022Y-89404257D01*
X44826451Y-89331685D01*
X44681308Y-89259114D01*
X44391022Y-89186542D01*
X44245880Y-89113971D01*
X44173308Y-89041400D01*
X44100737Y-88896257D01*
X44100737Y-88751114D01*
X44173308Y-88605971D01*
X44245880Y-88533400D01*
X44391022Y-88460828D01*
X44753880Y-88460828D01*
X44971594Y-88533400D01*
X45624737Y-89186542D02*
X46132737Y-89186542D01*
X46350451Y-89984828D02*
X45624737Y-89984828D01*
X45624737Y-88460828D01*
X46350451Y-88460828D01*
X46785880Y-88460828D02*
X47656737Y-88460828D01*
X47221308Y-89984828D02*
X47221308Y-88460828D01*
X73722000Y-94439428D02*
X73722000Y-92915428D01*
X74302571Y-92915428D01*
X74447714Y-92988000D01*
X74520285Y-93060571D01*
X74592857Y-93205714D01*
X74592857Y-93423428D01*
X74520285Y-93568571D01*
X74447714Y-93641142D01*
X74302571Y-93713714D01*
X73722000Y-93713714D01*
X75536285Y-92915428D02*
X75826571Y-92915428D01*
X75971714Y-92988000D01*
X76116857Y-93133142D01*
X76189428Y-93423428D01*
X76189428Y-93931428D01*
X76116857Y-94221714D01*
X75971714Y-94366857D01*
X75826571Y-94439428D01*
X75536285Y-94439428D01*
X75391142Y-94366857D01*
X75246000Y-94221714D01*
X75173428Y-93931428D01*
X75173428Y-93423428D01*
X75246000Y-93133142D01*
X75391142Y-92988000D01*
X75536285Y-92915428D01*
X76624857Y-92915428D02*
X77495714Y-92915428D01*
X77060285Y-94439428D02*
X77060285Y-92915428D01*
X54516285Y-92915428D02*
X55459714Y-92915428D01*
X54951714Y-93496000D01*
X55169428Y-93496000D01*
X55314571Y-93568571D01*
X55387142Y-93641142D01*
X55459714Y-93786285D01*
X55459714Y-94149142D01*
X55387142Y-94294285D01*
X55314571Y-94366857D01*
X55169428Y-94439428D01*
X54734000Y-94439428D01*
X54588857Y-94366857D01*
X54516285Y-94294285D01*
X56040285Y-94366857D02*
X56258000Y-94439428D01*
X56620857Y-94439428D01*
X56766000Y-94366857D01*
X56838571Y-94294285D01*
X56911142Y-94149142D01*
X56911142Y-94004000D01*
X56838571Y-93858857D01*
X56766000Y-93786285D01*
X56620857Y-93713714D01*
X56330571Y-93641142D01*
X56185428Y-93568571D01*
X56112857Y-93496000D01*
X56040285Y-93350857D01*
X56040285Y-93205714D01*
X56112857Y-93060571D01*
X56185428Y-92988000D01*
X56330571Y-92915428D01*
X56693428Y-92915428D01*
X56911142Y-92988000D01*
D13*
X190000Y-43460000D02*
X190000Y-63780000D01*
X7810000Y-43460000D02*
X7810000Y-63780000D01*
X1460000Y-63780000D02*
X1460000Y-43460000D01*
X190000Y-63780000D02*
X7810000Y-63780000D01*
X7810000Y-43460000D02*
X190000Y-43460000D01*
X14900000Y-69900000D02*
X14900000Y-72500000D01*
X200000Y-69900000D02*
X14900000Y-69900000D01*
X14900000Y-79100000D02*
X13000000Y-79100000D01*
X14900000Y-76400000D02*
X14900000Y-79100000D01*
X200000Y-79100000D02*
X200000Y-69900000D01*
X9000000Y-79100000D02*
X200000Y-79100000D01*
X14050000Y-69700000D02*
X15100000Y-69700000D01*
X15100000Y-70750000D02*
X15100000Y-69700000D01*
D14*
X93180000Y-67082000D02*
X50000000Y-67082000D01*
X50000000Y-46000000D02*
X50000000Y-67082000D01*
X93180000Y-46000000D02*
X93180000Y-67082000D01*
X50000000Y-46000000D02*
X93180000Y-46000000D01*
X57471768Y-56414000D02*
G75*
G03*
X57471768Y-56414000I-3407768J0D01*
G01*
X91062124Y-56922000D02*
G75*
G03*
X91062124Y-56922000I-2962124J0D01*
G01*
X72860000Y-46762000D02*
X80988000Y-46762000D01*
X72860000Y-56922000D02*
X72860000Y-46762000D01*
X72860000Y-57938000D02*
X72860000Y-56414000D01*
X84036000Y-57938000D02*
X72860000Y-57938000D01*
X84036000Y-46762000D02*
X84036000Y-57938000D01*
X83020000Y-46762000D02*
X84036000Y-46762000D01*
X80988000Y-46762000D02*
X83020000Y-46762000D01*
X52540000Y-59970000D02*
X50508000Y-58446000D01*
X55588000Y-59970000D02*
X52540000Y-59970000D01*
X57620000Y-58446000D02*
X55588000Y-59970000D01*
X57620000Y-52858000D02*
X57620000Y-58446000D01*
X50508000Y-52858000D02*
X57620000Y-52858000D01*
X50508000Y-58446000D02*
X50508000Y-52858000D01*
X91148000Y-58446000D02*
X91148000Y-53874000D01*
X89624000Y-59970000D02*
X91148000Y-58446000D01*
X86576000Y-59970000D02*
X89624000Y-59970000D01*
X85052000Y-58446000D02*
X86576000Y-59970000D01*
X85052000Y-53874000D02*
X85052000Y-58446000D01*
X91148000Y-53874000D02*
X85052000Y-53874000D01*
X72352000Y-65558000D02*
X81496000Y-65558000D01*
X72352000Y-62002000D02*
X72352000Y-65558000D01*
X72860000Y-62002000D02*
X72352000Y-62002000D01*
X72860000Y-62510000D02*
X72860000Y-62002000D01*
X80988000Y-62510000D02*
X72860000Y-62510000D01*
X80988000Y-62002000D02*
X80988000Y-62510000D01*
X81496000Y-62002000D02*
X80988000Y-62002000D01*
X81496000Y-65558000D02*
X81496000Y-62002000D01*
X81198420Y-64034000D02*
G75*
G03*
X81198420Y-64034000I-718420J0D01*
G01*
X80988000Y-63526000D02*
X79972000Y-64542000D01*
X61176000Y-63018000D02*
X65240000Y-65050000D01*
X65240000Y-60986000D02*
X61176000Y-63018000D01*
X65240000Y-65050000D02*
X65240000Y-60986000D01*
X61176000Y-65050000D02*
X61176000Y-60986000D01*
X88100000Y-64542000D02*
G75*
G03*
X88100000Y-64542000I-1524000J0D01*
G01*
X88670538Y-64542000D02*
G75*
G03*
X88670538Y-64542000I-2094538J0D01*
G01*
X58128000Y-48540000D02*
G75*
G03*
X58128000Y-48540000I-1524000J0D01*
G01*
X58774177Y-48540000D02*
G75*
G03*
X58774177Y-48540000I-2170177J0D01*
G01*
D13*
X21265000Y-71238748D02*
X21265000Y-71761252D01*
X22735000Y-71238748D02*
X22735000Y-71761252D01*
X26910000Y-71288748D02*
X26910000Y-72711252D01*
X25090000Y-71288748D02*
X25090000Y-72711252D01*
X90511252Y-71735000D02*
X89988748Y-71735000D01*
X90511252Y-70265000D02*
X89988748Y-70265000D01*
X29340000Y-71288748D02*
X29340000Y-72711252D01*
X31160000Y-71288748D02*
X31160000Y-72711252D01*
X90211252Y-75660000D02*
X88788748Y-75660000D01*
X90211252Y-73840000D02*
X88788748Y-73840000D01*
X90211252Y-77840000D02*
X88788748Y-77840000D01*
X90211252Y-79660000D02*
X88788748Y-79660000D01*
X44265000Y-49701248D02*
X44265000Y-50223752D01*
X45735000Y-49701248D02*
X45735000Y-50223752D01*
X24660000Y-45288748D02*
X24660000Y-46711252D01*
X22840000Y-45288748D02*
X22840000Y-46711252D01*
X50235000Y-73761252D02*
X50235000Y-73238748D01*
X48765000Y-73761252D02*
X48765000Y-73238748D01*
X27840000Y-45288748D02*
X27840000Y-46711252D01*
X29660000Y-45288748D02*
X29660000Y-46711252D01*
X54950000Y-82250000D02*
X60650000Y-82250000D01*
X54950000Y-79250000D02*
X54950000Y-82250000D01*
X60650000Y-79250000D02*
X54950000Y-79250000D01*
X23300000Y-97000000D02*
X25900000Y-94150000D01*
X17600000Y-94150000D02*
X20150000Y-97000000D01*
X25900000Y-81300000D02*
X17600000Y-81300000D01*
X25900000Y-94150000D02*
X25900000Y-81300000D01*
X20150000Y-97000000D02*
X23300000Y-97000000D01*
X17600000Y-81300000D02*
X17600000Y-94150000D01*
X190000Y-87210000D02*
X190000Y-97370000D01*
X7810000Y-87210000D02*
X190000Y-87210000D01*
X7810000Y-97370000D02*
X7810000Y-87210000D01*
X190000Y-97370000D02*
X7810000Y-97370000D01*
X1460000Y-97370000D02*
X1460000Y-87210000D01*
X22400000Y-64050000D02*
X25250000Y-64050000D01*
X22400000Y-61200000D02*
X22400000Y-64050000D01*
X33860000Y-57090000D02*
X33860000Y-58900000D01*
X32460000Y-57090000D02*
X33860000Y-57090000D01*
X32460000Y-53990000D02*
X32460000Y-57090000D01*
X22640000Y-53990000D02*
X32460000Y-53990000D01*
X22640000Y-58900000D02*
X22640000Y-53990000D01*
X33860000Y-60710000D02*
X33860000Y-58900000D01*
X32460000Y-60710000D02*
X33860000Y-60710000D01*
X32460000Y-63810000D02*
X32460000Y-60710000D01*
X22640000Y-63810000D02*
X32460000Y-63810000D01*
X22640000Y-58900000D02*
X22640000Y-63810000D01*
X62830000Y-72740000D02*
X61900000Y-72740000D01*
X59670000Y-72740000D02*
X60600000Y-72740000D01*
X59670000Y-72740000D02*
X59670000Y-74900000D01*
X62830000Y-72740000D02*
X62830000Y-74200000D01*
X84330000Y-72990000D02*
X84330000Y-74450000D01*
X81170000Y-72990000D02*
X81170000Y-75150000D01*
X81170000Y-72990000D02*
X82100000Y-72990000D01*
X84330000Y-72990000D02*
X83400000Y-72990000D01*
X73330000Y-72990000D02*
X72400000Y-72990000D01*
X70170000Y-72990000D02*
X71100000Y-72990000D01*
X70170000Y-72990000D02*
X70170000Y-75150000D01*
X73330000Y-72990000D02*
X73330000Y-74450000D01*
X78830000Y-72990000D02*
X78830000Y-74450000D01*
X75670000Y-72990000D02*
X75670000Y-75150000D01*
X75670000Y-72990000D02*
X76600000Y-72990000D01*
X78830000Y-72990000D02*
X77900000Y-72990000D01*
X68080000Y-72990000D02*
X68080000Y-74450000D01*
X64920000Y-72990000D02*
X64920000Y-75150000D01*
X64920000Y-72990000D02*
X65850000Y-72990000D01*
X68080000Y-72990000D02*
X67150000Y-72990000D01*
X48470000Y-77905000D02*
X53540000Y-77905000D01*
X48470000Y-87675000D02*
X53540000Y-87675000D01*
X53540000Y-87675000D02*
X53540000Y-77905000D01*
X48470000Y-87675000D02*
X48470000Y-77905000D01*
X42750000Y-78060000D02*
X46200000Y-78060000D01*
X42750000Y-78060000D02*
X40800000Y-78060000D01*
X42750000Y-72940000D02*
X44700000Y-72940000D01*
X42750000Y-72940000D02*
X40800000Y-72940000D01*
X75261252Y-81735000D02*
X74738748Y-81735000D01*
X75261252Y-80265000D02*
X74738748Y-80265000D01*
X72477064Y-88235000D02*
X72022936Y-88235000D01*
X72477064Y-86765000D02*
X72022936Y-86765000D01*
X66235000Y-77522936D02*
X66235000Y-77977064D01*
X64765000Y-77522936D02*
X64765000Y-77977064D01*
X94438736Y-76404800D02*
X94892864Y-76404800D01*
X94438736Y-77874800D02*
X94892864Y-77874800D01*
X82729336Y-90549400D02*
X83183464Y-90549400D01*
X82729336Y-89079400D02*
X83183464Y-89079400D01*
X64175000Y-88280000D02*
X54405000Y-88280000D01*
X64175000Y-83210000D02*
X54405000Y-83210000D01*
X64175000Y-88280000D02*
X64175000Y-83210000D01*
X54405000Y-88280000D02*
X54405000Y-83210000D01*
X69000000Y-80940000D02*
X67050000Y-80940000D01*
X69000000Y-80940000D02*
X70950000Y-80940000D01*
X69000000Y-86060000D02*
X67050000Y-86060000D01*
X69000000Y-86060000D02*
X72450000Y-86060000D01*
X86140000Y-83250000D02*
X86140000Y-81940000D01*
X86140000Y-81940000D02*
X88860000Y-81940000D01*
X90000000Y-86430000D02*
X88860000Y-86430000D01*
X86140000Y-86660000D02*
X86140000Y-85350000D01*
X88860000Y-86660000D02*
X86140000Y-86660000D01*
X88860000Y-86660000D02*
X88860000Y-86430000D01*
X88860000Y-81940000D02*
X88860000Y-82170000D01*
X30015000Y-92522936D02*
X30015000Y-92977064D01*
X31485000Y-92522936D02*
X31485000Y-92977064D01*
X39985000Y-92522936D02*
X39985000Y-92977064D01*
X38515000Y-92522936D02*
X38515000Y-92977064D01*
X33765000Y-82977064D02*
X33765000Y-82522936D01*
X35235000Y-82977064D02*
X35235000Y-82522936D01*
X30015000Y-82522936D02*
X30015000Y-82977064D01*
X31485000Y-82522936D02*
X31485000Y-82977064D01*
X50265000Y-92522936D02*
X50265000Y-92977064D01*
X51735000Y-92522936D02*
X51735000Y-92977064D01*
X60235000Y-92522936D02*
X60235000Y-92977064D01*
X58765000Y-92522936D02*
X58765000Y-92977064D01*
X42485000Y-82977064D02*
X42485000Y-82522936D01*
X41015000Y-82977064D02*
X41015000Y-82522936D01*
X37515000Y-82522936D02*
X37515000Y-82977064D01*
X38985000Y-82522936D02*
X38985000Y-82977064D01*
X71985000Y-92522936D02*
X71985000Y-92977064D01*
X70515000Y-92522936D02*
X70515000Y-92977064D01*
X80485000Y-92522936D02*
X80485000Y-92977064D01*
X79015000Y-92522936D02*
X79015000Y-92977064D01*
X46235000Y-82522936D02*
X46235000Y-82977064D01*
X44765000Y-82522936D02*
X44765000Y-82977064D01*
X36735000Y-73272936D02*
X36735000Y-73727064D01*
X35265000Y-73272936D02*
X35265000Y-73727064D01*
X54985000Y-73272936D02*
X54985000Y-73727064D01*
X53515000Y-73272936D02*
X53515000Y-73727064D01*
X56522936Y-77985000D02*
X56977064Y-77985000D01*
X56522936Y-76515000D02*
X56977064Y-76515000D01*
X61022936Y-77985000D02*
X61477064Y-77985000D01*
X61022936Y-76515000D02*
X61477064Y-76515000D01*
X57015000Y-73272936D02*
X57015000Y-73727064D01*
X58485000Y-73272936D02*
X58485000Y-73727064D01*
X96640000Y-87990000D02*
X97750000Y-87990000D01*
X96640000Y-88750000D02*
X96640000Y-87990000D01*
X98313471Y-89510000D02*
X98860000Y-89510000D01*
X96640000Y-89510000D02*
X97186529Y-89510000D01*
X98860000Y-89510000D02*
X98860000Y-90715000D01*
X96640000Y-89510000D02*
X96640000Y-90715000D01*
X98057530Y-90715000D02*
X98860000Y-90715000D01*
X96640000Y-90715000D02*
X97442470Y-90715000D01*
X83330000Y-83490000D02*
X83330000Y-84950000D01*
X80170000Y-83490000D02*
X80170000Y-85650000D01*
X80170000Y-83490000D02*
X81100000Y-83490000D01*
X83330000Y-83490000D02*
X82400000Y-83490000D01*
X83330000Y-79490000D02*
X82400000Y-79490000D01*
X80170000Y-79490000D02*
X81100000Y-79490000D01*
X80170000Y-79490000D02*
X80170000Y-81650000D01*
X83330000Y-79490000D02*
X83330000Y-80950000D01*
X74515000Y-83772936D02*
X74515000Y-84227064D01*
X75985000Y-83772936D02*
X75985000Y-84227064D01*
X76515000Y-87522936D02*
X76515000Y-87977064D01*
X77985000Y-87522936D02*
X77985000Y-87977064D01*
X76272936Y-78015000D02*
X76727064Y-78015000D01*
X76272936Y-79485000D02*
X76727064Y-79485000D01*
X98156400Y-81711800D02*
G75*
G03*
X98156400Y-81711800I-2500000J0D01*
G01*
X97201400Y-79151800D02*
X94111400Y-79151800D01*
X95655938Y-84701800D02*
G75*
G03*
X97201230Y-79151800I462J2990000D01*
G01*
X95656862Y-84701800D02*
G75*
G02*
X94111570Y-79151800I-462J2990000D01*
G01*
X86401400Y-91532400D02*
X84751400Y-91532400D01*
X84751400Y-91532400D02*
X84751400Y-99272400D01*
X84751400Y-99272400D02*
X90051400Y-99272400D01*
X90051400Y-99272400D02*
X90051400Y-91532400D01*
X90051400Y-91532400D02*
X88401400Y-91532400D01*
X88401400Y-91532400D02*
G75*
G02*
X86401400Y-91532400I-1000000J0D01*
G01*
D14*
X8252380Y-53933333D02*
X8966666Y-53933333D01*
X9109523Y-53980952D01*
X9204761Y-54076190D01*
X9252380Y-54219047D01*
X9252380Y-54314285D01*
X8585714Y-53028571D02*
X9252380Y-53028571D01*
X8204761Y-53266666D02*
X8919047Y-53504761D01*
X8919047Y-52885714D01*
X5216666Y-79702380D02*
X5216666Y-80416666D01*
X5169047Y-80559523D01*
X5073809Y-80654761D01*
X4930952Y-80702380D01*
X4835714Y-80702380D01*
X5645238Y-79797619D02*
X5692857Y-79750000D01*
X5788095Y-79702380D01*
X6026190Y-79702380D01*
X6121428Y-79750000D01*
X6169047Y-79797619D01*
X6216666Y-79892857D01*
X6216666Y-79988095D01*
X6169047Y-80130952D01*
X5597619Y-80702380D01*
X6216666Y-80702380D01*
X87613095Y-61577380D02*
X87613095Y-62386904D01*
X87660714Y-62482142D01*
X87708333Y-62529761D01*
X87803571Y-62577380D01*
X87994047Y-62577380D01*
X88089285Y-62529761D01*
X88136904Y-62482142D01*
X88184523Y-62386904D01*
X88184523Y-61577380D01*
X89184523Y-62577380D02*
X88613095Y-62577380D01*
X88898809Y-62577380D02*
X88898809Y-61577380D01*
X88803571Y-61720238D01*
X88708333Y-61815476D01*
X88613095Y-61863095D01*
X24037142Y-71666666D02*
X24084761Y-71714285D01*
X24132380Y-71857142D01*
X24132380Y-71952380D01*
X24084761Y-72095238D01*
X23989523Y-72190476D01*
X23894285Y-72238095D01*
X23703809Y-72285714D01*
X23560952Y-72285714D01*
X23370476Y-72238095D01*
X23275238Y-72190476D01*
X23180000Y-72095238D01*
X23132380Y-71952380D01*
X23132380Y-71857142D01*
X23180000Y-71714285D01*
X23227619Y-71666666D01*
X23227619Y-71285714D02*
X23180000Y-71238095D01*
X23132380Y-71142857D01*
X23132380Y-70904761D01*
X23180000Y-70809523D01*
X23227619Y-70761904D01*
X23322857Y-70714285D01*
X23418095Y-70714285D01*
X23560952Y-70761904D01*
X24132380Y-71333333D01*
X24132380Y-70714285D01*
X28207142Y-72166666D02*
X28254761Y-72214285D01*
X28302380Y-72357142D01*
X28302380Y-72452380D01*
X28254761Y-72595238D01*
X28159523Y-72690476D01*
X28064285Y-72738095D01*
X27873809Y-72785714D01*
X27730952Y-72785714D01*
X27540476Y-72738095D01*
X27445238Y-72690476D01*
X27350000Y-72595238D01*
X27302380Y-72452380D01*
X27302380Y-72357142D01*
X27350000Y-72214285D01*
X27397619Y-72166666D01*
X27635714Y-71309523D02*
X28302380Y-71309523D01*
X27254761Y-71547619D02*
X27969047Y-71785714D01*
X27969047Y-71166666D01*
X90083333Y-73037142D02*
X90035714Y-73084761D01*
X89892857Y-73132380D01*
X89797619Y-73132380D01*
X89654761Y-73084761D01*
X89559523Y-72989523D01*
X89511904Y-72894285D01*
X89464285Y-72703809D01*
X89464285Y-72560952D01*
X89511904Y-72370476D01*
X89559523Y-72275238D01*
X89654761Y-72180000D01*
X89797619Y-72132380D01*
X89892857Y-72132380D01*
X90035714Y-72180000D01*
X90083333Y-72227619D01*
X91035714Y-73132380D02*
X90464285Y-73132380D01*
X90750000Y-73132380D02*
X90750000Y-72132380D01*
X90654761Y-72275238D01*
X90559523Y-72370476D01*
X90464285Y-72418095D01*
X32457142Y-72166666D02*
X32504761Y-72214285D01*
X32552380Y-72357142D01*
X32552380Y-72452380D01*
X32504761Y-72595238D01*
X32409523Y-72690476D01*
X32314285Y-72738095D01*
X32123809Y-72785714D01*
X31980952Y-72785714D01*
X31790476Y-72738095D01*
X31695238Y-72690476D01*
X31600000Y-72595238D01*
X31552380Y-72452380D01*
X31552380Y-72357142D01*
X31600000Y-72214285D01*
X31647619Y-72166666D01*
X31552380Y-71309523D02*
X31552380Y-71500000D01*
X31600000Y-71595238D01*
X31647619Y-71642857D01*
X31790476Y-71738095D01*
X31980952Y-71785714D01*
X32361904Y-71785714D01*
X32457142Y-71738095D01*
X32504761Y-71690476D01*
X32552380Y-71595238D01*
X32552380Y-71404761D01*
X32504761Y-71309523D01*
X32457142Y-71261904D01*
X32361904Y-71214285D01*
X32123809Y-71214285D01*
X32028571Y-71261904D01*
X31980952Y-71309523D01*
X31933333Y-71404761D01*
X31933333Y-71595238D01*
X31980952Y-71690476D01*
X32028571Y-71738095D01*
X32123809Y-71785714D01*
X89333333Y-77107142D02*
X89285714Y-77154761D01*
X89142857Y-77202380D01*
X89047619Y-77202380D01*
X88904761Y-77154761D01*
X88809523Y-77059523D01*
X88761904Y-76964285D01*
X88714285Y-76773809D01*
X88714285Y-76630952D01*
X88761904Y-76440476D01*
X88809523Y-76345238D01*
X88904761Y-76250000D01*
X89047619Y-76202380D01*
X89142857Y-76202380D01*
X89285714Y-76250000D01*
X89333333Y-76297619D01*
X89666666Y-76202380D02*
X90285714Y-76202380D01*
X89952380Y-76583333D01*
X90095238Y-76583333D01*
X90190476Y-76630952D01*
X90238095Y-76678571D01*
X90285714Y-76773809D01*
X90285714Y-77011904D01*
X90238095Y-77107142D01*
X90190476Y-77154761D01*
X90095238Y-77202380D01*
X89809523Y-77202380D01*
X89714285Y-77154761D01*
X89666666Y-77107142D01*
X89333333Y-81107142D02*
X89285714Y-81154761D01*
X89142857Y-81202380D01*
X89047619Y-81202380D01*
X88904761Y-81154761D01*
X88809523Y-81059523D01*
X88761904Y-80964285D01*
X88714285Y-80773809D01*
X88714285Y-80630952D01*
X88761904Y-80440476D01*
X88809523Y-80345238D01*
X88904761Y-80250000D01*
X89047619Y-80202380D01*
X89142857Y-80202380D01*
X89285714Y-80250000D01*
X89333333Y-80297619D01*
X90238095Y-80202380D02*
X89761904Y-80202380D01*
X89714285Y-80678571D01*
X89761904Y-80630952D01*
X89857142Y-80583333D01*
X90095238Y-80583333D01*
X90190476Y-80630952D01*
X90238095Y-80678571D01*
X90285714Y-80773809D01*
X90285714Y-81011904D01*
X90238095Y-81107142D01*
X90190476Y-81154761D01*
X90095238Y-81202380D01*
X89857142Y-81202380D01*
X89761904Y-81154761D01*
X89714285Y-81107142D01*
X47037142Y-50129166D02*
X47084761Y-50176785D01*
X47132380Y-50319642D01*
X47132380Y-50414880D01*
X47084761Y-50557738D01*
X46989523Y-50652976D01*
X46894285Y-50700595D01*
X46703809Y-50748214D01*
X46560952Y-50748214D01*
X46370476Y-50700595D01*
X46275238Y-50652976D01*
X46180000Y-50557738D01*
X46132380Y-50414880D01*
X46132380Y-50319642D01*
X46180000Y-50176785D01*
X46227619Y-50129166D01*
X46132380Y-49795833D02*
X46132380Y-49129166D01*
X47132380Y-49557738D01*
X25957142Y-46166666D02*
X26004761Y-46214285D01*
X26052380Y-46357142D01*
X26052380Y-46452380D01*
X26004761Y-46595238D01*
X25909523Y-46690476D01*
X25814285Y-46738095D01*
X25623809Y-46785714D01*
X25480952Y-46785714D01*
X25290476Y-46738095D01*
X25195238Y-46690476D01*
X25100000Y-46595238D01*
X25052380Y-46452380D01*
X25052380Y-46357142D01*
X25100000Y-46214285D01*
X25147619Y-46166666D01*
X25480952Y-45595238D02*
X25433333Y-45690476D01*
X25385714Y-45738095D01*
X25290476Y-45785714D01*
X25242857Y-45785714D01*
X25147619Y-45738095D01*
X25100000Y-45690476D01*
X25052380Y-45595238D01*
X25052380Y-45404761D01*
X25100000Y-45309523D01*
X25147619Y-45261904D01*
X25242857Y-45214285D01*
X25290476Y-45214285D01*
X25385714Y-45261904D01*
X25433333Y-45309523D01*
X25480952Y-45404761D01*
X25480952Y-45595238D01*
X25528571Y-45690476D01*
X25576190Y-45738095D01*
X25671428Y-45785714D01*
X25861904Y-45785714D01*
X25957142Y-45738095D01*
X26004761Y-45690476D01*
X26052380Y-45595238D01*
X26052380Y-45404761D01*
X26004761Y-45309523D01*
X25957142Y-45261904D01*
X25861904Y-45214285D01*
X25671428Y-45214285D01*
X25576190Y-45261904D01*
X25528571Y-45309523D01*
X25480952Y-45404761D01*
X48177142Y-74142857D02*
X48224761Y-74190476D01*
X48272380Y-74333333D01*
X48272380Y-74428571D01*
X48224761Y-74571428D01*
X48129523Y-74666666D01*
X48034285Y-74714285D01*
X47843809Y-74761904D01*
X47700952Y-74761904D01*
X47510476Y-74714285D01*
X47415238Y-74666666D01*
X47320000Y-74571428D01*
X47272380Y-74428571D01*
X47272380Y-74333333D01*
X47320000Y-74190476D01*
X47367619Y-74142857D01*
X48272380Y-73190476D02*
X48272380Y-73761904D01*
X48272380Y-73476190D02*
X47272380Y-73476190D01*
X47415238Y-73571428D01*
X47510476Y-73666666D01*
X47558095Y-73761904D01*
X48272380Y-72238095D02*
X48272380Y-72809523D01*
X48272380Y-72523809D02*
X47272380Y-72523809D01*
X47415238Y-72619047D01*
X47510476Y-72714285D01*
X47558095Y-72809523D01*
X30957142Y-46166666D02*
X31004761Y-46214285D01*
X31052380Y-46357142D01*
X31052380Y-46452380D01*
X31004761Y-46595238D01*
X30909523Y-46690476D01*
X30814285Y-46738095D01*
X30623809Y-46785714D01*
X30480952Y-46785714D01*
X30290476Y-46738095D01*
X30195238Y-46690476D01*
X30100000Y-46595238D01*
X30052380Y-46452380D01*
X30052380Y-46357142D01*
X30100000Y-46214285D01*
X30147619Y-46166666D01*
X31052380Y-45690476D02*
X31052380Y-45500000D01*
X31004761Y-45404761D01*
X30957142Y-45357142D01*
X30814285Y-45261904D01*
X30623809Y-45214285D01*
X30242857Y-45214285D01*
X30147619Y-45261904D01*
X30100000Y-45309523D01*
X30052380Y-45404761D01*
X30052380Y-45595238D01*
X30100000Y-45690476D01*
X30147619Y-45738095D01*
X30242857Y-45785714D01*
X30480952Y-45785714D01*
X30576190Y-45738095D01*
X30623809Y-45690476D01*
X30671428Y-45595238D01*
X30671428Y-45404761D01*
X30623809Y-45309523D01*
X30576190Y-45261904D01*
X30480952Y-45214285D01*
X62261904Y-80202380D02*
X62261904Y-79202380D01*
X62500000Y-79202380D01*
X62642857Y-79250000D01*
X62738095Y-79345238D01*
X62785714Y-79440476D01*
X62833333Y-79630952D01*
X62833333Y-79773809D01*
X62785714Y-79964285D01*
X62738095Y-80059523D01*
X62642857Y-80154761D01*
X62500000Y-80202380D01*
X62261904Y-80202380D01*
X63785714Y-80202380D02*
X63214285Y-80202380D01*
X63500000Y-80202380D02*
X63500000Y-79202380D01*
X63404761Y-79345238D01*
X63309523Y-79440476D01*
X63214285Y-79488095D01*
X15902380Y-89483333D02*
X16616666Y-89483333D01*
X16759523Y-89530952D01*
X16854761Y-89626190D01*
X16902380Y-89769047D01*
X16902380Y-89864285D01*
X16902380Y-88483333D02*
X16902380Y-89054761D01*
X16902380Y-88769047D02*
X15902380Y-88769047D01*
X16045238Y-88864285D01*
X16140476Y-88959523D01*
X16188095Y-89054761D01*
X8452380Y-93333333D02*
X9166666Y-93333333D01*
X9309523Y-93380952D01*
X9404761Y-93476190D01*
X9452380Y-93619047D01*
X9452380Y-93714285D01*
X8452380Y-92952380D02*
X8452380Y-92333333D01*
X8833333Y-92666666D01*
X8833333Y-92523809D01*
X8880952Y-92428571D01*
X8928571Y-92380952D01*
X9023809Y-92333333D01*
X9261904Y-92333333D01*
X9357142Y-92380952D01*
X9404761Y-92428571D01*
X9452380Y-92523809D01*
X9452380Y-92809523D01*
X9404761Y-92904761D01*
X9357142Y-92952380D01*
X20452380Y-54833333D02*
X21166666Y-54833333D01*
X21309523Y-54880952D01*
X21404761Y-54976190D01*
X21452380Y-55119047D01*
X21452380Y-55214285D01*
X20452380Y-53880952D02*
X20452380Y-54357142D01*
X20928571Y-54404761D01*
X20880952Y-54357142D01*
X20833333Y-54261904D01*
X20833333Y-54023809D01*
X20880952Y-53928571D01*
X20928571Y-53880952D01*
X21023809Y-53833333D01*
X21261904Y-53833333D01*
X21357142Y-53880952D01*
X21404761Y-53928571D01*
X21452380Y-54023809D01*
X21452380Y-54261904D01*
X21404761Y-54357142D01*
X21357142Y-54404761D01*
X64352419Y-73602838D02*
X64304800Y-73698076D01*
X64209561Y-73793314D01*
X64066704Y-73936171D01*
X64019085Y-74031409D01*
X64019085Y-74126647D01*
X64257180Y-74079028D02*
X64209561Y-74174266D01*
X64114323Y-74269504D01*
X63923847Y-74317123D01*
X63590514Y-74317123D01*
X63400038Y-74269504D01*
X63304800Y-74174266D01*
X63257180Y-74079028D01*
X63257180Y-73888552D01*
X63304800Y-73793314D01*
X63400038Y-73698076D01*
X63590514Y-73650457D01*
X63923847Y-73650457D01*
X64114323Y-73698076D01*
X64209561Y-73793314D01*
X64257180Y-73888552D01*
X64257180Y-74079028D01*
X63352419Y-73269504D02*
X63304800Y-73221885D01*
X63257180Y-73126647D01*
X63257180Y-72888552D01*
X63304800Y-72793314D01*
X63352419Y-72745695D01*
X63447657Y-72698076D01*
X63542895Y-72698076D01*
X63685752Y-72745695D01*
X64257180Y-73317123D01*
X64257180Y-72698076D01*
X85797619Y-73845238D02*
X85750000Y-73940476D01*
X85654761Y-74035714D01*
X85511904Y-74178571D01*
X85464285Y-74273809D01*
X85464285Y-74369047D01*
X85702380Y-74321428D02*
X85654761Y-74416666D01*
X85559523Y-74511904D01*
X85369047Y-74559523D01*
X85035714Y-74559523D01*
X84845238Y-74511904D01*
X84750000Y-74416666D01*
X84702380Y-74321428D01*
X84702380Y-74130952D01*
X84750000Y-74035714D01*
X84845238Y-73940476D01*
X85035714Y-73892857D01*
X85369047Y-73892857D01*
X85559523Y-73940476D01*
X85654761Y-74035714D01*
X85702380Y-74130952D01*
X85702380Y-74321428D01*
X85035714Y-73035714D02*
X85702380Y-73035714D01*
X84654761Y-73273809D02*
X85369047Y-73511904D01*
X85369047Y-72892857D01*
X74797619Y-73845238D02*
X74750000Y-73940476D01*
X74654761Y-74035714D01*
X74511904Y-74178571D01*
X74464285Y-74273809D01*
X74464285Y-74369047D01*
X74702380Y-74321428D02*
X74654761Y-74416666D01*
X74559523Y-74511904D01*
X74369047Y-74559523D01*
X74035714Y-74559523D01*
X73845238Y-74511904D01*
X73750000Y-74416666D01*
X73702380Y-74321428D01*
X73702380Y-74130952D01*
X73750000Y-74035714D01*
X73845238Y-73940476D01*
X74035714Y-73892857D01*
X74369047Y-73892857D01*
X74559523Y-73940476D01*
X74654761Y-74035714D01*
X74702380Y-74130952D01*
X74702380Y-74321428D01*
X73702380Y-72988095D02*
X73702380Y-73464285D01*
X74178571Y-73511904D01*
X74130952Y-73464285D01*
X74083333Y-73369047D01*
X74083333Y-73130952D01*
X74130952Y-73035714D01*
X74178571Y-72988095D01*
X74273809Y-72940476D01*
X74511904Y-72940476D01*
X74607142Y-72988095D01*
X74654761Y-73035714D01*
X74702380Y-73130952D01*
X74702380Y-73369047D01*
X74654761Y-73464285D01*
X74607142Y-73511904D01*
X80297619Y-73845238D02*
X80250000Y-73940476D01*
X80154761Y-74035714D01*
X80011904Y-74178571D01*
X79964285Y-74273809D01*
X79964285Y-74369047D01*
X80202380Y-74321428D02*
X80154761Y-74416666D01*
X80059523Y-74511904D01*
X79869047Y-74559523D01*
X79535714Y-74559523D01*
X79345238Y-74511904D01*
X79250000Y-74416666D01*
X79202380Y-74321428D01*
X79202380Y-74130952D01*
X79250000Y-74035714D01*
X79345238Y-73940476D01*
X79535714Y-73892857D01*
X79869047Y-73892857D01*
X80059523Y-73940476D01*
X80154761Y-74035714D01*
X80202380Y-74130952D01*
X80202380Y-74321428D01*
X79202380Y-73035714D02*
X79202380Y-73226190D01*
X79250000Y-73321428D01*
X79297619Y-73369047D01*
X79440476Y-73464285D01*
X79630952Y-73511904D01*
X80011904Y-73511904D01*
X80107142Y-73464285D01*
X80154761Y-73416666D01*
X80202380Y-73321428D01*
X80202380Y-73130952D01*
X80154761Y-73035714D01*
X80107142Y-72988095D01*
X80011904Y-72940476D01*
X79773809Y-72940476D01*
X79678571Y-72988095D01*
X79630952Y-73035714D01*
X79583333Y-73130952D01*
X79583333Y-73321428D01*
X79630952Y-73416666D01*
X79678571Y-73464285D01*
X79773809Y-73511904D01*
X69547619Y-73845238D02*
X69500000Y-73940476D01*
X69404761Y-74035714D01*
X69261904Y-74178571D01*
X69214285Y-74273809D01*
X69214285Y-74369047D01*
X69452380Y-74321428D02*
X69404761Y-74416666D01*
X69309523Y-74511904D01*
X69119047Y-74559523D01*
X68785714Y-74559523D01*
X68595238Y-74511904D01*
X68500000Y-74416666D01*
X68452380Y-74321428D01*
X68452380Y-74130952D01*
X68500000Y-74035714D01*
X68595238Y-73940476D01*
X68785714Y-73892857D01*
X69119047Y-73892857D01*
X69309523Y-73940476D01*
X69404761Y-74035714D01*
X69452380Y-74130952D01*
X69452380Y-74321428D01*
X68452380Y-73559523D02*
X68452380Y-72892857D01*
X69452380Y-73321428D01*
X47792380Y-83385238D02*
X47316190Y-83718571D01*
X47792380Y-83956666D02*
X46792380Y-83956666D01*
X46792380Y-83575714D01*
X46840000Y-83480476D01*
X46887619Y-83432857D01*
X46982857Y-83385238D01*
X47125714Y-83385238D01*
X47220952Y-83432857D01*
X47268571Y-83480476D01*
X47316190Y-83575714D01*
X47316190Y-83956666D01*
X46792380Y-83099523D02*
X47792380Y-82766190D01*
X46792380Y-82432857D01*
X46887619Y-82147142D02*
X46840000Y-82099523D01*
X46792380Y-82004285D01*
X46792380Y-81766190D01*
X46840000Y-81670952D01*
X46887619Y-81623333D01*
X46982857Y-81575714D01*
X47078095Y-81575714D01*
X47220952Y-81623333D01*
X47792380Y-82194761D01*
X47792380Y-81575714D01*
X41988095Y-78352380D02*
X41988095Y-79161904D01*
X42035714Y-79257142D01*
X42083333Y-79304761D01*
X42178571Y-79352380D01*
X42369047Y-79352380D01*
X42464285Y-79304761D01*
X42511904Y-79257142D01*
X42559523Y-79161904D01*
X42559523Y-78352380D01*
X42940476Y-78352380D02*
X43559523Y-78352380D01*
X43226190Y-78733333D01*
X43369047Y-78733333D01*
X43464285Y-78780952D01*
X43511904Y-78828571D01*
X43559523Y-78923809D01*
X43559523Y-79161904D01*
X43511904Y-79257142D01*
X43464285Y-79304761D01*
X43369047Y-79352380D01*
X43083333Y-79352380D01*
X42988095Y-79304761D01*
X42940476Y-79257142D01*
X71607142Y-79607142D02*
X71559523Y-79654761D01*
X71416666Y-79702380D01*
X71321428Y-79702380D01*
X71178571Y-79654761D01*
X71083333Y-79559523D01*
X71035714Y-79464285D01*
X70988095Y-79273809D01*
X70988095Y-79130952D01*
X71035714Y-78940476D01*
X71083333Y-78845238D01*
X71178571Y-78750000D01*
X71321428Y-78702380D01*
X71416666Y-78702380D01*
X71559523Y-78750000D01*
X71607142Y-78797619D01*
X72559523Y-79702380D02*
X71988095Y-79702380D01*
X72273809Y-79702380D02*
X72273809Y-78702380D01*
X72178571Y-78845238D01*
X72083333Y-78940476D01*
X71988095Y-78988095D01*
X73178571Y-78702380D02*
X73273809Y-78702380D01*
X73369047Y-78750000D01*
X73416666Y-78797619D01*
X73464285Y-78892857D01*
X73511904Y-79083333D01*
X73511904Y-79321428D01*
X73464285Y-79511904D01*
X73416666Y-79607142D01*
X73369047Y-79654761D01*
X73273809Y-79702380D01*
X73178571Y-79702380D01*
X73083333Y-79654761D01*
X73035714Y-79607142D01*
X72988095Y-79511904D01*
X72940476Y-79321428D01*
X72940476Y-79083333D01*
X72988095Y-78892857D01*
X73035714Y-78797619D01*
X73083333Y-78750000D01*
X73178571Y-78702380D01*
X72083333Y-89702380D02*
X71750000Y-89226190D01*
X71511904Y-89702380D02*
X71511904Y-88702380D01*
X71892857Y-88702380D01*
X71988095Y-88750000D01*
X72035714Y-88797619D01*
X72083333Y-88892857D01*
X72083333Y-89035714D01*
X72035714Y-89130952D01*
X71988095Y-89178571D01*
X71892857Y-89226190D01*
X71511904Y-89226190D01*
X72559523Y-89702380D02*
X72750000Y-89702380D01*
X72845238Y-89654761D01*
X72892857Y-89607142D01*
X72988095Y-89464285D01*
X73035714Y-89273809D01*
X73035714Y-88892857D01*
X72988095Y-88797619D01*
X72940476Y-88750000D01*
X72845238Y-88702380D01*
X72654761Y-88702380D01*
X72559523Y-88750000D01*
X72511904Y-88797619D01*
X72464285Y-88892857D01*
X72464285Y-89130952D01*
X72511904Y-89226190D01*
X72559523Y-89273809D01*
X72654761Y-89321428D01*
X72845238Y-89321428D01*
X72940476Y-89273809D01*
X72988095Y-89226190D01*
X73035714Y-89130952D01*
X67686180Y-78392857D02*
X67209990Y-78726190D01*
X67686180Y-78964285D02*
X66686180Y-78964285D01*
X66686180Y-78583333D01*
X66733800Y-78488095D01*
X66781419Y-78440476D01*
X66876657Y-78392857D01*
X67019514Y-78392857D01*
X67114752Y-78440476D01*
X67162371Y-78488095D01*
X67209990Y-78583333D01*
X67209990Y-78964285D01*
X67686180Y-77440476D02*
X67686180Y-78011904D01*
X67686180Y-77726190D02*
X66686180Y-77726190D01*
X66829038Y-77821428D01*
X66924276Y-77916666D01*
X66971895Y-78011904D01*
X66686180Y-77107142D02*
X66686180Y-76488095D01*
X67067133Y-76821428D01*
X67067133Y-76678571D01*
X67114752Y-76583333D01*
X67162371Y-76535714D01*
X67257609Y-76488095D01*
X67495704Y-76488095D01*
X67590942Y-76535714D01*
X67638561Y-76583333D01*
X67686180Y-76678571D01*
X67686180Y-76964285D01*
X67638561Y-77059523D01*
X67590942Y-77107142D01*
X94022942Y-75842180D02*
X93689609Y-75365990D01*
X93451514Y-75842180D02*
X93451514Y-74842180D01*
X93832466Y-74842180D01*
X93927704Y-74889800D01*
X93975323Y-74937419D01*
X94022942Y-75032657D01*
X94022942Y-75175514D01*
X93975323Y-75270752D01*
X93927704Y-75318371D01*
X93832466Y-75365990D01*
X93451514Y-75365990D01*
X94403895Y-74937419D02*
X94451514Y-74889800D01*
X94546752Y-74842180D01*
X94784847Y-74842180D01*
X94880085Y-74889800D01*
X94927704Y-74937419D01*
X94975323Y-75032657D01*
X94975323Y-75127895D01*
X94927704Y-75270752D01*
X94356276Y-75842180D01*
X94975323Y-75842180D01*
X95356276Y-74937419D02*
X95403895Y-74889800D01*
X95499133Y-74842180D01*
X95737228Y-74842180D01*
X95832466Y-74889800D01*
X95880085Y-74937419D01*
X95927704Y-75032657D01*
X95927704Y-75127895D01*
X95880085Y-75270752D01*
X95308657Y-75842180D01*
X95927704Y-75842180D01*
X82313542Y-88616780D02*
X81980209Y-88140590D01*
X81742114Y-88616780D02*
X81742114Y-87616780D01*
X82123066Y-87616780D01*
X82218304Y-87664400D01*
X82265923Y-87712019D01*
X82313542Y-87807257D01*
X82313542Y-87950114D01*
X82265923Y-88045352D01*
X82218304Y-88092971D01*
X82123066Y-88140590D01*
X81742114Y-88140590D01*
X82694495Y-87712019D02*
X82742114Y-87664400D01*
X82837352Y-87616780D01*
X83075447Y-87616780D01*
X83170685Y-87664400D01*
X83218304Y-87712019D01*
X83265923Y-87807257D01*
X83265923Y-87902495D01*
X83218304Y-88045352D01*
X82646876Y-88616780D01*
X83265923Y-88616780D01*
X83599257Y-87616780D02*
X84218304Y-87616780D01*
X83884971Y-87997733D01*
X84027828Y-87997733D01*
X84123066Y-88045352D01*
X84170685Y-88092971D01*
X84218304Y-88188209D01*
X84218304Y-88426304D01*
X84170685Y-88521542D01*
X84123066Y-88569161D01*
X84027828Y-88616780D01*
X83742114Y-88616780D01*
X83646876Y-88569161D01*
X83599257Y-88521542D01*
X55004761Y-89852380D02*
X54671428Y-89376190D01*
X54433333Y-89852380D02*
X54433333Y-88852380D01*
X54814285Y-88852380D01*
X54909523Y-88900000D01*
X54957142Y-88947619D01*
X55004761Y-89042857D01*
X55004761Y-89185714D01*
X54957142Y-89280952D01*
X54909523Y-89328571D01*
X54814285Y-89376190D01*
X54433333Y-89376190D01*
X55290476Y-88852380D02*
X55623809Y-89852380D01*
X55957142Y-88852380D01*
X56814285Y-89852380D02*
X56242857Y-89852380D01*
X56528571Y-89852380D02*
X56528571Y-88852380D01*
X56433333Y-88995238D01*
X56338095Y-89090476D01*
X56242857Y-89138095D01*
X68238095Y-86352380D02*
X68238095Y-87161904D01*
X68285714Y-87257142D01*
X68333333Y-87304761D01*
X68428571Y-87352380D01*
X68619047Y-87352380D01*
X68714285Y-87304761D01*
X68761904Y-87257142D01*
X68809523Y-87161904D01*
X68809523Y-86352380D01*
X69238095Y-86447619D02*
X69285714Y-86400000D01*
X69380952Y-86352380D01*
X69619047Y-86352380D01*
X69714285Y-86400000D01*
X69761904Y-86447619D01*
X69809523Y-86542857D01*
X69809523Y-86638095D01*
X69761904Y-86780952D01*
X69190476Y-87352380D01*
X69809523Y-87352380D01*
X86738095Y-87252380D02*
X86738095Y-88061904D01*
X86785714Y-88157142D01*
X86833333Y-88204761D01*
X86928571Y-88252380D01*
X87119047Y-88252380D01*
X87214285Y-88204761D01*
X87261904Y-88157142D01*
X87309523Y-88061904D01*
X87309523Y-87252380D01*
X88214285Y-87585714D02*
X88214285Y-88252380D01*
X87976190Y-87204761D02*
X87738095Y-87919047D01*
X88357142Y-87919047D01*
X32852380Y-92916666D02*
X32376190Y-93250000D01*
X32852380Y-93488095D02*
X31852380Y-93488095D01*
X31852380Y-93107142D01*
X31900000Y-93011904D01*
X31947619Y-92964285D01*
X32042857Y-92916666D01*
X32185714Y-92916666D01*
X32280952Y-92964285D01*
X32328571Y-93011904D01*
X32376190Y-93107142D01*
X32376190Y-93488095D01*
X32852380Y-91964285D02*
X32852380Y-92535714D01*
X32852380Y-92250000D02*
X31852380Y-92250000D01*
X31995238Y-92345238D01*
X32090476Y-92440476D01*
X32138095Y-92535714D01*
X41352380Y-92916666D02*
X40876190Y-93250000D01*
X41352380Y-93488095D02*
X40352380Y-93488095D01*
X40352380Y-93107142D01*
X40400000Y-93011904D01*
X40447619Y-92964285D01*
X40542857Y-92916666D01*
X40685714Y-92916666D01*
X40780952Y-92964285D01*
X40828571Y-93011904D01*
X40876190Y-93107142D01*
X40876190Y-93488095D01*
X40447619Y-92535714D02*
X40400000Y-92488095D01*
X40352380Y-92392857D01*
X40352380Y-92154761D01*
X40400000Y-92059523D01*
X40447619Y-92011904D01*
X40542857Y-91964285D01*
X40638095Y-91964285D01*
X40780952Y-92011904D01*
X41352380Y-92583333D01*
X41352380Y-91964285D01*
X33302380Y-82916666D02*
X32826190Y-83250000D01*
X33302380Y-83488095D02*
X32302380Y-83488095D01*
X32302380Y-83107142D01*
X32350000Y-83011904D01*
X32397619Y-82964285D01*
X32492857Y-82916666D01*
X32635714Y-82916666D01*
X32730952Y-82964285D01*
X32778571Y-83011904D01*
X32826190Y-83107142D01*
X32826190Y-83488095D01*
X32302380Y-82583333D02*
X32302380Y-81964285D01*
X32683333Y-82297619D01*
X32683333Y-82154761D01*
X32730952Y-82059523D01*
X32778571Y-82011904D01*
X32873809Y-81964285D01*
X33111904Y-81964285D01*
X33207142Y-82011904D01*
X33254761Y-82059523D01*
X33302380Y-82154761D01*
X33302380Y-82440476D01*
X33254761Y-82535714D01*
X33207142Y-82583333D01*
X29452380Y-82916666D02*
X28976190Y-83250000D01*
X29452380Y-83488095D02*
X28452380Y-83488095D01*
X28452380Y-83107142D01*
X28500000Y-83011904D01*
X28547619Y-82964285D01*
X28642857Y-82916666D01*
X28785714Y-82916666D01*
X28880952Y-82964285D01*
X28928571Y-83011904D01*
X28976190Y-83107142D01*
X28976190Y-83488095D01*
X28785714Y-82059523D02*
X29452380Y-82059523D01*
X28404761Y-82297619D02*
X29119047Y-82535714D01*
X29119047Y-81916666D01*
X53102380Y-92916666D02*
X52626190Y-93250000D01*
X53102380Y-93488095D02*
X52102380Y-93488095D01*
X52102380Y-93107142D01*
X52150000Y-93011904D01*
X52197619Y-92964285D01*
X52292857Y-92916666D01*
X52435714Y-92916666D01*
X52530952Y-92964285D01*
X52578571Y-93011904D01*
X52626190Y-93107142D01*
X52626190Y-93488095D01*
X52102380Y-92011904D02*
X52102380Y-92488095D01*
X52578571Y-92535714D01*
X52530952Y-92488095D01*
X52483333Y-92392857D01*
X52483333Y-92154761D01*
X52530952Y-92059523D01*
X52578571Y-92011904D01*
X52673809Y-91964285D01*
X52911904Y-91964285D01*
X53007142Y-92011904D01*
X53054761Y-92059523D01*
X53102380Y-92154761D01*
X53102380Y-92392857D01*
X53054761Y-92488095D01*
X53007142Y-92535714D01*
X59333333Y-90452380D02*
X59000000Y-89976190D01*
X58761904Y-90452380D02*
X58761904Y-89452380D01*
X59142857Y-89452380D01*
X59238095Y-89500000D01*
X59285714Y-89547619D01*
X59333333Y-89642857D01*
X59333333Y-89785714D01*
X59285714Y-89880952D01*
X59238095Y-89928571D01*
X59142857Y-89976190D01*
X58761904Y-89976190D01*
X60190476Y-89452380D02*
X60000000Y-89452380D01*
X59904761Y-89500000D01*
X59857142Y-89547619D01*
X59761904Y-89690476D01*
X59714285Y-89880952D01*
X59714285Y-90261904D01*
X59761904Y-90357142D01*
X59809523Y-90404761D01*
X59904761Y-90452380D01*
X60095238Y-90452380D01*
X60190476Y-90404761D01*
X60238095Y-90357142D01*
X60285714Y-90261904D01*
X60285714Y-90023809D01*
X60238095Y-89928571D01*
X60190476Y-89880952D01*
X60095238Y-89833333D01*
X59904761Y-89833333D01*
X59809523Y-89880952D01*
X59761904Y-89928571D01*
X59714285Y-90023809D01*
X40552380Y-82916666D02*
X40076190Y-83250000D01*
X40552380Y-83488095D02*
X39552380Y-83488095D01*
X39552380Y-83107142D01*
X39600000Y-83011904D01*
X39647619Y-82964285D01*
X39742857Y-82916666D01*
X39885714Y-82916666D01*
X39980952Y-82964285D01*
X40028571Y-83011904D01*
X40076190Y-83107142D01*
X40076190Y-83488095D01*
X39552380Y-82583333D02*
X39552380Y-81916666D01*
X40552380Y-82345238D01*
X36952380Y-82916666D02*
X36476190Y-83250000D01*
X36952380Y-83488095D02*
X35952380Y-83488095D01*
X35952380Y-83107142D01*
X36000000Y-83011904D01*
X36047619Y-82964285D01*
X36142857Y-82916666D01*
X36285714Y-82916666D01*
X36380952Y-82964285D01*
X36428571Y-83011904D01*
X36476190Y-83107142D01*
X36476190Y-83488095D01*
X36380952Y-82345238D02*
X36333333Y-82440476D01*
X36285714Y-82488095D01*
X36190476Y-82535714D01*
X36142857Y-82535714D01*
X36047619Y-82488095D01*
X36000000Y-82440476D01*
X35952380Y-82345238D01*
X35952380Y-82154761D01*
X36000000Y-82059523D01*
X36047619Y-82011904D01*
X36142857Y-81964285D01*
X36190476Y-81964285D01*
X36285714Y-82011904D01*
X36333333Y-82059523D01*
X36380952Y-82154761D01*
X36380952Y-82345238D01*
X36428571Y-82440476D01*
X36476190Y-82488095D01*
X36571428Y-82535714D01*
X36761904Y-82535714D01*
X36857142Y-82488095D01*
X36904761Y-82440476D01*
X36952380Y-82345238D01*
X36952380Y-82154761D01*
X36904761Y-82059523D01*
X36857142Y-82011904D01*
X36761904Y-81964285D01*
X36571428Y-81964285D01*
X36476190Y-82011904D01*
X36428571Y-82059523D01*
X36380952Y-82154761D01*
X73057142Y-91952380D02*
X72723809Y-91476190D01*
X72485714Y-91952380D02*
X72485714Y-90952380D01*
X72866666Y-90952380D01*
X72961904Y-91000000D01*
X73009523Y-91047619D01*
X73057142Y-91142857D01*
X73057142Y-91285714D01*
X73009523Y-91380952D01*
X72961904Y-91428571D01*
X72866666Y-91476190D01*
X72485714Y-91476190D01*
X74009523Y-91952380D02*
X73438095Y-91952380D01*
X73723809Y-91952380D02*
X73723809Y-90952380D01*
X73628571Y-91095238D01*
X73533333Y-91190476D01*
X73438095Y-91238095D01*
X74628571Y-90952380D02*
X74723809Y-90952380D01*
X74819047Y-91000000D01*
X74866666Y-91047619D01*
X74914285Y-91142857D01*
X74961904Y-91333333D01*
X74961904Y-91571428D01*
X74914285Y-91761904D01*
X74866666Y-91857142D01*
X74819047Y-91904761D01*
X74723809Y-91952380D01*
X74628571Y-91952380D01*
X74533333Y-91904761D01*
X74485714Y-91857142D01*
X74438095Y-91761904D01*
X74390476Y-91571428D01*
X74390476Y-91333333D01*
X74438095Y-91142857D01*
X74485714Y-91047619D01*
X74533333Y-91000000D01*
X74628571Y-90952380D01*
X81952380Y-93392857D02*
X81476190Y-93726190D01*
X81952380Y-93964285D02*
X80952380Y-93964285D01*
X80952380Y-93583333D01*
X81000000Y-93488095D01*
X81047619Y-93440476D01*
X81142857Y-93392857D01*
X81285714Y-93392857D01*
X81380952Y-93440476D01*
X81428571Y-93488095D01*
X81476190Y-93583333D01*
X81476190Y-93964285D01*
X81952380Y-92440476D02*
X81952380Y-93011904D01*
X81952380Y-92726190D02*
X80952380Y-92726190D01*
X81095238Y-92821428D01*
X81190476Y-92916666D01*
X81238095Y-93011904D01*
X81952380Y-91488095D02*
X81952380Y-92059523D01*
X81952380Y-91773809D02*
X80952380Y-91773809D01*
X81095238Y-91869047D01*
X81190476Y-91964285D01*
X81238095Y-92059523D01*
X44202380Y-83392857D02*
X43726190Y-83726190D01*
X44202380Y-83964285D02*
X43202380Y-83964285D01*
X43202380Y-83583333D01*
X43250000Y-83488095D01*
X43297619Y-83440476D01*
X43392857Y-83392857D01*
X43535714Y-83392857D01*
X43630952Y-83440476D01*
X43678571Y-83488095D01*
X43726190Y-83583333D01*
X43726190Y-83964285D01*
X44202380Y-82440476D02*
X44202380Y-83011904D01*
X44202380Y-82726190D02*
X43202380Y-82726190D01*
X43345238Y-82821428D01*
X43440476Y-82916666D01*
X43488095Y-83011904D01*
X43297619Y-82059523D02*
X43250000Y-82011904D01*
X43202380Y-81916666D01*
X43202380Y-81678571D01*
X43250000Y-81583333D01*
X43297619Y-81535714D01*
X43392857Y-81488095D01*
X43488095Y-81488095D01*
X43630952Y-81535714D01*
X44202380Y-82107142D01*
X44202380Y-81488095D01*
X38102380Y-74142857D02*
X37626190Y-74476190D01*
X38102380Y-74714285D02*
X37102380Y-74714285D01*
X37102380Y-74333333D01*
X37150000Y-74238095D01*
X37197619Y-74190476D01*
X37292857Y-74142857D01*
X37435714Y-74142857D01*
X37530952Y-74190476D01*
X37578571Y-74238095D01*
X37626190Y-74333333D01*
X37626190Y-74714285D01*
X38102380Y-73190476D02*
X38102380Y-73761904D01*
X38102380Y-73476190D02*
X37102380Y-73476190D01*
X37245238Y-73571428D01*
X37340476Y-73666666D01*
X37388095Y-73761904D01*
X37435714Y-72333333D02*
X38102380Y-72333333D01*
X37054761Y-72571428D02*
X37769047Y-72809523D01*
X37769047Y-72190476D01*
X53030380Y-74150457D02*
X52554190Y-74483790D01*
X53030380Y-74721885D02*
X52030380Y-74721885D01*
X52030380Y-74340933D01*
X52078000Y-74245695D01*
X52125619Y-74198076D01*
X52220857Y-74150457D01*
X52363714Y-74150457D01*
X52458952Y-74198076D01*
X52506571Y-74245695D01*
X52554190Y-74340933D01*
X52554190Y-74721885D01*
X53030380Y-73198076D02*
X53030380Y-73769504D01*
X53030380Y-73483790D02*
X52030380Y-73483790D01*
X52173238Y-73579028D01*
X52268476Y-73674266D01*
X52316095Y-73769504D01*
X52030380Y-72293314D02*
X52030380Y-72769504D01*
X52506571Y-72817123D01*
X52458952Y-72769504D01*
X52411333Y-72674266D01*
X52411333Y-72436171D01*
X52458952Y-72340933D01*
X52506571Y-72293314D01*
X52601809Y-72245695D01*
X52839904Y-72245695D01*
X52935142Y-72293314D01*
X52982761Y-72340933D01*
X53030380Y-72436171D01*
X53030380Y-72674266D01*
X52982761Y-72769504D01*
X52935142Y-72817123D01*
X52773342Y-77312780D02*
X52440009Y-76836590D01*
X52201914Y-77312780D02*
X52201914Y-76312780D01*
X52582866Y-76312780D01*
X52678104Y-76360400D01*
X52725723Y-76408019D01*
X52773342Y-76503257D01*
X52773342Y-76646114D01*
X52725723Y-76741352D01*
X52678104Y-76788971D01*
X52582866Y-76836590D01*
X52201914Y-76836590D01*
X53725723Y-77312780D02*
X53154295Y-77312780D01*
X53440009Y-77312780D02*
X53440009Y-76312780D01*
X53344771Y-76455638D01*
X53249533Y-76550876D01*
X53154295Y-76598495D01*
X54297152Y-76741352D02*
X54201914Y-76693733D01*
X54154295Y-76646114D01*
X54106676Y-76550876D01*
X54106676Y-76503257D01*
X54154295Y-76408019D01*
X54201914Y-76360400D01*
X54297152Y-76312780D01*
X54487628Y-76312780D01*
X54582866Y-76360400D01*
X54630485Y-76408019D01*
X54678104Y-76503257D01*
X54678104Y-76550876D01*
X54630485Y-76646114D01*
X54582866Y-76693733D01*
X54487628Y-76741352D01*
X54297152Y-76741352D01*
X54201914Y-76788971D01*
X54154295Y-76836590D01*
X54106676Y-76931828D01*
X54106676Y-77122304D01*
X54154295Y-77217542D01*
X54201914Y-77265161D01*
X54297152Y-77312780D01*
X54487628Y-77312780D01*
X54582866Y-77265161D01*
X54630485Y-77217542D01*
X54678104Y-77122304D01*
X54678104Y-76931828D01*
X54630485Y-76836590D01*
X54582866Y-76788971D01*
X54487628Y-76741352D01*
X64257180Y-77833457D02*
X63780990Y-78166790D01*
X64257180Y-78404885D02*
X63257180Y-78404885D01*
X63257180Y-78023933D01*
X63304800Y-77928695D01*
X63352419Y-77881076D01*
X63447657Y-77833457D01*
X63590514Y-77833457D01*
X63685752Y-77881076D01*
X63733371Y-77928695D01*
X63780990Y-78023933D01*
X63780990Y-78404885D01*
X64257180Y-76881076D02*
X64257180Y-77452504D01*
X64257180Y-77166790D02*
X63257180Y-77166790D01*
X63400038Y-77262028D01*
X63495276Y-77357266D01*
X63542895Y-77452504D01*
X64257180Y-76404885D02*
X64257180Y-76214409D01*
X64209561Y-76119171D01*
X64161942Y-76071552D01*
X64019085Y-75976314D01*
X63828609Y-75928695D01*
X63447657Y-75928695D01*
X63352419Y-75976314D01*
X63304800Y-76023933D01*
X63257180Y-76119171D01*
X63257180Y-76309647D01*
X63304800Y-76404885D01*
X63352419Y-76452504D01*
X63447657Y-76500123D01*
X63685752Y-76500123D01*
X63780990Y-76452504D01*
X63828609Y-76404885D01*
X63876228Y-76309647D01*
X63876228Y-76119171D01*
X63828609Y-76023933D01*
X63780990Y-75976314D01*
X63685752Y-75928695D01*
X56510180Y-74175857D02*
X56033990Y-74509190D01*
X56510180Y-74747285D02*
X55510180Y-74747285D01*
X55510180Y-74366333D01*
X55557800Y-74271095D01*
X55605419Y-74223476D01*
X55700657Y-74175857D01*
X55843514Y-74175857D01*
X55938752Y-74223476D01*
X55986371Y-74271095D01*
X56033990Y-74366333D01*
X56033990Y-74747285D01*
X55605419Y-73794904D02*
X55557800Y-73747285D01*
X55510180Y-73652047D01*
X55510180Y-73413952D01*
X55557800Y-73318714D01*
X55605419Y-73271095D01*
X55700657Y-73223476D01*
X55795895Y-73223476D01*
X55938752Y-73271095D01*
X56510180Y-73842523D01*
X56510180Y-73223476D01*
X56510180Y-72271095D02*
X56510180Y-72842523D01*
X56510180Y-72556809D02*
X55510180Y-72556809D01*
X55653038Y-72652047D01*
X55748276Y-72747285D01*
X55795895Y-72842523D01*
X97416666Y-86507380D02*
X97416666Y-87221666D01*
X97369047Y-87364523D01*
X97273809Y-87459761D01*
X97130952Y-87507380D01*
X97035714Y-87507380D01*
X98321428Y-86507380D02*
X98130952Y-86507380D01*
X98035714Y-86555000D01*
X97988095Y-86602619D01*
X97892857Y-86745476D01*
X97845238Y-86935952D01*
X97845238Y-87316904D01*
X97892857Y-87412142D01*
X97940476Y-87459761D01*
X98035714Y-87507380D01*
X98226190Y-87507380D01*
X98321428Y-87459761D01*
X98369047Y-87412142D01*
X98416666Y-87316904D01*
X98416666Y-87078809D01*
X98369047Y-86983571D01*
X98321428Y-86935952D01*
X98226190Y-86888333D01*
X98035714Y-86888333D01*
X97940476Y-86935952D01*
X97892857Y-86983571D01*
X97845238Y-87078809D01*
X79797619Y-84345238D02*
X79750000Y-84440476D01*
X79654761Y-84535714D01*
X79511904Y-84678571D01*
X79464285Y-84773809D01*
X79464285Y-84869047D01*
X79702380Y-84821428D02*
X79654761Y-84916666D01*
X79559523Y-85011904D01*
X79369047Y-85059523D01*
X79035714Y-85059523D01*
X78845238Y-85011904D01*
X78750000Y-84916666D01*
X78702380Y-84821428D01*
X78702380Y-84630952D01*
X78750000Y-84535714D01*
X78845238Y-84440476D01*
X79035714Y-84392857D01*
X79369047Y-84392857D01*
X79559523Y-84440476D01*
X79654761Y-84535714D01*
X79702380Y-84630952D01*
X79702380Y-84821428D01*
X79702380Y-83440476D02*
X79702380Y-84011904D01*
X79702380Y-83726190D02*
X78702380Y-83726190D01*
X78845238Y-83821428D01*
X78940476Y-83916666D01*
X78988095Y-84011904D01*
X79797619Y-79345238D02*
X79750000Y-79440476D01*
X79654761Y-79535714D01*
X79511904Y-79678571D01*
X79464285Y-79773809D01*
X79464285Y-79869047D01*
X79702380Y-79821428D02*
X79654761Y-79916666D01*
X79559523Y-80011904D01*
X79369047Y-80059523D01*
X79035714Y-80059523D01*
X78845238Y-80011904D01*
X78750000Y-79916666D01*
X78702380Y-79821428D01*
X78702380Y-79630952D01*
X78750000Y-79535714D01*
X78845238Y-79440476D01*
X79035714Y-79392857D01*
X79369047Y-79392857D01*
X79559523Y-79440476D01*
X79654761Y-79535714D01*
X79702380Y-79630952D01*
X79702380Y-79821428D01*
X78702380Y-79059523D02*
X78702380Y-78440476D01*
X79083333Y-78773809D01*
X79083333Y-78630952D01*
X79130952Y-78535714D01*
X79178571Y-78488095D01*
X79273809Y-78440476D01*
X79511904Y-78440476D01*
X79607142Y-78488095D01*
X79654761Y-78535714D01*
X79702380Y-78630952D01*
X79702380Y-78916666D01*
X79654761Y-79011904D01*
X79607142Y-79059523D01*
X77352380Y-84642857D02*
X76876190Y-84976190D01*
X77352380Y-85214285D02*
X76352380Y-85214285D01*
X76352380Y-84833333D01*
X76400000Y-84738095D01*
X76447619Y-84690476D01*
X76542857Y-84642857D01*
X76685714Y-84642857D01*
X76780952Y-84690476D01*
X76828571Y-84738095D01*
X76876190Y-84833333D01*
X76876190Y-85214285D01*
X77352380Y-83690476D02*
X77352380Y-84261904D01*
X77352380Y-83976190D02*
X76352380Y-83976190D01*
X76495238Y-84071428D01*
X76590476Y-84166666D01*
X76638095Y-84261904D01*
X76352380Y-82833333D02*
X76352380Y-83023809D01*
X76400000Y-83119047D01*
X76447619Y-83166666D01*
X76590476Y-83261904D01*
X76780952Y-83309523D01*
X77161904Y-83309523D01*
X77257142Y-83261904D01*
X77304761Y-83214285D01*
X77352380Y-83119047D01*
X77352380Y-82928571D01*
X77304761Y-82833333D01*
X77257142Y-82785714D01*
X77161904Y-82738095D01*
X76923809Y-82738095D01*
X76828571Y-82785714D01*
X76780952Y-82833333D01*
X76733333Y-82928571D01*
X76733333Y-83119047D01*
X76780952Y-83214285D01*
X76828571Y-83261904D01*
X76923809Y-83309523D01*
X79352380Y-88392857D02*
X78876190Y-88726190D01*
X79352380Y-88964285D02*
X78352380Y-88964285D01*
X78352380Y-88583333D01*
X78400000Y-88488095D01*
X78447619Y-88440476D01*
X78542857Y-88392857D01*
X78685714Y-88392857D01*
X78780952Y-88440476D01*
X78828571Y-88488095D01*
X78876190Y-88583333D01*
X78876190Y-88964285D01*
X79352380Y-87440476D02*
X79352380Y-88011904D01*
X79352380Y-87726190D02*
X78352380Y-87726190D01*
X78495238Y-87821428D01*
X78590476Y-87916666D01*
X78638095Y-88011904D01*
X78352380Y-87107142D02*
X78352380Y-86440476D01*
X79352380Y-86869047D01*
X75857142Y-77552380D02*
X75523809Y-77076190D01*
X75285714Y-77552380D02*
X75285714Y-76552380D01*
X75666666Y-76552380D01*
X75761904Y-76600000D01*
X75809523Y-76647619D01*
X75857142Y-76742857D01*
X75857142Y-76885714D01*
X75809523Y-76980952D01*
X75761904Y-77028571D01*
X75666666Y-77076190D01*
X75285714Y-77076190D01*
X76238095Y-76647619D02*
X76285714Y-76600000D01*
X76380952Y-76552380D01*
X76619047Y-76552380D01*
X76714285Y-76600000D01*
X76761904Y-76647619D01*
X76809523Y-76742857D01*
X76809523Y-76838095D01*
X76761904Y-76980952D01*
X76190476Y-77552380D01*
X76809523Y-77552380D01*
X77428571Y-76552380D02*
X77523809Y-76552380D01*
X77619047Y-76600000D01*
X77666666Y-76647619D01*
X77714285Y-76742857D01*
X77761904Y-76933333D01*
X77761904Y-77171428D01*
X77714285Y-77361904D01*
X77666666Y-77457142D01*
X77619047Y-77504761D01*
X77523809Y-77552380D01*
X77428571Y-77552380D01*
X77333333Y-77504761D01*
X77285714Y-77457142D01*
X77238095Y-77361904D01*
X77190476Y-77171428D01*
X77190476Y-76933333D01*
X77238095Y-76742857D01*
X77285714Y-76647619D01*
X77333333Y-76600000D01*
X77428571Y-76552380D01*
X92294342Y-86069466D02*
X92770533Y-86069466D01*
X92199104Y-86355180D02*
X92532438Y-85355180D01*
X92865771Y-86355180D01*
X93675295Y-86355180D02*
X93199104Y-86355180D01*
X93199104Y-85355180D01*
X93961009Y-86069466D02*
X94437200Y-86069466D01*
X93865771Y-86355180D02*
X94199104Y-85355180D01*
X94532438Y-86355180D01*
X95437200Y-86355180D02*
X95103866Y-85878990D01*
X94865771Y-86355180D02*
X94865771Y-85355180D01*
X95246723Y-85355180D01*
X95341961Y-85402800D01*
X95389580Y-85450419D01*
X95437200Y-85545657D01*
X95437200Y-85688514D01*
X95389580Y-85783752D01*
X95341961Y-85831371D01*
X95246723Y-85878990D01*
X94865771Y-85878990D01*
X95865771Y-86355180D02*
X95865771Y-85355180D01*
X96199104Y-86069466D01*
X96532438Y-85355180D01*
X96532438Y-86355180D01*
X86639495Y-89984780D02*
X86639495Y-90794304D01*
X86687114Y-90889542D01*
X86734733Y-90937161D01*
X86829971Y-90984780D01*
X87020447Y-90984780D01*
X87115685Y-90937161D01*
X87163304Y-90889542D01*
X87210923Y-90794304D01*
X87210923Y-89984780D01*
X88163304Y-89984780D02*
X87687114Y-89984780D01*
X87639495Y-90460971D01*
X87687114Y-90413352D01*
X87782352Y-90365733D01*
X88020447Y-90365733D01*
X88115685Y-90413352D01*
X88163304Y-90460971D01*
X88210923Y-90556209D01*
X88210923Y-90794304D01*
X88163304Y-90889542D01*
X88115685Y-90937161D01*
X88020447Y-90984780D01*
X87782352Y-90984780D01*
X87687114Y-90937161D01*
X87639495Y-90889542D01*
%LPC*%
D15*
X4000000Y-51080000D03*
X4000000Y-56160000D03*
D16*
X4000000Y-46000000D03*
D15*
X4000000Y-61240000D03*
D17*
X14000000Y-74500000D03*
G36*
G01*
X6500000Y-75500000D02*
X6500000Y-73500000D01*
G75*
G02*
X7250000Y-72750000I750000J0D01*
G01*
X8750000Y-72750000D01*
G75*
G02*
X9500000Y-73500000I0J-750000D01*
G01*
X9500000Y-75500000D01*
G75*
G02*
X8750000Y-76250000I-750000J0D01*
G01*
X7250000Y-76250000D01*
G75*
G02*
X6500000Y-75500000I0J750000D01*
G01*
G37*
G36*
G01*
X9250000Y-80075000D02*
X9250000Y-78325000D01*
G75*
G02*
X10125000Y-77450000I875000J0D01*
G01*
X11875000Y-77450000D01*
G75*
G02*
X12750000Y-78325000I0J-875000D01*
G01*
X12750000Y-80075000D01*
G75*
G02*
X11875000Y-80950000I-875000J0D01*
G01*
X10125000Y-80950000D01*
G75*
G02*
X9250000Y-80075000I0J875000D01*
G01*
G37*
D18*
X75200000Y-64000000D03*
X77800000Y-64000000D03*
D19*
X91325800Y-65151600D03*
X91325800Y-47981200D03*
X51854200Y-47981200D03*
X51854200Y-65126200D03*
D18*
X80300000Y-64000000D03*
G36*
G01*
X21525000Y-69875000D02*
X22475000Y-69875000D01*
G75*
G02*
X22725000Y-70125000I0J-250000D01*
G01*
X22725000Y-70800000D01*
G75*
G02*
X22475000Y-71050000I-250000J0D01*
G01*
X21525000Y-71050000D01*
G75*
G02*
X21275000Y-70800000I0J250000D01*
G01*
X21275000Y-70125000D01*
G75*
G02*
X21525000Y-69875000I250000J0D01*
G01*
G37*
G36*
G01*
X21525000Y-71950000D02*
X22475000Y-71950000D01*
G75*
G02*
X22725000Y-72200000I0J-250000D01*
G01*
X22725000Y-72875000D01*
G75*
G02*
X22475000Y-73125000I-250000J0D01*
G01*
X21525000Y-73125000D01*
G75*
G02*
X21275000Y-72875000I0J250000D01*
G01*
X21275000Y-72200000D01*
G75*
G02*
X21525000Y-71950000I250000J0D01*
G01*
G37*
G36*
G01*
X25349998Y-72900000D02*
X26650002Y-72900000D01*
G75*
G02*
X26900000Y-73149998I0J-249998D01*
G01*
X26900000Y-73975002D01*
G75*
G02*
X26650002Y-74225000I-249998J0D01*
G01*
X25349998Y-74225000D01*
G75*
G02*
X25100000Y-73975002I0J249998D01*
G01*
X25100000Y-73149998D01*
G75*
G02*
X25349998Y-72900000I249998J0D01*
G01*
G37*
G36*
G01*
X25349998Y-69775000D02*
X26650002Y-69775000D01*
G75*
G02*
X26900000Y-70024998I0J-249998D01*
G01*
X26900000Y-70850002D01*
G75*
G02*
X26650002Y-71100000I-249998J0D01*
G01*
X25349998Y-71100000D01*
G75*
G02*
X25100000Y-70850002I0J249998D01*
G01*
X25100000Y-70024998D01*
G75*
G02*
X25349998Y-69775000I249998J0D01*
G01*
G37*
G36*
G01*
X89800000Y-70525000D02*
X89800000Y-71475000D01*
G75*
G02*
X89550000Y-71725000I-250000J0D01*
G01*
X88875000Y-71725000D01*
G75*
G02*
X88625000Y-71475000I0J250000D01*
G01*
X88625000Y-70525000D01*
G75*
G02*
X88875000Y-70275000I250000J0D01*
G01*
X89550000Y-70275000D01*
G75*
G02*
X89800000Y-70525000I0J-250000D01*
G01*
G37*
G36*
G01*
X91875000Y-70525000D02*
X91875000Y-71475000D01*
G75*
G02*
X91625000Y-71725000I-250000J0D01*
G01*
X90950000Y-71725000D01*
G75*
G02*
X90700000Y-71475000I0J250000D01*
G01*
X90700000Y-70525000D01*
G75*
G02*
X90950000Y-70275000I250000J0D01*
G01*
X91625000Y-70275000D01*
G75*
G02*
X91875000Y-70525000I0J-250000D01*
G01*
G37*
G36*
G01*
X29599998Y-69775000D02*
X30900002Y-69775000D01*
G75*
G02*
X31150000Y-70024998I0J-249998D01*
G01*
X31150000Y-70850002D01*
G75*
G02*
X30900002Y-71100000I-249998J0D01*
G01*
X29599998Y-71100000D01*
G75*
G02*
X29350000Y-70850002I0J249998D01*
G01*
X29350000Y-70024998D01*
G75*
G02*
X29599998Y-69775000I249998J0D01*
G01*
G37*
G36*
G01*
X29599998Y-72900000D02*
X30900002Y-72900000D01*
G75*
G02*
X31150000Y-73149998I0J-249998D01*
G01*
X31150000Y-73975002D01*
G75*
G02*
X30900002Y-74225000I-249998J0D01*
G01*
X29599998Y-74225000D01*
G75*
G02*
X29350000Y-73975002I0J249998D01*
G01*
X29350000Y-73149998D01*
G75*
G02*
X29599998Y-72900000I249998J0D01*
G01*
G37*
G36*
G01*
X88600000Y-74099998D02*
X88600000Y-75400002D01*
G75*
G02*
X88350002Y-75650000I-249998J0D01*
G01*
X87524998Y-75650000D01*
G75*
G02*
X87275000Y-75400002I0J249998D01*
G01*
X87275000Y-74099998D01*
G75*
G02*
X87524998Y-73850000I249998J0D01*
G01*
X88350002Y-73850000D01*
G75*
G02*
X88600000Y-74099998I0J-249998D01*
G01*
G37*
G36*
G01*
X91725000Y-74099998D02*
X91725000Y-75400002D01*
G75*
G02*
X91475002Y-75650000I-249998J0D01*
G01*
X90649998Y-75650000D01*
G75*
G02*
X90400000Y-75400002I0J249998D01*
G01*
X90400000Y-74099998D01*
G75*
G02*
X90649998Y-73850000I249998J0D01*
G01*
X91475002Y-73850000D01*
G75*
G02*
X91725000Y-74099998I0J-249998D01*
G01*
G37*
G36*
G01*
X91725000Y-78099998D02*
X91725000Y-79400002D01*
G75*
G02*
X91475002Y-79650000I-249998J0D01*
G01*
X90649998Y-79650000D01*
G75*
G02*
X90400000Y-79400002I0J249998D01*
G01*
X90400000Y-78099998D01*
G75*
G02*
X90649998Y-77850000I249998J0D01*
G01*
X91475002Y-77850000D01*
G75*
G02*
X91725000Y-78099998I0J-249998D01*
G01*
G37*
G36*
G01*
X88600000Y-78099998D02*
X88600000Y-79400002D01*
G75*
G02*
X88350002Y-79650000I-249998J0D01*
G01*
X87524998Y-79650000D01*
G75*
G02*
X87275000Y-79400002I0J249998D01*
G01*
X87275000Y-78099998D01*
G75*
G02*
X87524998Y-77850000I249998J0D01*
G01*
X88350002Y-77850000D01*
G75*
G02*
X88600000Y-78099998I0J-249998D01*
G01*
G37*
G36*
G01*
X44525000Y-48337500D02*
X45475000Y-48337500D01*
G75*
G02*
X45725000Y-48587500I0J-250000D01*
G01*
X45725000Y-49262500D01*
G75*
G02*
X45475000Y-49512500I-250000J0D01*
G01*
X44525000Y-49512500D01*
G75*
G02*
X44275000Y-49262500I0J250000D01*
G01*
X44275000Y-48587500D01*
G75*
G02*
X44525000Y-48337500I250000J0D01*
G01*
G37*
G36*
G01*
X44525000Y-50412500D02*
X45475000Y-50412500D01*
G75*
G02*
X45725000Y-50662500I0J-250000D01*
G01*
X45725000Y-51337500D01*
G75*
G02*
X45475000Y-51587500I-250000J0D01*
G01*
X44525000Y-51587500D01*
G75*
G02*
X44275000Y-51337500I0J250000D01*
G01*
X44275000Y-50662500D01*
G75*
G02*
X44525000Y-50412500I250000J0D01*
G01*
G37*
G36*
G01*
X23099998Y-46900000D02*
X24400002Y-46900000D01*
G75*
G02*
X24650000Y-47149998I0J-249998D01*
G01*
X24650000Y-47975002D01*
G75*
G02*
X24400002Y-48225000I-249998J0D01*
G01*
X23099998Y-48225000D01*
G75*
G02*
X22850000Y-47975002I0J249998D01*
G01*
X22850000Y-47149998D01*
G75*
G02*
X23099998Y-46900000I249998J0D01*
G01*
G37*
G36*
G01*
X23099998Y-43775000D02*
X24400002Y-43775000D01*
G75*
G02*
X24650000Y-44024998I0J-249998D01*
G01*
X24650000Y-44850002D01*
G75*
G02*
X24400002Y-45100000I-249998J0D01*
G01*
X23099998Y-45100000D01*
G75*
G02*
X22850000Y-44850002I0J249998D01*
G01*
X22850000Y-44024998D01*
G75*
G02*
X23099998Y-43775000I249998J0D01*
G01*
G37*
G36*
G01*
X49975000Y-75125000D02*
X49025000Y-75125000D01*
G75*
G02*
X48775000Y-74875000I0J250000D01*
G01*
X48775000Y-74200000D01*
G75*
G02*
X49025000Y-73950000I250000J0D01*
G01*
X49975000Y-73950000D01*
G75*
G02*
X50225000Y-74200000I0J-250000D01*
G01*
X50225000Y-74875000D01*
G75*
G02*
X49975000Y-75125000I-250000J0D01*
G01*
G37*
G36*
G01*
X49975000Y-73050000D02*
X49025000Y-73050000D01*
G75*
G02*
X48775000Y-72800000I0J250000D01*
G01*
X48775000Y-72125000D01*
G75*
G02*
X49025000Y-71875000I250000J0D01*
G01*
X49975000Y-71875000D01*
G75*
G02*
X50225000Y-72125000I0J-250000D01*
G01*
X50225000Y-72800000D01*
G75*
G02*
X49975000Y-73050000I-250000J0D01*
G01*
G37*
G36*
G01*
X28099998Y-43775000D02*
X29400002Y-43775000D01*
G75*
G02*
X29650000Y-44024998I0J-249998D01*
G01*
X29650000Y-44850002D01*
G75*
G02*
X29400002Y-45100000I-249998J0D01*
G01*
X28099998Y-45100000D01*
G75*
G02*
X27850000Y-44850002I0J249998D01*
G01*
X27850000Y-44024998D01*
G75*
G02*
X28099998Y-43775000I249998J0D01*
G01*
G37*
G36*
G01*
X28099998Y-46900000D02*
X29400002Y-46900000D01*
G75*
G02*
X29650000Y-47149998I0J-249998D01*
G01*
X29650000Y-47975002D01*
G75*
G02*
X29400002Y-48225000I-249998J0D01*
G01*
X28099998Y-48225000D01*
G75*
G02*
X27850000Y-47975002I0J249998D01*
G01*
X27850000Y-47149998D01*
G75*
G02*
X28099998Y-46900000I249998J0D01*
G01*
G37*
D20*
X55850000Y-80750000D03*
X60650000Y-80750000D03*
D21*
X21750000Y-85550000D03*
G36*
G01*
X23250000Y-95750000D02*
X20250000Y-95750000D01*
G75*
G02*
X18750000Y-94250000I0J1500000D01*
G01*
X18750000Y-91250000D01*
G75*
G02*
X20250000Y-89750000I1500000J0D01*
G01*
X23250000Y-89750000D01*
G75*
G02*
X24750000Y-91250000I0J-1500000D01*
G01*
X24750000Y-94250000D01*
G75*
G02*
X23250000Y-95750000I-1500000J0D01*
G01*
G37*
D16*
X4000000Y-89750000D03*
D15*
X4000000Y-94830000D03*
G36*
G01*
X26399999Y-62350000D02*
X23600001Y-62350000D01*
G75*
G02*
X23350000Y-62099999I0J250001D01*
G01*
X23350000Y-59900001D01*
G75*
G02*
X23600001Y-59650000I250001J0D01*
G01*
X26399999Y-59650000D01*
G75*
G02*
X26650000Y-59900001I0J-250001D01*
G01*
X26650000Y-62099999D01*
G75*
G02*
X26399999Y-62350000I-250001J0D01*
G01*
G37*
D22*
X25000000Y-56800000D03*
X30500000Y-61000000D03*
X30500000Y-56800000D03*
D23*
X61250000Y-72500000D03*
X62200000Y-74500000D03*
X60300000Y-74500000D03*
X81800000Y-74750000D03*
X83700000Y-74750000D03*
X82750000Y-72750000D03*
X71750000Y-72750000D03*
X72700000Y-74750000D03*
X70800000Y-74750000D03*
X76300000Y-74750000D03*
X78200000Y-74750000D03*
X77250000Y-72750000D03*
X65550000Y-74750000D03*
X67450000Y-74750000D03*
X66500000Y-72750000D03*
D24*
X51000000Y-80250000D03*
X51000000Y-82790000D03*
X51000000Y-85330000D03*
G36*
G01*
X46200000Y-77255000D02*
X46200000Y-77555000D01*
G75*
G02*
X46050000Y-77705000I-150000J0D01*
G01*
X44400000Y-77705000D01*
G75*
G02*
X44250000Y-77555000I0J150000D01*
G01*
X44250000Y-77255000D01*
G75*
G02*
X44400000Y-77105000I150000J0D01*
G01*
X46050000Y-77105000D01*
G75*
G02*
X46200000Y-77255000I0J-150000D01*
G01*
G37*
G36*
G01*
X46200000Y-75985000D02*
X46200000Y-76285000D01*
G75*
G02*
X46050000Y-76435000I-150000J0D01*
G01*
X44400000Y-76435000D01*
G75*
G02*
X44250000Y-76285000I0J150000D01*
G01*
X44250000Y-75985000D01*
G75*
G02*
X44400000Y-75835000I150000J0D01*
G01*
X46050000Y-75835000D01*
G75*
G02*
X46200000Y-75985000I0J-150000D01*
G01*
G37*
G36*
G01*
X46200000Y-74715000D02*
X46200000Y-75015000D01*
G75*
G02*
X46050000Y-75165000I-150000J0D01*
G01*
X44400000Y-75165000D01*
G75*
G02*
X44250000Y-75015000I0J150000D01*
G01*
X44250000Y-74715000D01*
G75*
G02*
X44400000Y-74565000I150000J0D01*
G01*
X46050000Y-74565000D01*
G75*
G02*
X46200000Y-74715000I0J-150000D01*
G01*
G37*
G36*
G01*
X46200000Y-73445000D02*
X46200000Y-73745000D01*
G75*
G02*
X46050000Y-73895000I-150000J0D01*
G01*
X44400000Y-73895000D01*
G75*
G02*
X44250000Y-73745000I0J150000D01*
G01*
X44250000Y-73445000D01*
G75*
G02*
X44400000Y-73295000I150000J0D01*
G01*
X46050000Y-73295000D01*
G75*
G02*
X46200000Y-73445000I0J-150000D01*
G01*
G37*
G36*
G01*
X41250000Y-73445000D02*
X41250000Y-73745000D01*
G75*
G02*
X41100000Y-73895000I-150000J0D01*
G01*
X39450000Y-73895000D01*
G75*
G02*
X39300000Y-73745000I0J150000D01*
G01*
X39300000Y-73445000D01*
G75*
G02*
X39450000Y-73295000I150000J0D01*
G01*
X41100000Y-73295000D01*
G75*
G02*
X41250000Y-73445000I0J-150000D01*
G01*
G37*
G36*
G01*
X41250000Y-74715000D02*
X41250000Y-75015000D01*
G75*
G02*
X41100000Y-75165000I-150000J0D01*
G01*
X39450000Y-75165000D01*
G75*
G02*
X39300000Y-75015000I0J150000D01*
G01*
X39300000Y-74715000D01*
G75*
G02*
X39450000Y-74565000I150000J0D01*
G01*
X41100000Y-74565000D01*
G75*
G02*
X41250000Y-74715000I0J-150000D01*
G01*
G37*
G36*
G01*
X41250000Y-75985000D02*
X41250000Y-76285000D01*
G75*
G02*
X41100000Y-76435000I-150000J0D01*
G01*
X39450000Y-76435000D01*
G75*
G02*
X39300000Y-76285000I0J150000D01*
G01*
X39300000Y-75985000D01*
G75*
G02*
X39450000Y-75835000I150000J0D01*
G01*
X41100000Y-75835000D01*
G75*
G02*
X41250000Y-75985000I0J-150000D01*
G01*
G37*
G36*
G01*
X41250000Y-77255000D02*
X41250000Y-77555000D01*
G75*
G02*
X41100000Y-77705000I-150000J0D01*
G01*
X39450000Y-77705000D01*
G75*
G02*
X39300000Y-77555000I0J150000D01*
G01*
X39300000Y-77255000D01*
G75*
G02*
X39450000Y-77105000I150000J0D01*
G01*
X41100000Y-77105000D01*
G75*
G02*
X41250000Y-77255000I0J-150000D01*
G01*
G37*
D25*
X96000000Y-44000000D03*
X96000000Y-96000000D03*
X13000000Y-44000000D03*
X13000000Y-96000000D03*
G36*
G01*
X76625000Y-80525000D02*
X76625000Y-81475000D01*
G75*
G02*
X76375000Y-81725000I-250000J0D01*
G01*
X75700000Y-81725000D01*
G75*
G02*
X75450000Y-81475000I0J250000D01*
G01*
X75450000Y-80525000D01*
G75*
G02*
X75700000Y-80275000I250000J0D01*
G01*
X76375000Y-80275000D01*
G75*
G02*
X76625000Y-80525000I0J-250000D01*
G01*
G37*
G36*
G01*
X74550000Y-80525000D02*
X74550000Y-81475000D01*
G75*
G02*
X74300000Y-81725000I-250000J0D01*
G01*
X73625000Y-81725000D01*
G75*
G02*
X73375000Y-81475000I0J250000D01*
G01*
X73375000Y-80525000D01*
G75*
G02*
X73625000Y-80275000I250000J0D01*
G01*
X74300000Y-80275000D01*
G75*
G02*
X74550000Y-80525000I0J-250000D01*
G01*
G37*
G36*
G01*
X73850000Y-87049999D02*
X73850000Y-87950001D01*
G75*
G02*
X73600001Y-88200000I-249999J0D01*
G01*
X72899999Y-88200000D01*
G75*
G02*
X72650000Y-87950001I0J249999D01*
G01*
X72650000Y-87049999D01*
G75*
G02*
X72899999Y-86800000I249999J0D01*
G01*
X73600001Y-86800000D01*
G75*
G02*
X73850000Y-87049999I0J-249999D01*
G01*
G37*
G36*
G01*
X71850000Y-87049999D02*
X71850000Y-87950001D01*
G75*
G02*
X71600001Y-88200000I-249999J0D01*
G01*
X70899999Y-88200000D01*
G75*
G02*
X70650000Y-87950001I0J249999D01*
G01*
X70650000Y-87049999D01*
G75*
G02*
X70899999Y-86800000I249999J0D01*
G01*
X71600001Y-86800000D01*
G75*
G02*
X71850000Y-87049999I0J-249999D01*
G01*
G37*
G36*
G01*
X65049999Y-76150000D02*
X65950001Y-76150000D01*
G75*
G02*
X66200000Y-76399999I0J-249999D01*
G01*
X66200000Y-77100001D01*
G75*
G02*
X65950001Y-77350000I-249999J0D01*
G01*
X65049999Y-77350000D01*
G75*
G02*
X64800000Y-77100001I0J249999D01*
G01*
X64800000Y-76399999D01*
G75*
G02*
X65049999Y-76150000I249999J0D01*
G01*
G37*
G36*
G01*
X65049999Y-78150000D02*
X65950001Y-78150000D01*
G75*
G02*
X66200000Y-78399999I0J-249999D01*
G01*
X66200000Y-79100001D01*
G75*
G02*
X65950001Y-79350000I-249999J0D01*
G01*
X65049999Y-79350000D01*
G75*
G02*
X64800000Y-79100001I0J249999D01*
G01*
X64800000Y-78399999D01*
G75*
G02*
X65049999Y-78150000I249999J0D01*
G01*
G37*
G36*
G01*
X93065800Y-77589801D02*
X93065800Y-76689799D01*
G75*
G02*
X93315799Y-76439800I249999J0D01*
G01*
X94015801Y-76439800D01*
G75*
G02*
X94265800Y-76689799I0J-249999D01*
G01*
X94265800Y-77589801D01*
G75*
G02*
X94015801Y-77839800I-249999J0D01*
G01*
X93315799Y-77839800D01*
G75*
G02*
X93065800Y-77589801I0J249999D01*
G01*
G37*
G36*
G01*
X95065800Y-77589801D02*
X95065800Y-76689799D01*
G75*
G02*
X95315799Y-76439800I249999J0D01*
G01*
X96015801Y-76439800D01*
G75*
G02*
X96265800Y-76689799I0J-249999D01*
G01*
X96265800Y-77589801D01*
G75*
G02*
X96015801Y-77839800I-249999J0D01*
G01*
X95315799Y-77839800D01*
G75*
G02*
X95065800Y-77589801I0J249999D01*
G01*
G37*
G36*
G01*
X83356400Y-90264401D02*
X83356400Y-89364399D01*
G75*
G02*
X83606399Y-89114400I249999J0D01*
G01*
X84306401Y-89114400D01*
G75*
G02*
X84556400Y-89364399I0J-249999D01*
G01*
X84556400Y-90264401D01*
G75*
G02*
X84306401Y-90514400I-249999J0D01*
G01*
X83606399Y-90514400D01*
G75*
G02*
X83356400Y-90264401I0J249999D01*
G01*
G37*
G36*
G01*
X81356400Y-90264401D02*
X81356400Y-89364399D01*
G75*
G02*
X81606399Y-89114400I249999J0D01*
G01*
X82306401Y-89114400D01*
G75*
G02*
X82556400Y-89364399I0J-249999D01*
G01*
X82556400Y-90264401D01*
G75*
G02*
X82306401Y-90514400I-249999J0D01*
G01*
X81606399Y-90514400D01*
G75*
G02*
X81356400Y-90264401I0J249999D01*
G01*
G37*
D24*
X56750000Y-85750000D03*
X59290000Y-85750000D03*
X61830000Y-85750000D03*
G36*
G01*
X72450000Y-85255000D02*
X72450000Y-85555000D01*
G75*
G02*
X72300000Y-85705000I-150000J0D01*
G01*
X70650000Y-85705000D01*
G75*
G02*
X70500000Y-85555000I0J150000D01*
G01*
X70500000Y-85255000D01*
G75*
G02*
X70650000Y-85105000I150000J0D01*
G01*
X72300000Y-85105000D01*
G75*
G02*
X72450000Y-85255000I0J-150000D01*
G01*
G37*
G36*
G01*
X72450000Y-83985000D02*
X72450000Y-84285000D01*
G75*
G02*
X72300000Y-84435000I-150000J0D01*
G01*
X70650000Y-84435000D01*
G75*
G02*
X70500000Y-84285000I0J150000D01*
G01*
X70500000Y-83985000D01*
G75*
G02*
X70650000Y-83835000I150000J0D01*
G01*
X72300000Y-83835000D01*
G75*
G02*
X72450000Y-83985000I0J-150000D01*
G01*
G37*
G36*
G01*
X72450000Y-82715000D02*
X72450000Y-83015000D01*
G75*
G02*
X72300000Y-83165000I-150000J0D01*
G01*
X70650000Y-83165000D01*
G75*
G02*
X70500000Y-83015000I0J150000D01*
G01*
X70500000Y-82715000D01*
G75*
G02*
X70650000Y-82565000I150000J0D01*
G01*
X72300000Y-82565000D01*
G75*
G02*
X72450000Y-82715000I0J-150000D01*
G01*
G37*
G36*
G01*
X72450000Y-81445000D02*
X72450000Y-81745000D01*
G75*
G02*
X72300000Y-81895000I-150000J0D01*
G01*
X70650000Y-81895000D01*
G75*
G02*
X70500000Y-81745000I0J150000D01*
G01*
X70500000Y-81445000D01*
G75*
G02*
X70650000Y-81295000I150000J0D01*
G01*
X72300000Y-81295000D01*
G75*
G02*
X72450000Y-81445000I0J-150000D01*
G01*
G37*
G36*
G01*
X67500000Y-81445000D02*
X67500000Y-81745000D01*
G75*
G02*
X67350000Y-81895000I-150000J0D01*
G01*
X65700000Y-81895000D01*
G75*
G02*
X65550000Y-81745000I0J150000D01*
G01*
X65550000Y-81445000D01*
G75*
G02*
X65700000Y-81295000I150000J0D01*
G01*
X67350000Y-81295000D01*
G75*
G02*
X67500000Y-81445000I0J-150000D01*
G01*
G37*
G36*
G01*
X67500000Y-82715000D02*
X67500000Y-83015000D01*
G75*
G02*
X67350000Y-83165000I-150000J0D01*
G01*
X65700000Y-83165000D01*
G75*
G02*
X65550000Y-83015000I0J150000D01*
G01*
X65550000Y-82715000D01*
G75*
G02*
X65700000Y-82565000I150000J0D01*
G01*
X67350000Y-82565000D01*
G75*
G02*
X67500000Y-82715000I0J-150000D01*
G01*
G37*
G36*
G01*
X67500000Y-83985000D02*
X67500000Y-84285000D01*
G75*
G02*
X67350000Y-84435000I-150000J0D01*
G01*
X65700000Y-84435000D01*
G75*
G02*
X65550000Y-84285000I0J150000D01*
G01*
X65550000Y-83985000D01*
G75*
G02*
X65700000Y-83835000I150000J0D01*
G01*
X67350000Y-83835000D01*
G75*
G02*
X67500000Y-83985000I0J-150000D01*
G01*
G37*
G36*
G01*
X67500000Y-85255000D02*
X67500000Y-85555000D01*
G75*
G02*
X67350000Y-85705000I-150000J0D01*
G01*
X65700000Y-85705000D01*
G75*
G02*
X65550000Y-85555000I0J150000D01*
G01*
X65550000Y-85255000D01*
G75*
G02*
X65700000Y-85105000I150000J0D01*
G01*
X67350000Y-85105000D01*
G75*
G02*
X67500000Y-85255000I0J-150000D01*
G01*
G37*
D26*
X89950000Y-85800000D03*
X89950000Y-82800000D03*
D27*
G36*
X84500000Y-83433500D02*
G01*
X88625000Y-83433500D01*
X88625000Y-83850000D01*
X91100000Y-83850000D01*
X91100000Y-84750000D01*
X88625000Y-84750000D01*
X88625000Y-85166500D01*
X84500000Y-85166500D01*
X84500000Y-83433500D01*
G37*
G36*
G01*
X30299999Y-93150000D02*
X31200001Y-93150000D01*
G75*
G02*
X31450000Y-93399999I0J-249999D01*
G01*
X31450000Y-94100001D01*
G75*
G02*
X31200001Y-94350000I-249999J0D01*
G01*
X30299999Y-94350000D01*
G75*
G02*
X30050000Y-94100001I0J249999D01*
G01*
X30050000Y-93399999D01*
G75*
G02*
X30299999Y-93150000I249999J0D01*
G01*
G37*
G36*
G01*
X30299999Y-91150000D02*
X31200001Y-91150000D01*
G75*
G02*
X31450000Y-91399999I0J-249999D01*
G01*
X31450000Y-92100001D01*
G75*
G02*
X31200001Y-92350000I-249999J0D01*
G01*
X30299999Y-92350000D01*
G75*
G02*
X30050000Y-92100001I0J249999D01*
G01*
X30050000Y-91399999D01*
G75*
G02*
X30299999Y-91150000I249999J0D01*
G01*
G37*
G36*
G01*
X38799999Y-91150000D02*
X39700001Y-91150000D01*
G75*
G02*
X39950000Y-91399999I0J-249999D01*
G01*
X39950000Y-92100001D01*
G75*
G02*
X39700001Y-92350000I-249999J0D01*
G01*
X38799999Y-92350000D01*
G75*
G02*
X38550000Y-92100001I0J249999D01*
G01*
X38550000Y-91399999D01*
G75*
G02*
X38799999Y-91150000I249999J0D01*
G01*
G37*
G36*
G01*
X38799999Y-93150000D02*
X39700001Y-93150000D01*
G75*
G02*
X39950000Y-93399999I0J-249999D01*
G01*
X39950000Y-94100001D01*
G75*
G02*
X39700001Y-94350000I-249999J0D01*
G01*
X38799999Y-94350000D01*
G75*
G02*
X38550000Y-94100001I0J249999D01*
G01*
X38550000Y-93399999D01*
G75*
G02*
X38799999Y-93150000I249999J0D01*
G01*
G37*
G36*
G01*
X34950001Y-84350000D02*
X34049999Y-84350000D01*
G75*
G02*
X33800000Y-84100001I0J249999D01*
G01*
X33800000Y-83399999D01*
G75*
G02*
X34049999Y-83150000I249999J0D01*
G01*
X34950001Y-83150000D01*
G75*
G02*
X35200000Y-83399999I0J-249999D01*
G01*
X35200000Y-84100001D01*
G75*
G02*
X34950001Y-84350000I-249999J0D01*
G01*
G37*
G36*
G01*
X34950001Y-82350000D02*
X34049999Y-82350000D01*
G75*
G02*
X33800000Y-82100001I0J249999D01*
G01*
X33800000Y-81399999D01*
G75*
G02*
X34049999Y-81150000I249999J0D01*
G01*
X34950001Y-81150000D01*
G75*
G02*
X35200000Y-81399999I0J-249999D01*
G01*
X35200000Y-82100001D01*
G75*
G02*
X34950001Y-82350000I-249999J0D01*
G01*
G37*
G36*
G01*
X30299999Y-83150000D02*
X31200001Y-83150000D01*
G75*
G02*
X31450000Y-83399999I0J-249999D01*
G01*
X31450000Y-84100001D01*
G75*
G02*
X31200001Y-84350000I-249999J0D01*
G01*
X30299999Y-84350000D01*
G75*
G02*
X30050000Y-84100001I0J249999D01*
G01*
X30050000Y-83399999D01*
G75*
G02*
X30299999Y-83150000I249999J0D01*
G01*
G37*
G36*
G01*
X30299999Y-81150000D02*
X31200001Y-81150000D01*
G75*
G02*
X31450000Y-81399999I0J-249999D01*
G01*
X31450000Y-82100001D01*
G75*
G02*
X31200001Y-82350000I-249999J0D01*
G01*
X30299999Y-82350000D01*
G75*
G02*
X30050000Y-82100001I0J249999D01*
G01*
X30050000Y-81399999D01*
G75*
G02*
X30299999Y-81150000I249999J0D01*
G01*
G37*
G36*
G01*
X50549999Y-93150000D02*
X51450001Y-93150000D01*
G75*
G02*
X51700000Y-93399999I0J-249999D01*
G01*
X51700000Y-94100001D01*
G75*
G02*
X51450001Y-94350000I-249999J0D01*
G01*
X50549999Y-94350000D01*
G75*
G02*
X50300000Y-94100001I0J249999D01*
G01*
X50300000Y-93399999D01*
G75*
G02*
X50549999Y-93150000I249999J0D01*
G01*
G37*
G36*
G01*
X50549999Y-91150000D02*
X51450001Y-91150000D01*
G75*
G02*
X51700000Y-91399999I0J-249999D01*
G01*
X51700000Y-92100001D01*
G75*
G02*
X51450001Y-92350000I-249999J0D01*
G01*
X50549999Y-92350000D01*
G75*
G02*
X50300000Y-92100001I0J249999D01*
G01*
X50300000Y-91399999D01*
G75*
G02*
X50549999Y-91150000I249999J0D01*
G01*
G37*
G36*
G01*
X59049999Y-91150000D02*
X59950001Y-91150000D01*
G75*
G02*
X60200000Y-91399999I0J-249999D01*
G01*
X60200000Y-92100001D01*
G75*
G02*
X59950001Y-92350000I-249999J0D01*
G01*
X59049999Y-92350000D01*
G75*
G02*
X58800000Y-92100001I0J249999D01*
G01*
X58800000Y-91399999D01*
G75*
G02*
X59049999Y-91150000I249999J0D01*
G01*
G37*
G36*
G01*
X59049999Y-93150000D02*
X59950001Y-93150000D01*
G75*
G02*
X60200000Y-93399999I0J-249999D01*
G01*
X60200000Y-94100001D01*
G75*
G02*
X59950001Y-94350000I-249999J0D01*
G01*
X59049999Y-94350000D01*
G75*
G02*
X58800000Y-94100001I0J249999D01*
G01*
X58800000Y-93399999D01*
G75*
G02*
X59049999Y-93150000I249999J0D01*
G01*
G37*
G36*
G01*
X42200001Y-82350000D02*
X41299999Y-82350000D01*
G75*
G02*
X41050000Y-82100001I0J249999D01*
G01*
X41050000Y-81399999D01*
G75*
G02*
X41299999Y-81150000I249999J0D01*
G01*
X42200001Y-81150000D01*
G75*
G02*
X42450000Y-81399999I0J-249999D01*
G01*
X42450000Y-82100001D01*
G75*
G02*
X42200001Y-82350000I-249999J0D01*
G01*
G37*
G36*
G01*
X42200001Y-84350000D02*
X41299999Y-84350000D01*
G75*
G02*
X41050000Y-84100001I0J249999D01*
G01*
X41050000Y-83399999D01*
G75*
G02*
X41299999Y-83150000I249999J0D01*
G01*
X42200001Y-83150000D01*
G75*
G02*
X42450000Y-83399999I0J-249999D01*
G01*
X42450000Y-84100001D01*
G75*
G02*
X42200001Y-84350000I-249999J0D01*
G01*
G37*
G36*
G01*
X37799999Y-83150000D02*
X38700001Y-83150000D01*
G75*
G02*
X38950000Y-83399999I0J-249999D01*
G01*
X38950000Y-84100001D01*
G75*
G02*
X38700001Y-84350000I-249999J0D01*
G01*
X37799999Y-84350000D01*
G75*
G02*
X37550000Y-84100001I0J249999D01*
G01*
X37550000Y-83399999D01*
G75*
G02*
X37799999Y-83150000I249999J0D01*
G01*
G37*
G36*
G01*
X37799999Y-81150000D02*
X38700001Y-81150000D01*
G75*
G02*
X38950000Y-81399999I0J-249999D01*
G01*
X38950000Y-82100001D01*
G75*
G02*
X38700001Y-82350000I-249999J0D01*
G01*
X37799999Y-82350000D01*
G75*
G02*
X37550000Y-82100001I0J249999D01*
G01*
X37550000Y-81399999D01*
G75*
G02*
X37799999Y-81150000I249999J0D01*
G01*
G37*
G36*
G01*
X70799999Y-91150000D02*
X71700001Y-91150000D01*
G75*
G02*
X71950000Y-91399999I0J-249999D01*
G01*
X71950000Y-92100001D01*
G75*
G02*
X71700001Y-92350000I-249999J0D01*
G01*
X70799999Y-92350000D01*
G75*
G02*
X70550000Y-92100001I0J249999D01*
G01*
X70550000Y-91399999D01*
G75*
G02*
X70799999Y-91150000I249999J0D01*
G01*
G37*
G36*
G01*
X70799999Y-93150000D02*
X71700001Y-93150000D01*
G75*
G02*
X71950000Y-93399999I0J-249999D01*
G01*
X71950000Y-94100001D01*
G75*
G02*
X71700001Y-94350000I-249999J0D01*
G01*
X70799999Y-94350000D01*
G75*
G02*
X70550000Y-94100001I0J249999D01*
G01*
X70550000Y-93399999D01*
G75*
G02*
X70799999Y-93150000I249999J0D01*
G01*
G37*
G36*
G01*
X79299999Y-91150000D02*
X80200001Y-91150000D01*
G75*
G02*
X80450000Y-91399999I0J-249999D01*
G01*
X80450000Y-92100001D01*
G75*
G02*
X80200001Y-92350000I-249999J0D01*
G01*
X79299999Y-92350000D01*
G75*
G02*
X79050000Y-92100001I0J249999D01*
G01*
X79050000Y-91399999D01*
G75*
G02*
X79299999Y-91150000I249999J0D01*
G01*
G37*
G36*
G01*
X79299999Y-93150000D02*
X80200001Y-93150000D01*
G75*
G02*
X80450000Y-93399999I0J-249999D01*
G01*
X80450000Y-94100001D01*
G75*
G02*
X80200001Y-94350000I-249999J0D01*
G01*
X79299999Y-94350000D01*
G75*
G02*
X79050000Y-94100001I0J249999D01*
G01*
X79050000Y-93399999D01*
G75*
G02*
X79299999Y-93150000I249999J0D01*
G01*
G37*
G36*
G01*
X45049999Y-81150000D02*
X45950001Y-81150000D01*
G75*
G02*
X46200000Y-81399999I0J-249999D01*
G01*
X46200000Y-82100001D01*
G75*
G02*
X45950001Y-82350000I-249999J0D01*
G01*
X45049999Y-82350000D01*
G75*
G02*
X44800000Y-82100001I0J249999D01*
G01*
X44800000Y-81399999D01*
G75*
G02*
X45049999Y-81150000I249999J0D01*
G01*
G37*
G36*
G01*
X45049999Y-83150000D02*
X45950001Y-83150000D01*
G75*
G02*
X46200000Y-83399999I0J-249999D01*
G01*
X46200000Y-84100001D01*
G75*
G02*
X45950001Y-84350000I-249999J0D01*
G01*
X45049999Y-84350000D01*
G75*
G02*
X44800000Y-84100001I0J249999D01*
G01*
X44800000Y-83399999D01*
G75*
G02*
X45049999Y-83150000I249999J0D01*
G01*
G37*
G36*
G01*
X35549999Y-71900000D02*
X36450001Y-71900000D01*
G75*
G02*
X36700000Y-72149999I0J-249999D01*
G01*
X36700000Y-72850001D01*
G75*
G02*
X36450001Y-73100000I-249999J0D01*
G01*
X35549999Y-73100000D01*
G75*
G02*
X35300000Y-72850001I0J249999D01*
G01*
X35300000Y-72149999D01*
G75*
G02*
X35549999Y-71900000I249999J0D01*
G01*
G37*
G36*
G01*
X35549999Y-73900000D02*
X36450001Y-73900000D01*
G75*
G02*
X36700000Y-74149999I0J-249999D01*
G01*
X36700000Y-74850001D01*
G75*
G02*
X36450001Y-75100000I-249999J0D01*
G01*
X35549999Y-75100000D01*
G75*
G02*
X35300000Y-74850001I0J249999D01*
G01*
X35300000Y-74149999D01*
G75*
G02*
X35549999Y-73900000I249999J0D01*
G01*
G37*
G36*
G01*
X53799999Y-71900000D02*
X54700001Y-71900000D01*
G75*
G02*
X54950000Y-72149999I0J-249999D01*
G01*
X54950000Y-72850001D01*
G75*
G02*
X54700001Y-73100000I-249999J0D01*
G01*
X53799999Y-73100000D01*
G75*
G02*
X53550000Y-72850001I0J249999D01*
G01*
X53550000Y-72149999D01*
G75*
G02*
X53799999Y-71900000I249999J0D01*
G01*
G37*
G36*
G01*
X53799999Y-73900000D02*
X54700001Y-73900000D01*
G75*
G02*
X54950000Y-74149999I0J-249999D01*
G01*
X54950000Y-74850001D01*
G75*
G02*
X54700001Y-75100000I-249999J0D01*
G01*
X53799999Y-75100000D01*
G75*
G02*
X53550000Y-74850001I0J249999D01*
G01*
X53550000Y-74149999D01*
G75*
G02*
X53799999Y-73900000I249999J0D01*
G01*
G37*
G36*
G01*
X57150000Y-77700001D02*
X57150000Y-76799999D01*
G75*
G02*
X57399999Y-76550000I249999J0D01*
G01*
X58100001Y-76550000D01*
G75*
G02*
X58350000Y-76799999I0J-249999D01*
G01*
X58350000Y-77700001D01*
G75*
G02*
X58100001Y-77950000I-249999J0D01*
G01*
X57399999Y-77950000D01*
G75*
G02*
X57150000Y-77700001I0J249999D01*
G01*
G37*
G36*
G01*
X55150000Y-77700001D02*
X55150000Y-76799999D01*
G75*
G02*
X55399999Y-76550000I249999J0D01*
G01*
X56100001Y-76550000D01*
G75*
G02*
X56350000Y-76799999I0J-249999D01*
G01*
X56350000Y-77700001D01*
G75*
G02*
X56100001Y-77950000I-249999J0D01*
G01*
X55399999Y-77950000D01*
G75*
G02*
X55150000Y-77700001I0J249999D01*
G01*
G37*
G36*
G01*
X61650000Y-77700001D02*
X61650000Y-76799999D01*
G75*
G02*
X61899999Y-76550000I249999J0D01*
G01*
X62600001Y-76550000D01*
G75*
G02*
X62850000Y-76799999I0J-249999D01*
G01*
X62850000Y-77700001D01*
G75*
G02*
X62600001Y-77950000I-249999J0D01*
G01*
X61899999Y-77950000D01*
G75*
G02*
X61650000Y-77700001I0J249999D01*
G01*
G37*
G36*
G01*
X59650000Y-77700001D02*
X59650000Y-76799999D01*
G75*
G02*
X59899999Y-76550000I249999J0D01*
G01*
X60600001Y-76550000D01*
G75*
G02*
X60850000Y-76799999I0J-249999D01*
G01*
X60850000Y-77700001D01*
G75*
G02*
X60600001Y-77950000I-249999J0D01*
G01*
X59899999Y-77950000D01*
G75*
G02*
X59650000Y-77700001I0J249999D01*
G01*
G37*
G36*
G01*
X57299999Y-73900000D02*
X58200001Y-73900000D01*
G75*
G02*
X58450000Y-74149999I0J-249999D01*
G01*
X58450000Y-74850001D01*
G75*
G02*
X58200001Y-75100000I-249999J0D01*
G01*
X57299999Y-75100000D01*
G75*
G02*
X57050000Y-74850001I0J249999D01*
G01*
X57050000Y-74149999D01*
G75*
G02*
X57299999Y-73900000I249999J0D01*
G01*
G37*
G36*
G01*
X57299999Y-71900000D02*
X58200001Y-71900000D01*
G75*
G02*
X58450000Y-72149999I0J-249999D01*
G01*
X58450000Y-72850001D01*
G75*
G02*
X58200001Y-73100000I-249999J0D01*
G01*
X57299999Y-73100000D01*
G75*
G02*
X57050000Y-72850001I0J249999D01*
G01*
X57050000Y-72149999D01*
G75*
G02*
X57299999Y-71900000I249999J0D01*
G01*
G37*
D28*
X97750000Y-88750000D03*
D29*
X97750000Y-90020000D03*
D23*
X80800000Y-85250000D03*
X82700000Y-85250000D03*
X81750000Y-83250000D03*
X81750000Y-79250000D03*
X82700000Y-81250000D03*
X80800000Y-81250000D03*
G36*
G01*
X74799999Y-82400000D02*
X75700001Y-82400000D01*
G75*
G02*
X75950000Y-82649999I0J-249999D01*
G01*
X75950000Y-83350001D01*
G75*
G02*
X75700001Y-83600000I-249999J0D01*
G01*
X74799999Y-83600000D01*
G75*
G02*
X74550000Y-83350001I0J249999D01*
G01*
X74550000Y-82649999D01*
G75*
G02*
X74799999Y-82400000I249999J0D01*
G01*
G37*
G36*
G01*
X74799999Y-84400000D02*
X75700001Y-84400000D01*
G75*
G02*
X75950000Y-84649999I0J-249999D01*
G01*
X75950000Y-85350001D01*
G75*
G02*
X75700001Y-85600000I-249999J0D01*
G01*
X74799999Y-85600000D01*
G75*
G02*
X74550000Y-85350001I0J249999D01*
G01*
X74550000Y-84649999D01*
G75*
G02*
X74799999Y-84400000I249999J0D01*
G01*
G37*
G36*
G01*
X76799999Y-86150000D02*
X77700001Y-86150000D01*
G75*
G02*
X77950000Y-86399999I0J-249999D01*
G01*
X77950000Y-87100001D01*
G75*
G02*
X77700001Y-87350000I-249999J0D01*
G01*
X76799999Y-87350000D01*
G75*
G02*
X76550000Y-87100001I0J249999D01*
G01*
X76550000Y-86399999D01*
G75*
G02*
X76799999Y-86150000I249999J0D01*
G01*
G37*
G36*
G01*
X76799999Y-88150000D02*
X77700001Y-88150000D01*
G75*
G02*
X77950000Y-88399999I0J-249999D01*
G01*
X77950000Y-89100001D01*
G75*
G02*
X77700001Y-89350000I-249999J0D01*
G01*
X76799999Y-89350000D01*
G75*
G02*
X76550000Y-89100001I0J249999D01*
G01*
X76550000Y-88399999D01*
G75*
G02*
X76799999Y-88150000I249999J0D01*
G01*
G37*
G36*
G01*
X76900000Y-79200001D02*
X76900000Y-78299999D01*
G75*
G02*
X77149999Y-78050000I249999J0D01*
G01*
X77850001Y-78050000D01*
G75*
G02*
X78100000Y-78299999I0J-249999D01*
G01*
X78100000Y-79200001D01*
G75*
G02*
X77850001Y-79450000I-249999J0D01*
G01*
X77149999Y-79450000D01*
G75*
G02*
X76900000Y-79200001I0J249999D01*
G01*
G37*
G36*
G01*
X74900000Y-79200001D02*
X74900000Y-78299999D01*
G75*
G02*
X75149999Y-78050000I249999J0D01*
G01*
X75850001Y-78050000D01*
G75*
G02*
X76100000Y-78299999I0J-249999D01*
G01*
X76100000Y-79200001D01*
G75*
G02*
X75850001Y-79450000I-249999J0D01*
G01*
X75149999Y-79450000D01*
G75*
G02*
X74900000Y-79200001I0J249999D01*
G01*
G37*
D30*
X95656400Y-80441800D03*
D31*
X95656400Y-82981800D03*
D32*
X83591400Y-92862400D03*
D33*
X91211400Y-97942400D03*
X83591400Y-95402400D03*
X91211400Y-95402400D03*
X83591400Y-97942400D03*
X91211400Y-92862400D03*
M02*
