M48
; DRILL file {KiCad 5.1.10-88a1d61d58~90~ubuntu20.04.1} date Tue Oct  5 00:42:14 2021
; FORMAT={-:-/ absolute / inch / decimal}
; #@! TF.CreationDate,2021-10-05T00:42:14+01:00
; #@! TF.GenerationSoftware,Kicad,Pcbnew,5.1.10-88a1d61d58~90~ubuntu20.04.1
; #@! TF.FileFunction,Plated,1,4,PTH
FMAT,2
INCH
T1C0.0118
T2C0.0256
T3C0.0315
T4C0.0394
T5C0.0492
T6C0.0551
T7C0.0598
T8C0.1772
%
G90
G05
T1
X1.0236Y-3.002
X1.0433Y-3.0315
X1.0531Y-3.002
X1.0728Y-3.0315
X1.0827Y-3.002
X1.1024Y-3.0315
X1.1122Y-3.002
X1.1319Y-3.0315
X1.2992Y-3.3858
X1.2992Y-3.4252
X1.2992Y-3.4646
X1.4488Y-1.9803
X1.4567Y-3.3858
X1.4567Y-3.4252
X1.4567Y-3.4646
X1.4646Y-1.9528
X1.4803Y-1.9803
X1.4961Y-1.9528
X1.5118Y-1.9803
X1.5276Y-1.9528
X1.5433Y-1.9803
X1.5591Y-1.9528
X1.6142Y-3.3858
X1.6142Y-3.4252
X1.6142Y-3.4646
X1.6929Y-3.622
X1.7323Y-3.3858
X1.7323Y-3.4252
X1.7323Y-3.4646
X1.811Y-3.622
X1.8504Y-3.3858
X1.8504Y-3.4252
X1.8504Y-3.4646
X1.9291Y-3.0315
X1.9488Y-3.061
X1.9587Y-3.0315
X1.9783Y-3.061
X1.9882Y-3.0315
X2.0079Y-3.061
X2.0177Y-3.0315
X2.0374Y-3.061
X2.126Y-3.5827
X2.2835Y-3.5433
X2.6673Y-3.1496
X2.687Y-3.1791
X2.6969Y-3.1496
X2.7165Y-3.1791
X2.7264Y-3.1496
X2.7461Y-3.1791
X2.7559Y-3.1496
X3.061Y-3.1791
X3.0709Y-3.2087
X3.0906Y-3.1791
X3.1004Y-3.2087
X3.1201Y-3.1791
X3.1299Y-3.2087
X3.3465Y-2.7756
X3.3622Y-2.7992
X3.3701Y-2.9567
X3.3701Y-2.9882
X3.3701Y-3.0197
X3.3701Y-3.0512
X3.378Y-2.7756
X3.3937Y-2.7992
X3.3976Y-2.9764
X3.3976Y-3.0079
X3.3976Y-3.0394
X3.3976Y-3.0709
X3.4094Y-2.7756
X3.7087Y-2.7402
X3.7205Y-2.7677
X3.7362Y-2.7402
X3.748Y-2.7677
X3.7638Y-2.7402
X3.7756Y-2.7677
X3.7913Y-2.7402
X3.8031Y-2.7677
T2
X3.8484Y-3.4941
X3.8484Y-3.5441
T3
X2.0079Y-3.1594
X2.0079Y-3.2594
X2.0079Y-3.3594
X2.2343Y-3.376
X2.3343Y-3.376
X2.4343Y-3.376
T5
X2.9606Y-2.5197
X3.063Y-2.5197
X3.1614Y-2.5197
T6
X0.9843Y-2.2362
X0.9843Y-2.4016
X1.2008Y-2.2362
X1.2008Y-2.4016
T7
X0.1575Y-1.811
X0.1575Y-2.011
X0.1575Y-2.211
X0.1575Y-2.411
X0.1575Y-3.5335
X0.1575Y-3.7335
T8
X0.8563Y-3.3681
X0.8563Y-3.6516
T4
G00X0.315Y-2.8937
M15
G01X0.315Y-2.9724
M16
G05
G00X0.3937Y-3.1181
M15
G01X0.4724Y-3.1181
M16
G05
G00X0.5512Y-2.8937
M15
G01X0.5512Y-2.9724
M16
G05
T0
M30
